M48
;DRILL file {KiCad 4.0.1-stable} date 2016/05/29 12:35:46
;FORMAT={-:-/ absolute / metric / decimal}
FMAT,2
METRIC,TZ
T1C0.400
T2C0.500
T3C1.016
T4C3.200
%
G90
G05
M71
T1
X34.5Y-107.1
X35.1Y-47.8
X35.1Y-88.4
X35.2Y-78.3
X35.3Y-57.9
X35.4Y-68.1
X36.Y-42.7
X36.3Y-112.1
X37.9Y-102.1
X38.Y-75.7
X38.3Y-40.5
X38.4Y-82.2
X39.Y-109.
X39.1Y-55.4
X39.1Y-85.9
X39.1Y-96.
X39.2Y-65.6
X39.4Y-45.2
X39.4Y-81.4
X40.2Y-61.
X40.2Y-117.3
X40.4Y-80.6
X40.5Y-49.7
X41.4Y-79.8
X42.2Y-78.9
X42.6Y-51.7
X42.8Y-121.
X43.2Y-78.3
X44.Y-71.6
X45.4Y-71.6
X46.Y-118.2
X46.7Y-60.9
X46.7Y-68.9
X46.8Y-55.2
X46.8Y-57.9
X46.9Y-121.4
X48.Y-92.5
X48.3Y-111.1
X48.4Y-112.9
X48.6Y-120.1
X48.9Y-115.8
X48.9Y-117.4
X49.Y-63.7
X49.Y-68.4
X49.1Y-78.3
X49.4Y-73.3
X49.7Y-90.3
X50.Y-65.7
X50.Y-68.4
X50.Y-80.8
X50.Y-82.5
X50.4Y-117.8
X50.7Y-107.9
X50.7Y-111.1
X50.95Y-76.1
X51.Y-73.2
X51.5Y-78.4
X52.3Y-85.9
X52.9Y-121.
X53.Y-31.
X53.1Y-86.8
X53.5Y-41.5
X53.7Y-108.
X53.7Y-111.1
X54.25Y-44.5
X54.3Y-46.3
X54.3Y-48.
X55.3Y-58.1
X55.3Y-71.7
X55.4Y-63.5
X55.4Y-67.4
X55.5Y-86.8
X56.1Y-116.8
X56.8Y-75.1
X56.8Y-86.8
X57.Y-53.8
X57.3Y-115.1
X57.7Y-78.3
X57.7Y-107.7
X58.02Y-119.62
X58.1Y-86.8
X58.2Y-58.
X58.2Y-67.3
X58.2Y-75.1
X59.4Y-74.1
X59.4Y-86.8
X60.56Y-116.8
X60.7Y-86.8
X60.8Y-53.2
X60.8Y-103.7
X61.Y-63.4
X61.Y-67.3
X61.1Y-58.1
X61.3Y-47.5
X62.1Y-86.8
X63.1Y-104.8
X63.1Y-121.3
X63.3Y-92.5
X63.4Y-90.3
X65.Y-47.5
X65.3Y-44.5
X65.8Y-57.5
X65.8Y-107.9
X65.8Y-117.
X65.9Y-52.5
X65.9Y-103.7
X65.9Y-104.7
X66.6Y-80.7
X67.4Y-117.1
X67.4Y-120.8
X68.Y-79.8
X68.6Y-105.3
X68.8Y-104.1
X69.3Y-78.7
X70.Y-109.1
X70.Y-110.1
X70.Y-111.4
X70.7Y-117.9
X71.1Y-82.9
X72.Y-86.8
X72.1Y-81.6
X73.Y-112.4
X73.2Y-80.1
X73.2Y-86.8
X73.2Y-92.8
X73.2Y-103.7
X73.2Y-121.3
X73.6Y-95.4
X74.Y-113.2
X74.2Y-78.8
X74.2Y-106.5
X74.5Y-86.8
X74.9Y-114.1
X75.9Y-86.9
X76.Y-115.1
X76.9Y-116.1
X80.1Y-103.
X80.7Y-101.3
X80.8Y-93.9
X80.8Y-95.2
X80.8Y-96.5
X80.8Y-97.7
X80.8Y-98.8
X80.8Y-100.1
X80.8Y-117.2
X81.Y-55.
X81.Y-58.2
X81.2Y-61.4
X81.5Y-80.1
X82.4Y-81.6
X82.9Y-73.5
X83.3Y-82.9
X83.5Y-121.3
X83.9Y-46.3
X84.4Y-54.9
X84.4Y-58.2
X84.4Y-61.5
X84.4Y-74.3
X85.1Y-105.3
X85.7Y-75.2
X86.6Y-117.6
X87.2Y-52.8
X87.2Y-76.
X87.2Y-78.8
X87.4Y-81.6
X87.9Y-120.3
X88.3Y-117.6
X88.5Y-47.9
X88.7Y-61.4
X88.9Y-49.
X88.9Y-55.
X88.9Y-58.2
X89.Y-73.7
X89.1Y-108.6
X89.9Y-50.1
X90.Y-120.3
X90.2Y-81.3
X90.6Y-73.6
X91.Y-117.1
X91.2Y-45.2
X92.Y-73.4
X93.5Y-73.3
X93.6Y-121.5
X93.9Y-40.7
X94.2Y-45.3
X94.6Y-73.5
X95.8Y-45.4
X96.Y-73.6
X96.6Y-40.6
X97.4Y-118.
X97.6Y-73.6
X97.8Y-43.2
X97.9Y-120.6
X98.4Y-40.2
X98.5Y-46.9
X98.7Y-82.
X98.7Y-86.3
X98.9Y-87.8
X98.9Y-93.2
X99.Y-31.
X99.2Y-73.6
X99.8Y-43.1
X99.9Y-87.8
X99.9Y-90.8
X100.7Y-117.3
X100.8Y-84.8
X101.5Y-80.9
X101.7Y-46.9
X101.75Y-41.25
X102.5Y-39.
X102.9Y-121.5
X103.Y-87.8
X104.2Y-44.6
X104.6Y-85.6
X105.1Y-116.9
X105.7Y-85.6
X106.9Y-84.7
X107.1Y-120.9
X107.7Y-81.
X108.5Y-80.2
X109.4Y-79.4
X110.3Y-78.7
X110.9Y-107.
X111.2Y-78.
X111.5Y-56.4
X111.7Y-75.72
X111.8Y-86.6
X112.Y-63.02
X112.Y-66.5
X112.Y-96.9
X112.1Y-52.9
X112.1Y-73.18
X112.1Y-93.5
X112.1Y-113.8
X112.2Y-42.7
X112.24Y-83.34
X112.3Y-116.6
X112.4Y-103.66
X112.6Y-46.3
X115.Y-106.9
X115.4Y-116.4
X115.5Y-55.9
X115.6Y-86.
X115.7Y-96.7
X115.8Y-75.6
X116.Y-46.
X116.1Y-50.32
X116.1Y-66.2
X116.1Y-111.28
X116.2Y-40.16
X116.2Y-60.48
X116.2Y-70.64
X116.2Y-90.96
X116.3Y-80.8
X116.4Y-101.12
T2
X34.8Y-91.
X34.84Y-70.64
X35.2Y-50.3
X35.2Y-81.9
X35.4Y-60.5
X36.7Y-80.5
X38.3Y-89.8
X38.5Y-49.3
X38.5Y-59.3
X38.6Y-69.6
X44.2Y-117.9
X45.3Y-120.9
X46.5Y-43.2
X48.1Y-53.1
X50.7Y-58.3
X53.5Y-59.2
X53.55Y-71.05
X54.2Y-32.6
X54.3Y-117.9
X55.8Y-103.1
X55.8Y-106.7
X56.2Y-41.5
X59.1Y-118.1
X61.3Y-40.7
X63.2Y-69.
X63.6Y-54.3
X63.6Y-61.
X64.3Y-94.1
X64.3Y-117.8
X66.2Y-63.6
X67.3Y-88.2
X67.3Y-92.5
X68.Y-84.4
X69.1Y-119.2
X69.7Y-94.9
X72.3Y-74.4
X74.4Y-44.7
X74.4Y-53.9
X74.5Y-66.6
X76.2Y-118.4
X76.8Y-74.4
X79.5Y-85.
X79.5Y-118.7
X79.8Y-66.6
X81.2Y-88.6
X84.8Y-117.9
X85.7Y-91.3
X86.7Y-108.1
X88.1Y-86.4
X88.6Y-112.2
X89.5Y-118.8
X91.1Y-62.5
X94.9Y-58.6
X95.Y-117.9
X97.7Y-98.2
X99.Y-54.4
X99.7Y-119.2
X101.9Y-102.4
X107.2Y-32.3
X113.2Y-84.8
X113.5Y-54.4
X113.6Y-74.6
X113.7Y-44.4
X113.7Y-64.6
X113.76Y-108.74
X113.8Y-105.
X113.88Y-88.42
X114.02Y-98.58
X114.1Y-95.
X114.16Y-57.94
X114.2Y-68.1
X114.22Y-47.78
X114.24Y-78.26
T3
X30.08Y-40.16
X30.08Y-42.7
X30.08Y-45.24
X30.08Y-47.78
X30.08Y-50.32
X30.08Y-52.86
X30.08Y-55.4
X30.08Y-57.94
X30.08Y-60.48
X30.08Y-63.02
X30.08Y-65.56
X30.08Y-68.1
X30.08Y-70.64
X30.08Y-73.18
X30.08Y-75.72
X30.08Y-78.26
X30.08Y-80.8
X30.08Y-83.34
X30.08Y-85.88
X30.08Y-88.42
X30.08Y-90.96
X30.08Y-93.5
X30.08Y-96.04
X30.08Y-98.58
X30.08Y-101.12
X30.08Y-103.66
X30.08Y-106.2
X30.08Y-108.74
X30.08Y-111.28
X30.08Y-113.82
X30.08Y-116.36
X30.08Y-118.9
X32.62Y-40.16
X32.62Y-42.7
X32.62Y-45.24
X32.62Y-47.78
X32.62Y-50.32
X32.62Y-52.86
X32.62Y-55.4
X32.62Y-57.94
X32.62Y-60.48
X32.62Y-63.02
X32.62Y-65.56
X32.62Y-68.1
X32.62Y-70.64
X32.62Y-73.18
X32.62Y-75.72
X32.62Y-78.26
X32.62Y-80.8
X32.62Y-83.34
X32.62Y-85.88
X32.62Y-88.42
X32.62Y-90.96
X32.62Y-93.5
X32.62Y-96.04
X32.62Y-98.58
X32.62Y-101.12
X32.62Y-103.66
X32.62Y-106.2
X32.62Y-108.74
X32.62Y-111.28
X32.62Y-113.82
X32.62Y-116.36
X32.62Y-118.9
X35.16Y-123.98
X35.16Y-126.52
X37.7Y-123.98
X37.7Y-126.52
X40.24Y-123.98
X40.24Y-126.52
X42.78Y-123.98
X42.78Y-126.52
X45.32Y-123.98
X45.32Y-126.52
X47.86Y-123.98
X47.86Y-126.52
X50.4Y-35.08
X50.4Y-37.62
X50.4Y-123.98
X50.4Y-126.52
X52.94Y-35.08
X52.94Y-37.62
X52.94Y-123.98
X52.94Y-126.52
X55.48Y-35.08
X55.48Y-37.62
X55.48Y-123.98
X55.48Y-126.52
X58.02Y-35.08
X58.02Y-37.62
X58.02Y-123.98
X58.02Y-126.52
X60.56Y-123.98
X60.56Y-126.52
X63.1Y-123.98
X63.1Y-126.52
X65.64Y-123.98
X65.64Y-126.52
X68.18Y-123.98
X68.18Y-126.52
X70.72Y-123.98
X70.72Y-126.52
X73.26Y-123.98
X73.26Y-126.52
X75.8Y-123.98
X75.8Y-126.52
X78.34Y-123.98
X78.34Y-126.52
X80.88Y-123.98
X80.88Y-126.52
X83.42Y-123.98
X83.42Y-126.52
X85.96Y-123.98
X85.96Y-126.52
X88.5Y-123.98
X88.5Y-126.52
X91.04Y-123.98
X91.04Y-126.52
X93.58Y-123.98
X93.58Y-126.52
X96.12Y-35.08
X96.12Y-37.62
X96.12Y-123.98
X96.12Y-126.52
X98.66Y-35.08
X98.66Y-37.62
X98.66Y-123.98
X98.66Y-126.52
X101.2Y-35.08
X101.2Y-37.62
X101.2Y-123.98
X101.2Y-126.52
X103.74Y-35.08
X103.74Y-37.62
X103.74Y-123.98
X103.74Y-126.52
X106.28Y-35.08
X106.28Y-37.62
X106.28Y-123.98
X106.28Y-126.52
X108.82Y-123.98
X108.82Y-126.52
X111.36Y-123.98
X111.36Y-126.52
X113.9Y-123.98
X113.9Y-126.52
X118.98Y-40.16
X118.98Y-42.7
X118.98Y-45.24
X118.98Y-47.78
X118.98Y-50.32
X118.98Y-52.86
X118.98Y-55.4
X118.98Y-57.94
X118.98Y-60.48
X118.98Y-63.02
X118.98Y-65.56
X118.98Y-68.1
X118.98Y-70.64
X118.98Y-73.18
X118.98Y-75.72
X118.98Y-78.26
X118.98Y-80.8
X118.98Y-83.34
X118.98Y-85.88
X118.98Y-88.42
X118.98Y-90.96
X118.98Y-93.5
X118.98Y-96.04
X118.98Y-98.58
X118.98Y-101.12
X118.98Y-103.66
X118.98Y-106.2
X118.98Y-108.74
X118.98Y-111.28
X118.98Y-113.82
X118.98Y-116.36
X118.98Y-118.9
X121.52Y-40.16
X121.52Y-42.7
X121.52Y-45.24
X121.52Y-47.78
X121.52Y-50.32
X121.52Y-52.86
X121.52Y-55.4
X121.52Y-57.94
X121.52Y-60.48
X121.52Y-63.02
X121.52Y-65.56
X121.52Y-68.1
X121.52Y-70.64
X121.52Y-73.18
X121.52Y-75.72
X121.52Y-78.26
X121.52Y-80.8
X121.52Y-83.34
X121.52Y-85.88
X121.52Y-88.42
X121.52Y-90.96
X121.52Y-93.5
X121.52Y-96.04
X121.52Y-98.58
X121.52Y-101.12
X121.52Y-103.66
X121.52Y-106.2
X121.52Y-108.74
X121.52Y-111.28
X121.52Y-113.82
X121.52Y-116.36
X121.52Y-118.9
T4
X29.Y-34.
X29.Y-126.
X121.Y-34.
X121.Y-126.
T0
M30
