G04 #@! TF.FileFunction,Soldermask,Top*
%FSLAX46Y46*%
G04 Gerber Fmt 4.6, Leading zero omitted, Abs format (unit mm)*
G04 Created by KiCad (PCBNEW 4.0.1-stable) date 2016/05/29 12:35:40*
%MOMM*%
G01*
G04 APERTURE LIST*
%ADD10C,0.100000*%
%ADD11R,1.200000X1.400000*%
%ADD12R,1.050000X0.600000*%
%ADD13R,1.400000X1.200000*%
%ADD14R,0.600000X1.050000*%
%ADD15R,2.127200X2.127200*%
%ADD16O,2.127200X2.127200*%
%ADD17R,1.600000X1.300000*%
%ADD18R,1.300000X1.600000*%
%ADD19R,1.100000X1.600000*%
%ADD20R,1.500000X0.800000*%
%ADD21R,0.800000X1.500000*%
%ADD22C,4.900000*%
%ADD23R,1.600000X1.150000*%
%ADD24R,1.150000X1.600000*%
G04 APERTURE END LIST*
D10*
D11*
X48150000Y-66900000D03*
X46650000Y-66900000D03*
D12*
X47900000Y-66900000D03*
X46900000Y-66900000D03*
D11*
X52050000Y-66900000D03*
X53550000Y-66900000D03*
D12*
X52300000Y-66900000D03*
X53300000Y-66900000D03*
D11*
X48150000Y-64700000D03*
X46650000Y-64700000D03*
D12*
X47900000Y-64700000D03*
X46900000Y-64700000D03*
D11*
X52050000Y-64700000D03*
X53550000Y-64700000D03*
D12*
X52300000Y-64700000D03*
X53300000Y-64700000D03*
D11*
X48150000Y-62500000D03*
X46650000Y-62500000D03*
D12*
X47900000Y-62500000D03*
X46900000Y-62500000D03*
D11*
X52050000Y-62500000D03*
X53550000Y-62500000D03*
D12*
X52300000Y-62500000D03*
X53300000Y-62500000D03*
D13*
X59500000Y-106350000D03*
X59500000Y-107850000D03*
D14*
X59500000Y-106600000D03*
X59500000Y-107600000D03*
D13*
X59500000Y-102350000D03*
X59500000Y-100850000D03*
D14*
X59500000Y-102100000D03*
X59500000Y-101100000D03*
D13*
X62000000Y-106350000D03*
X62000000Y-107850000D03*
D14*
X62000000Y-106600000D03*
X62000000Y-107600000D03*
D13*
X62000000Y-102350000D03*
X62000000Y-100850000D03*
D14*
X62000000Y-102100000D03*
X62000000Y-101100000D03*
D13*
X64400000Y-106350000D03*
X64400000Y-107850000D03*
D14*
X64400000Y-106600000D03*
X64400000Y-107600000D03*
D13*
X64400000Y-102350000D03*
X64400000Y-100850000D03*
D14*
X64400000Y-102100000D03*
X64400000Y-101100000D03*
D11*
X101550000Y-94100000D03*
X103050000Y-94100000D03*
D12*
X101800000Y-94100000D03*
X102800000Y-94100000D03*
D11*
X97750000Y-94100000D03*
X96250000Y-94100000D03*
D12*
X97500000Y-94100000D03*
X96500000Y-94100000D03*
D11*
X101550000Y-91700000D03*
X103050000Y-91700000D03*
D12*
X101800000Y-91700000D03*
X102800000Y-91700000D03*
D11*
X97750000Y-91700000D03*
X96250000Y-91700000D03*
D12*
X97500000Y-91700000D03*
X96500000Y-91700000D03*
D11*
X101550000Y-89400000D03*
X103050000Y-89400000D03*
D12*
X101800000Y-89400000D03*
X102800000Y-89400000D03*
D11*
X97750000Y-89400000D03*
X96250000Y-89400000D03*
D12*
X97500000Y-89400000D03*
X96500000Y-89400000D03*
D15*
X30080000Y-40160000D03*
D16*
X32620000Y-40160000D03*
X30080000Y-42700000D03*
X32620000Y-42700000D03*
X30080000Y-45240000D03*
X32620000Y-45240000D03*
X30080000Y-47780000D03*
X32620000Y-47780000D03*
D15*
X30080000Y-50320000D03*
D16*
X32620000Y-50320000D03*
X30080000Y-52860000D03*
X32620000Y-52860000D03*
X30080000Y-55400000D03*
X32620000Y-55400000D03*
X30080000Y-57940000D03*
X32620000Y-57940000D03*
D15*
X30080000Y-60480000D03*
D16*
X32620000Y-60480000D03*
X30080000Y-63020000D03*
X32620000Y-63020000D03*
X30080000Y-65560000D03*
X32620000Y-65560000D03*
X30080000Y-68100000D03*
X32620000Y-68100000D03*
D15*
X30080000Y-70640000D03*
D16*
X32620000Y-70640000D03*
X30080000Y-73180000D03*
X32620000Y-73180000D03*
X30080000Y-75720000D03*
X32620000Y-75720000D03*
X30080000Y-78260000D03*
X32620000Y-78260000D03*
D15*
X30080000Y-80800000D03*
D16*
X32620000Y-80800000D03*
X30080000Y-83340000D03*
X32620000Y-83340000D03*
X30080000Y-85880000D03*
X32620000Y-85880000D03*
X30080000Y-88420000D03*
X32620000Y-88420000D03*
D15*
X30080000Y-90960000D03*
D16*
X32620000Y-90960000D03*
X30080000Y-93500000D03*
X32620000Y-93500000D03*
X30080000Y-96040000D03*
X32620000Y-96040000D03*
X30080000Y-98580000D03*
X32620000Y-98580000D03*
D15*
X30080000Y-101120000D03*
D16*
X32620000Y-101120000D03*
X30080000Y-103660000D03*
X32620000Y-103660000D03*
X30080000Y-106200000D03*
X32620000Y-106200000D03*
X30080000Y-108740000D03*
X32620000Y-108740000D03*
D15*
X30080000Y-111280000D03*
D16*
X32620000Y-111280000D03*
X30080000Y-113820000D03*
X32620000Y-113820000D03*
X30080000Y-116360000D03*
X32620000Y-116360000D03*
X30080000Y-118900000D03*
X32620000Y-118900000D03*
D15*
X35160000Y-126520000D03*
D16*
X35160000Y-123980000D03*
X37700000Y-126520000D03*
X37700000Y-123980000D03*
X40240000Y-126520000D03*
X40240000Y-123980000D03*
X42780000Y-126520000D03*
X42780000Y-123980000D03*
D15*
X55480000Y-126520000D03*
D16*
X55480000Y-123980000D03*
X58020000Y-126520000D03*
X58020000Y-123980000D03*
X60560000Y-126520000D03*
X60560000Y-123980000D03*
X63100000Y-126520000D03*
X63100000Y-123980000D03*
D15*
X65640000Y-126520000D03*
D16*
X65640000Y-123980000D03*
X68180000Y-126520000D03*
X68180000Y-123980000D03*
X70720000Y-126520000D03*
X70720000Y-123980000D03*
X73260000Y-126520000D03*
X73260000Y-123980000D03*
D15*
X75800000Y-126520000D03*
D16*
X75800000Y-123980000D03*
X78340000Y-126520000D03*
X78340000Y-123980000D03*
X80880000Y-126520000D03*
X80880000Y-123980000D03*
X83420000Y-126520000D03*
X83420000Y-123980000D03*
D15*
X85960000Y-126520000D03*
D16*
X85960000Y-123980000D03*
X88500000Y-126520000D03*
X88500000Y-123980000D03*
X91040000Y-126520000D03*
X91040000Y-123980000D03*
X93580000Y-126520000D03*
X93580000Y-123980000D03*
D15*
X96120000Y-126520000D03*
D16*
X96120000Y-123980000D03*
X98660000Y-126520000D03*
X98660000Y-123980000D03*
X101200000Y-126520000D03*
X101200000Y-123980000D03*
X103740000Y-126520000D03*
X103740000Y-123980000D03*
D15*
X106280000Y-126520000D03*
D16*
X106280000Y-123980000D03*
X108820000Y-126520000D03*
X108820000Y-123980000D03*
X111360000Y-126520000D03*
X111360000Y-123980000D03*
X113900000Y-126520000D03*
X113900000Y-123980000D03*
D15*
X121520000Y-118900000D03*
D16*
X118980000Y-118900000D03*
X121520000Y-116360000D03*
X118980000Y-116360000D03*
X121520000Y-113820000D03*
X118980000Y-113820000D03*
X121520000Y-111280000D03*
X118980000Y-111280000D03*
D15*
X121520000Y-108740000D03*
D16*
X118980000Y-108740000D03*
X121520000Y-106200000D03*
X118980000Y-106200000D03*
X121520000Y-103660000D03*
X118980000Y-103660000D03*
X121520000Y-101120000D03*
X118980000Y-101120000D03*
D15*
X121520000Y-98580000D03*
D16*
X118980000Y-98580000D03*
X121520000Y-96040000D03*
X118980000Y-96040000D03*
X121520000Y-93500000D03*
X118980000Y-93500000D03*
X121520000Y-90960000D03*
X118980000Y-90960000D03*
D15*
X121520000Y-88420000D03*
D16*
X118980000Y-88420000D03*
X121520000Y-85880000D03*
X118980000Y-85880000D03*
X121520000Y-83340000D03*
X118980000Y-83340000D03*
X121520000Y-80800000D03*
X118980000Y-80800000D03*
D15*
X121520000Y-78260000D03*
D16*
X118980000Y-78260000D03*
X121520000Y-75720000D03*
X118980000Y-75720000D03*
X121520000Y-73180000D03*
X118980000Y-73180000D03*
X121520000Y-70640000D03*
X118980000Y-70640000D03*
D15*
X121520000Y-68100000D03*
D16*
X118980000Y-68100000D03*
X121520000Y-65560000D03*
X118980000Y-65560000D03*
X121520000Y-63020000D03*
X118980000Y-63020000D03*
X121520000Y-60480000D03*
X118980000Y-60480000D03*
D15*
X121520000Y-57940000D03*
D16*
X118980000Y-57940000D03*
X121520000Y-55400000D03*
X118980000Y-55400000D03*
X121520000Y-52860000D03*
X118980000Y-52860000D03*
X121520000Y-50320000D03*
X118980000Y-50320000D03*
D15*
X121520000Y-47780000D03*
D16*
X118980000Y-47780000D03*
X121520000Y-45240000D03*
X118980000Y-45240000D03*
X121520000Y-42700000D03*
X118980000Y-42700000D03*
X121520000Y-40160000D03*
X118980000Y-40160000D03*
D17*
X46600000Y-45000000D03*
X48800000Y-45000000D03*
X61600000Y-45700000D03*
X59400000Y-45700000D03*
X61600000Y-49400000D03*
X59400000Y-49400000D03*
X46600000Y-49500000D03*
X48800000Y-49500000D03*
X113000000Y-35100000D03*
X110800000Y-35100000D03*
X42700000Y-45700000D03*
X40500000Y-45700000D03*
X38500000Y-47800000D03*
X36300000Y-47800000D03*
X42600000Y-55000000D03*
X40400000Y-55000000D03*
X38600000Y-57900000D03*
X36400000Y-57900000D03*
X42600000Y-65600000D03*
X40400000Y-65600000D03*
X38600000Y-68100000D03*
X36400000Y-68100000D03*
X42600000Y-75700000D03*
X40400000Y-75700000D03*
X38600000Y-78300000D03*
X36400000Y-78300000D03*
X42600000Y-85900000D03*
X40400000Y-85900000D03*
X38500000Y-88400000D03*
X36300000Y-88400000D03*
X42600000Y-96000000D03*
X40400000Y-96000000D03*
X38500000Y-98600000D03*
X36300000Y-98600000D03*
X42600000Y-104700000D03*
X40400000Y-104700000D03*
X38600000Y-107000000D03*
X36400000Y-107000000D03*
X42600000Y-109000000D03*
X40400000Y-109000000D03*
X38500000Y-111000000D03*
X36300000Y-111000000D03*
D18*
X40200000Y-113800000D03*
X40200000Y-116000000D03*
X42800000Y-117900000D03*
X42800000Y-120100000D03*
X50400000Y-113800000D03*
X50400000Y-116000000D03*
X52900000Y-117900000D03*
X52900000Y-120100000D03*
X60500000Y-113700000D03*
X60500000Y-115900000D03*
X63100000Y-117800000D03*
X63100000Y-120000000D03*
X70700000Y-113800000D03*
X70700000Y-116000000D03*
X73200000Y-117900000D03*
X73200000Y-120100000D03*
X80800000Y-113800000D03*
X80800000Y-116000000D03*
X83400000Y-117900000D03*
X83400000Y-120100000D03*
X91000000Y-113900000D03*
X91000000Y-116100000D03*
X93500000Y-117900000D03*
X93500000Y-120100000D03*
X100700000Y-113800000D03*
X100700000Y-116000000D03*
X102900000Y-117900000D03*
X102900000Y-120100000D03*
X105100000Y-113900000D03*
X105100000Y-116100000D03*
X107100000Y-117900000D03*
X107100000Y-120100000D03*
D17*
X108800000Y-113800000D03*
X111000000Y-113800000D03*
X112900000Y-111300000D03*
X115100000Y-111300000D03*
X108900000Y-103600000D03*
X111100000Y-103600000D03*
X113100000Y-101100000D03*
X115300000Y-101100000D03*
X108800000Y-93500000D03*
X111000000Y-93500000D03*
X113000000Y-90900000D03*
X115200000Y-90900000D03*
X108800000Y-83300000D03*
X111000000Y-83300000D03*
X113000000Y-80800000D03*
X115200000Y-80800000D03*
X108800000Y-73200000D03*
X111000000Y-73200000D03*
X113000000Y-70600000D03*
X115200000Y-70600000D03*
X108800000Y-63000000D03*
X111000000Y-63000000D03*
X113000000Y-60500000D03*
X115200000Y-60500000D03*
X108800000Y-52900000D03*
X111000000Y-52900000D03*
X113000000Y-50300000D03*
X115200000Y-50300000D03*
X108800000Y-42700000D03*
X111000000Y-42700000D03*
X113000000Y-40200000D03*
X115200000Y-40200000D03*
D19*
X83100000Y-39000000D03*
X83100000Y-33800000D03*
X85900000Y-39000000D03*
X85900000Y-33800000D03*
D20*
X51850000Y-45025000D03*
X51850000Y-45675000D03*
X51850000Y-46325000D03*
X51850000Y-46975000D03*
X56150000Y-46975000D03*
X56150000Y-46325000D03*
X56150000Y-45675000D03*
X56150000Y-45025000D03*
X47150000Y-76425000D03*
X47150000Y-77075000D03*
X47150000Y-77725000D03*
X47150000Y-78375000D03*
X47150000Y-79025000D03*
X47150000Y-79675000D03*
X47150000Y-80325000D03*
X47150000Y-80975000D03*
X47150000Y-81625000D03*
X47150000Y-82275000D03*
X47150000Y-82925000D03*
X47150000Y-83575000D03*
X52850000Y-83575000D03*
X52850000Y-82925000D03*
X52850000Y-82275000D03*
X52850000Y-81625000D03*
X52850000Y-80975000D03*
X52850000Y-80325000D03*
X52850000Y-79675000D03*
X52850000Y-79025000D03*
X52850000Y-78375000D03*
X52850000Y-77725000D03*
X52850000Y-77075000D03*
X52850000Y-76425000D03*
D21*
X71425000Y-107850000D03*
X72075000Y-107850000D03*
X72725000Y-107850000D03*
X73375000Y-107850000D03*
X74025000Y-107850000D03*
X74675000Y-107850000D03*
X75325000Y-107850000D03*
X75975000Y-107850000D03*
X76625000Y-107850000D03*
X77275000Y-107850000D03*
X77925000Y-107850000D03*
X78575000Y-107850000D03*
X78575000Y-102150000D03*
X77925000Y-102150000D03*
X77275000Y-102150000D03*
X76625000Y-102150000D03*
X75975000Y-102150000D03*
X75325000Y-102150000D03*
X74675000Y-102150000D03*
X74025000Y-102150000D03*
X73375000Y-102150000D03*
X72725000Y-102150000D03*
X72075000Y-102150000D03*
X71425000Y-102150000D03*
D20*
X102850000Y-83575000D03*
X102850000Y-82925000D03*
X102850000Y-82275000D03*
X102850000Y-81625000D03*
X102850000Y-80975000D03*
X102850000Y-80325000D03*
X102850000Y-79675000D03*
X102850000Y-79025000D03*
X102850000Y-78375000D03*
X102850000Y-77725000D03*
X102850000Y-77075000D03*
X102850000Y-76425000D03*
X97150000Y-76425000D03*
X97150000Y-77075000D03*
X97150000Y-77725000D03*
X97150000Y-78375000D03*
X97150000Y-79025000D03*
X97150000Y-79675000D03*
X97150000Y-80325000D03*
X97150000Y-80975000D03*
X97150000Y-81625000D03*
X97150000Y-82275000D03*
X97150000Y-82925000D03*
X97150000Y-83575000D03*
D15*
X50400000Y-37620000D03*
D16*
X50400000Y-35080000D03*
X52940000Y-37620000D03*
X52940000Y-35080000D03*
X55480000Y-37620000D03*
X55480000Y-35080000D03*
X58020000Y-37620000D03*
X58020000Y-35080000D03*
D22*
X29000000Y-34000000D03*
X29000000Y-126000000D03*
X121000000Y-34000000D03*
X121000000Y-126000000D03*
D15*
X45320000Y-126520000D03*
D16*
X45320000Y-123980000D03*
X47860000Y-126520000D03*
X47860000Y-123980000D03*
X50400000Y-126520000D03*
X50400000Y-123980000D03*
X52940000Y-126520000D03*
X52940000Y-123980000D03*
D15*
X96120000Y-37620000D03*
D16*
X96120000Y-35080000D03*
X98660000Y-37620000D03*
X98660000Y-35080000D03*
X101200000Y-37620000D03*
X101200000Y-35080000D03*
X103740000Y-37620000D03*
X103740000Y-35080000D03*
X106280000Y-37620000D03*
X106280000Y-35080000D03*
D23*
X56150000Y-42700000D03*
X54250000Y-42700000D03*
X52850000Y-74400000D03*
X50950000Y-74400000D03*
D24*
X69800000Y-102150000D03*
X69800000Y-104050000D03*
D23*
X97150000Y-85200000D03*
X99050000Y-85200000D03*
M02*
