G04 #@! TF.FileFunction,Legend,Top*
%FSLAX46Y46*%
G04 Gerber Fmt 4.6, Leading zero omitted, Abs format (unit mm)*
G04 Created by KiCad (PCBNEW 4.0.1-stable) date 2016/05/29 12:35:40*
%MOMM*%
G01*
G04 APERTURE LIST*
%ADD10C,0.100000*%
%ADD11C,0.200000*%
%ADD12C,0.300000*%
%ADD13C,0.150000*%
%ADD14C,0.010000*%
%ADD15C,0.114300*%
%ADD16R,1.200000X1.400000*%
%ADD17R,1.050000X0.600000*%
%ADD18R,1.400000X1.200000*%
%ADD19R,0.600000X1.050000*%
%ADD20R,2.127200X2.127200*%
%ADD21O,2.127200X2.127200*%
%ADD22R,1.600000X1.300000*%
%ADD23R,1.300000X1.600000*%
%ADD24R,1.100000X1.600000*%
%ADD25R,1.500000X0.800000*%
%ADD26R,0.800000X1.500000*%
%ADD27C,4.900000*%
%ADD28R,1.600000X1.150000*%
%ADD29R,1.150000X1.600000*%
G04 APERTURE END LIST*
D10*
D11*
X76400000Y-46400000D02*
X81400000Y-46400000D01*
X76400000Y-48900000D02*
X81400000Y-48900000D01*
X76400000Y-51400000D02*
X81400000Y-51400000D01*
X81500000Y-53400000D02*
X81500000Y-53300000D01*
X76400000Y-53400000D02*
X81500000Y-53400000D01*
X76400000Y-43800000D02*
X76400000Y-53400000D01*
X81500000Y-43800000D02*
X76400000Y-43800000D01*
D10*
X81752381Y-37104762D02*
X81276190Y-37438096D01*
X81752381Y-37676191D02*
X80752381Y-37676191D01*
X80752381Y-37295238D01*
X80800000Y-37200000D01*
X80847619Y-37152381D01*
X80942857Y-37104762D01*
X81085714Y-37104762D01*
X81180952Y-37152381D01*
X81228571Y-37200000D01*
X81276190Y-37295238D01*
X81276190Y-37676191D01*
X81704762Y-36723810D02*
X81752381Y-36580953D01*
X81752381Y-36342857D01*
X81704762Y-36247619D01*
X81657143Y-36200000D01*
X81561905Y-36152381D01*
X81466667Y-36152381D01*
X81371429Y-36200000D01*
X81323810Y-36247619D01*
X81276190Y-36342857D01*
X81228571Y-36533334D01*
X81180952Y-36628572D01*
X81133333Y-36676191D01*
X81038095Y-36723810D01*
X80942857Y-36723810D01*
X80847619Y-36676191D01*
X80800000Y-36628572D01*
X80752381Y-36533334D01*
X80752381Y-36295238D01*
X80800000Y-36152381D01*
X80752381Y-35866667D02*
X80752381Y-35295238D01*
X81752381Y-35580953D02*
X80752381Y-35580953D01*
X80580000Y-37914286D02*
X80580000Y-35200000D01*
D11*
X96695238Y-74252381D02*
X97266667Y-74252381D01*
X96980952Y-75252381D02*
X96980952Y-74252381D01*
X98171429Y-75157143D02*
X98123810Y-75204762D01*
X97980953Y-75252381D01*
X97885715Y-75252381D01*
X97742857Y-75204762D01*
X97647619Y-75109524D01*
X97600000Y-75014286D01*
X97552381Y-74823810D01*
X97552381Y-74680952D01*
X97600000Y-74490476D01*
X97647619Y-74395238D01*
X97742857Y-74300000D01*
X97885715Y-74252381D01*
X97980953Y-74252381D01*
X98123810Y-74300000D01*
X98171429Y-74347619D01*
X98552381Y-74966667D02*
X99028572Y-74966667D01*
X98457143Y-75252381D02*
X98790476Y-74252381D01*
X99123810Y-75252381D01*
X99504762Y-75252381D02*
X99695238Y-75252381D01*
X99790477Y-75204762D01*
X99838096Y-75157143D01*
X99933334Y-75014286D01*
X99980953Y-74823810D01*
X99980953Y-74442857D01*
X99933334Y-74347619D01*
X99885715Y-74300000D01*
X99790477Y-74252381D01*
X99600000Y-74252381D01*
X99504762Y-74300000D01*
X99457143Y-74347619D01*
X99409524Y-74442857D01*
X99409524Y-74680952D01*
X99457143Y-74776190D01*
X99504762Y-74823810D01*
X99600000Y-74871429D01*
X99790477Y-74871429D01*
X99885715Y-74823810D01*
X99933334Y-74776190D01*
X99980953Y-74680952D01*
X100885715Y-74252381D02*
X100409524Y-74252381D01*
X100361905Y-74728571D01*
X100409524Y-74680952D01*
X100504762Y-74633333D01*
X100742858Y-74633333D01*
X100838096Y-74680952D01*
X100885715Y-74728571D01*
X100933334Y-74823810D01*
X100933334Y-75061905D01*
X100885715Y-75157143D01*
X100838096Y-75204762D01*
X100742858Y-75252381D01*
X100504762Y-75252381D01*
X100409524Y-75204762D01*
X100361905Y-75157143D01*
X101790477Y-74585714D02*
X101790477Y-75252381D01*
X101552381Y-74204762D02*
X101314286Y-74919048D01*
X101933334Y-74919048D01*
X102457143Y-74680952D02*
X102361905Y-74633333D01*
X102314286Y-74585714D01*
X102266667Y-74490476D01*
X102266667Y-74442857D01*
X102314286Y-74347619D01*
X102361905Y-74300000D01*
X102457143Y-74252381D01*
X102647620Y-74252381D01*
X102742858Y-74300000D01*
X102790477Y-74347619D01*
X102838096Y-74442857D01*
X102838096Y-74490476D01*
X102790477Y-74585714D01*
X102742858Y-74633333D01*
X102647620Y-74680952D01*
X102457143Y-74680952D01*
X102361905Y-74728571D01*
X102314286Y-74776190D01*
X102266667Y-74871429D01*
X102266667Y-75061905D01*
X102314286Y-75157143D01*
X102361905Y-75204762D01*
X102457143Y-75252381D01*
X102647620Y-75252381D01*
X102742858Y-75204762D01*
X102790477Y-75157143D01*
X102838096Y-75061905D01*
X102838096Y-74871429D01*
X102790477Y-74776190D01*
X102742858Y-74728571D01*
X102647620Y-74680952D01*
X103219048Y-74966667D02*
X103695239Y-74966667D01*
X103123810Y-75252381D02*
X103457143Y-74252381D01*
X103790477Y-75252381D01*
X79952381Y-108704762D02*
X79952381Y-108133333D01*
X80952381Y-108419048D02*
X79952381Y-108419048D01*
X80857143Y-107228571D02*
X80904762Y-107276190D01*
X80952381Y-107419047D01*
X80952381Y-107514285D01*
X80904762Y-107657143D01*
X80809524Y-107752381D01*
X80714286Y-107800000D01*
X80523810Y-107847619D01*
X80380952Y-107847619D01*
X80190476Y-107800000D01*
X80095238Y-107752381D01*
X80000000Y-107657143D01*
X79952381Y-107514285D01*
X79952381Y-107419047D01*
X80000000Y-107276190D01*
X80047619Y-107228571D01*
X80666667Y-106847619D02*
X80666667Y-106371428D01*
X80952381Y-106942857D02*
X79952381Y-106609524D01*
X80952381Y-106276190D01*
X80952381Y-105895238D02*
X80952381Y-105704762D01*
X80904762Y-105609523D01*
X80857143Y-105561904D01*
X80714286Y-105466666D01*
X80523810Y-105419047D01*
X80142857Y-105419047D01*
X80047619Y-105466666D01*
X80000000Y-105514285D01*
X79952381Y-105609523D01*
X79952381Y-105800000D01*
X80000000Y-105895238D01*
X80047619Y-105942857D01*
X80142857Y-105990476D01*
X80380952Y-105990476D01*
X80476190Y-105942857D01*
X80523810Y-105895238D01*
X80571429Y-105800000D01*
X80571429Y-105609523D01*
X80523810Y-105514285D01*
X80476190Y-105466666D01*
X80380952Y-105419047D01*
X79952381Y-104514285D02*
X79952381Y-104990476D01*
X80428571Y-105038095D01*
X80380952Y-104990476D01*
X80333333Y-104895238D01*
X80333333Y-104657142D01*
X80380952Y-104561904D01*
X80428571Y-104514285D01*
X80523810Y-104466666D01*
X80761905Y-104466666D01*
X80857143Y-104514285D01*
X80904762Y-104561904D01*
X80952381Y-104657142D01*
X80952381Y-104895238D01*
X80904762Y-104990476D01*
X80857143Y-105038095D01*
X80285714Y-103609523D02*
X80952381Y-103609523D01*
X79904762Y-103847619D02*
X80619048Y-104085714D01*
X80619048Y-103466666D01*
X80380952Y-102942857D02*
X80333333Y-103038095D01*
X80285714Y-103085714D01*
X80190476Y-103133333D01*
X80142857Y-103133333D01*
X80047619Y-103085714D01*
X80000000Y-103038095D01*
X79952381Y-102942857D01*
X79952381Y-102752380D01*
X80000000Y-102657142D01*
X80047619Y-102609523D01*
X80142857Y-102561904D01*
X80190476Y-102561904D01*
X80285714Y-102609523D01*
X80333333Y-102657142D01*
X80380952Y-102752380D01*
X80380952Y-102942857D01*
X80428571Y-103038095D01*
X80476190Y-103085714D01*
X80571429Y-103133333D01*
X80761905Y-103133333D01*
X80857143Y-103085714D01*
X80904762Y-103038095D01*
X80952381Y-102942857D01*
X80952381Y-102752380D01*
X80904762Y-102657142D01*
X80857143Y-102609523D01*
X80761905Y-102561904D01*
X80571429Y-102561904D01*
X80476190Y-102609523D01*
X80428571Y-102657142D01*
X80380952Y-102752380D01*
X80666667Y-102180952D02*
X80666667Y-101704761D01*
X80952381Y-102276190D02*
X79952381Y-101942857D01*
X80952381Y-101609523D01*
X46495238Y-84752381D02*
X47066667Y-84752381D01*
X46780952Y-85752381D02*
X46780952Y-84752381D01*
X47971429Y-85657143D02*
X47923810Y-85704762D01*
X47780953Y-85752381D01*
X47685715Y-85752381D01*
X47542857Y-85704762D01*
X47447619Y-85609524D01*
X47400000Y-85514286D01*
X47352381Y-85323810D01*
X47352381Y-85180952D01*
X47400000Y-84990476D01*
X47447619Y-84895238D01*
X47542857Y-84800000D01*
X47685715Y-84752381D01*
X47780953Y-84752381D01*
X47923810Y-84800000D01*
X47971429Y-84847619D01*
X48352381Y-85466667D02*
X48828572Y-85466667D01*
X48257143Y-85752381D02*
X48590476Y-84752381D01*
X48923810Y-85752381D01*
X49304762Y-85752381D02*
X49495238Y-85752381D01*
X49590477Y-85704762D01*
X49638096Y-85657143D01*
X49733334Y-85514286D01*
X49780953Y-85323810D01*
X49780953Y-84942857D01*
X49733334Y-84847619D01*
X49685715Y-84800000D01*
X49590477Y-84752381D01*
X49400000Y-84752381D01*
X49304762Y-84800000D01*
X49257143Y-84847619D01*
X49209524Y-84942857D01*
X49209524Y-85180952D01*
X49257143Y-85276190D01*
X49304762Y-85323810D01*
X49400000Y-85371429D01*
X49590477Y-85371429D01*
X49685715Y-85323810D01*
X49733334Y-85276190D01*
X49780953Y-85180952D01*
X50685715Y-84752381D02*
X50209524Y-84752381D01*
X50161905Y-85228571D01*
X50209524Y-85180952D01*
X50304762Y-85133333D01*
X50542858Y-85133333D01*
X50638096Y-85180952D01*
X50685715Y-85228571D01*
X50733334Y-85323810D01*
X50733334Y-85561905D01*
X50685715Y-85657143D01*
X50638096Y-85704762D01*
X50542858Y-85752381D01*
X50304762Y-85752381D01*
X50209524Y-85704762D01*
X50161905Y-85657143D01*
X51590477Y-85085714D02*
X51590477Y-85752381D01*
X51352381Y-84704762D02*
X51114286Y-85419048D01*
X51733334Y-85419048D01*
X52257143Y-85180952D02*
X52161905Y-85133333D01*
X52114286Y-85085714D01*
X52066667Y-84990476D01*
X52066667Y-84942857D01*
X52114286Y-84847619D01*
X52161905Y-84800000D01*
X52257143Y-84752381D01*
X52447620Y-84752381D01*
X52542858Y-84800000D01*
X52590477Y-84847619D01*
X52638096Y-84942857D01*
X52638096Y-84990476D01*
X52590477Y-85085714D01*
X52542858Y-85133333D01*
X52447620Y-85180952D01*
X52257143Y-85180952D01*
X52161905Y-85228571D01*
X52114286Y-85276190D01*
X52066667Y-85371429D01*
X52066667Y-85561905D01*
X52114286Y-85657143D01*
X52161905Y-85704762D01*
X52257143Y-85752381D01*
X52447620Y-85752381D01*
X52542858Y-85704762D01*
X52590477Y-85657143D01*
X52638096Y-85561905D01*
X52638096Y-85371429D01*
X52590477Y-85276190D01*
X52542858Y-85228571D01*
X52447620Y-85180952D01*
X53019048Y-85466667D02*
X53495239Y-85466667D01*
X52923810Y-85752381D02*
X53257143Y-84752381D01*
X53590477Y-85752381D01*
X51438095Y-49452381D02*
X51438095Y-48452381D01*
X51819048Y-48452381D01*
X51914286Y-48500000D01*
X51961905Y-48547619D01*
X52009524Y-48642857D01*
X52009524Y-48785714D01*
X51961905Y-48880952D01*
X51914286Y-48928571D01*
X51819048Y-48976190D01*
X51438095Y-48976190D01*
X52580952Y-48880952D02*
X52485714Y-48833333D01*
X52438095Y-48785714D01*
X52390476Y-48690476D01*
X52390476Y-48642857D01*
X52438095Y-48547619D01*
X52485714Y-48500000D01*
X52580952Y-48452381D01*
X52771429Y-48452381D01*
X52866667Y-48500000D01*
X52914286Y-48547619D01*
X52961905Y-48642857D01*
X52961905Y-48690476D01*
X52914286Y-48785714D01*
X52866667Y-48833333D01*
X52771429Y-48880952D01*
X52580952Y-48880952D01*
X52485714Y-48928571D01*
X52438095Y-48976190D01*
X52390476Y-49071429D01*
X52390476Y-49261905D01*
X52438095Y-49357143D01*
X52485714Y-49404762D01*
X52580952Y-49452381D01*
X52771429Y-49452381D01*
X52866667Y-49404762D01*
X52914286Y-49357143D01*
X52961905Y-49261905D01*
X52961905Y-49071429D01*
X52914286Y-48976190D01*
X52866667Y-48928571D01*
X52771429Y-48880952D01*
X53342857Y-48547619D02*
X53390476Y-48500000D01*
X53485714Y-48452381D01*
X53723810Y-48452381D01*
X53819048Y-48500000D01*
X53866667Y-48547619D01*
X53914286Y-48642857D01*
X53914286Y-48738095D01*
X53866667Y-48880952D01*
X53295238Y-49452381D01*
X53914286Y-49452381D01*
X54676191Y-48928571D02*
X54819048Y-48976190D01*
X54866667Y-49023810D01*
X54914286Y-49119048D01*
X54914286Y-49261905D01*
X54866667Y-49357143D01*
X54819048Y-49404762D01*
X54723810Y-49452381D01*
X54342857Y-49452381D01*
X54342857Y-48452381D01*
X54676191Y-48452381D01*
X54771429Y-48500000D01*
X54819048Y-48547619D01*
X54866667Y-48642857D01*
X54866667Y-48738095D01*
X54819048Y-48833333D01*
X54771429Y-48880952D01*
X54676191Y-48928571D01*
X54342857Y-48928571D01*
X55390476Y-49452381D02*
X55580952Y-49452381D01*
X55676191Y-49404762D01*
X55723810Y-49357143D01*
X55819048Y-49214286D01*
X55866667Y-49023810D01*
X55866667Y-48642857D01*
X55819048Y-48547619D01*
X55771429Y-48500000D01*
X55676191Y-48452381D01*
X55485714Y-48452381D01*
X55390476Y-48500000D01*
X55342857Y-48547619D01*
X55295238Y-48642857D01*
X55295238Y-48880952D01*
X55342857Y-48976190D01*
X55390476Y-49023810D01*
X55485714Y-49071429D01*
X55676191Y-49071429D01*
X55771429Y-49023810D01*
X55819048Y-48976190D01*
X55866667Y-48880952D01*
X56723810Y-48452381D02*
X56533333Y-48452381D01*
X56438095Y-48500000D01*
X56390476Y-48547619D01*
X56295238Y-48690476D01*
X56247619Y-48880952D01*
X56247619Y-49261905D01*
X56295238Y-49357143D01*
X56342857Y-49404762D01*
X56438095Y-49452381D01*
X56628572Y-49452381D01*
X56723810Y-49404762D01*
X56771429Y-49357143D01*
X56819048Y-49261905D01*
X56819048Y-49023810D01*
X56771429Y-48928571D01*
X56723810Y-48880952D01*
X56628572Y-48833333D01*
X56438095Y-48833333D01*
X56342857Y-48880952D01*
X56295238Y-48928571D01*
X56247619Y-49023810D01*
D12*
X57685714Y-77704286D02*
X58714285Y-77704286D01*
X58199999Y-79504286D02*
X58199999Y-77704286D01*
X60342857Y-79332857D02*
X60257143Y-79418571D01*
X60000000Y-79504286D01*
X59828571Y-79504286D01*
X59571428Y-79418571D01*
X59400000Y-79247143D01*
X59314285Y-79075714D01*
X59228571Y-78732857D01*
X59228571Y-78475714D01*
X59314285Y-78132857D01*
X59400000Y-77961429D01*
X59571428Y-77790000D01*
X59828571Y-77704286D01*
X60000000Y-77704286D01*
X60257143Y-77790000D01*
X60342857Y-77875714D01*
X61028571Y-78990000D02*
X61885714Y-78990000D01*
X60857143Y-79504286D02*
X61457143Y-77704286D01*
X62057143Y-79504286D01*
X62742857Y-79504286D02*
X63085714Y-79504286D01*
X63257142Y-79418571D01*
X63342857Y-79332857D01*
X63514285Y-79075714D01*
X63600000Y-78732857D01*
X63600000Y-78047143D01*
X63514285Y-77875714D01*
X63428571Y-77790000D01*
X63257142Y-77704286D01*
X62914285Y-77704286D01*
X62742857Y-77790000D01*
X62657142Y-77875714D01*
X62571428Y-78047143D01*
X62571428Y-78475714D01*
X62657142Y-78647143D01*
X62742857Y-78732857D01*
X62914285Y-78818571D01*
X63257142Y-78818571D01*
X63428571Y-78732857D01*
X63514285Y-78647143D01*
X63600000Y-78475714D01*
X65228571Y-77704286D02*
X64371428Y-77704286D01*
X64285714Y-78561429D01*
X64371428Y-78475714D01*
X64542857Y-78390000D01*
X64971428Y-78390000D01*
X65142857Y-78475714D01*
X65228571Y-78561429D01*
X65314286Y-78732857D01*
X65314286Y-79161429D01*
X65228571Y-79332857D01*
X65142857Y-79418571D01*
X64971428Y-79504286D01*
X64542857Y-79504286D01*
X64371428Y-79418571D01*
X64285714Y-79332857D01*
X66857143Y-78304286D02*
X66857143Y-79504286D01*
X66428572Y-77618571D02*
X66000000Y-78904286D01*
X67114286Y-78904286D01*
X68057143Y-78475714D02*
X67885715Y-78390000D01*
X67800000Y-78304286D01*
X67714286Y-78132857D01*
X67714286Y-78047143D01*
X67800000Y-77875714D01*
X67885715Y-77790000D01*
X68057143Y-77704286D01*
X68400000Y-77704286D01*
X68571429Y-77790000D01*
X68657143Y-77875714D01*
X68742858Y-78047143D01*
X68742858Y-78132857D01*
X68657143Y-78304286D01*
X68571429Y-78390000D01*
X68400000Y-78475714D01*
X68057143Y-78475714D01*
X67885715Y-78561429D01*
X67800000Y-78647143D01*
X67714286Y-78818571D01*
X67714286Y-79161429D01*
X67800000Y-79332857D01*
X67885715Y-79418571D01*
X68057143Y-79504286D01*
X68400000Y-79504286D01*
X68571429Y-79418571D01*
X68657143Y-79332857D01*
X68742858Y-79161429D01*
X68742858Y-78818571D01*
X68657143Y-78647143D01*
X68571429Y-78561429D01*
X68400000Y-78475714D01*
X69428572Y-78990000D02*
X70285715Y-78990000D01*
X69257144Y-79504286D02*
X69857144Y-77704286D01*
X70457144Y-79504286D01*
X72428572Y-79504286D02*
X72428572Y-77704286D01*
X73200001Y-77875714D02*
X73285715Y-77790000D01*
X73457144Y-77704286D01*
X73885715Y-77704286D01*
X74057144Y-77790000D01*
X74142858Y-77875714D01*
X74228573Y-78047143D01*
X74228573Y-78218571D01*
X74142858Y-78475714D01*
X73114287Y-79504286D01*
X74228573Y-79504286D01*
X76028573Y-79332857D02*
X75942859Y-79418571D01*
X75685716Y-79504286D01*
X75514287Y-79504286D01*
X75257144Y-79418571D01*
X75085716Y-79247143D01*
X75000001Y-79075714D01*
X74914287Y-78732857D01*
X74914287Y-78475714D01*
X75000001Y-78132857D01*
X75085716Y-77961429D01*
X75257144Y-77790000D01*
X75514287Y-77704286D01*
X75685716Y-77704286D01*
X75942859Y-77790000D01*
X76028573Y-77875714D01*
X78171430Y-79504286D02*
X78171430Y-77704286D01*
X78771430Y-78990000D01*
X79371430Y-77704286D01*
X79371430Y-79504286D01*
X81000002Y-78304286D02*
X81000002Y-79504286D01*
X80228573Y-78304286D02*
X80228573Y-79247143D01*
X80314288Y-79418571D01*
X80485716Y-79504286D01*
X80742859Y-79504286D01*
X80914288Y-79418571D01*
X81000002Y-79332857D01*
X82114287Y-79504286D02*
X81942859Y-79418571D01*
X81857144Y-79247143D01*
X81857144Y-77704286D01*
X82542859Y-78304286D02*
X83228573Y-78304286D01*
X82800001Y-77704286D02*
X82800001Y-79247143D01*
X82885716Y-79418571D01*
X83057144Y-79504286D01*
X83228573Y-79504286D01*
X83828572Y-79504286D02*
X83828572Y-78304286D01*
X83828572Y-77704286D02*
X83742858Y-77790000D01*
X83828572Y-77875714D01*
X83914287Y-77790000D01*
X83828572Y-77704286D01*
X83828572Y-77875714D01*
X84685715Y-78304286D02*
X84685715Y-80104286D01*
X84685715Y-78390000D02*
X84857144Y-78304286D01*
X85200001Y-78304286D01*
X85371430Y-78390000D01*
X85457144Y-78475714D01*
X85542858Y-78647143D01*
X85542858Y-79161429D01*
X85457144Y-79332857D01*
X85371430Y-79418571D01*
X85200001Y-79504286D01*
X84857144Y-79504286D01*
X84685715Y-79418571D01*
X86571429Y-79504286D02*
X86400001Y-79418571D01*
X86314286Y-79247143D01*
X86314286Y-77704286D01*
X87942858Y-79418571D02*
X87771429Y-79504286D01*
X87428572Y-79504286D01*
X87257143Y-79418571D01*
X87171429Y-79247143D01*
X87171429Y-78561429D01*
X87257143Y-78390000D01*
X87428572Y-78304286D01*
X87771429Y-78304286D01*
X87942858Y-78390000D01*
X88028572Y-78561429D01*
X88028572Y-78732857D01*
X87171429Y-78904286D01*
X88628572Y-79504286D02*
X89571429Y-78304286D01*
X88628572Y-78304286D02*
X89571429Y-79504286D01*
X90942858Y-79418571D02*
X90771429Y-79504286D01*
X90428572Y-79504286D01*
X90257143Y-79418571D01*
X90171429Y-79247143D01*
X90171429Y-78561429D01*
X90257143Y-78390000D01*
X90428572Y-78304286D01*
X90771429Y-78304286D01*
X90942858Y-78390000D01*
X91028572Y-78561429D01*
X91028572Y-78732857D01*
X90171429Y-78904286D01*
X91800000Y-79504286D02*
X91800000Y-78304286D01*
X91800000Y-78647143D02*
X91885715Y-78475714D01*
X91971429Y-78390000D01*
X92142858Y-78304286D01*
X92314286Y-78304286D01*
X56014284Y-82324286D02*
X56014284Y-80524286D01*
X56785713Y-80695714D02*
X56871427Y-80610000D01*
X57042856Y-80524286D01*
X57471427Y-80524286D01*
X57642856Y-80610000D01*
X57728570Y-80695714D01*
X57814285Y-80867143D01*
X57814285Y-81038571D01*
X57728570Y-81295714D01*
X56699999Y-82324286D01*
X57814285Y-82324286D01*
X59614285Y-82152857D02*
X59528571Y-82238571D01*
X59271428Y-82324286D01*
X59099999Y-82324286D01*
X58842856Y-82238571D01*
X58671428Y-82067143D01*
X58585713Y-81895714D01*
X58499999Y-81552857D01*
X58499999Y-81295714D01*
X58585713Y-80952857D01*
X58671428Y-80781429D01*
X58842856Y-80610000D01*
X59099999Y-80524286D01*
X59271428Y-80524286D01*
X59528571Y-80610000D01*
X59614285Y-80695714D01*
X61671428Y-81810000D02*
X62528571Y-81810000D01*
X61500000Y-82324286D02*
X62100000Y-80524286D01*
X62700000Y-82324286D01*
X64071428Y-82324286D02*
X64071428Y-80524286D01*
X64071428Y-82238571D02*
X63899999Y-82324286D01*
X63557142Y-82324286D01*
X63385714Y-82238571D01*
X63299999Y-82152857D01*
X63214285Y-81981429D01*
X63214285Y-81467143D01*
X63299999Y-81295714D01*
X63385714Y-81210000D01*
X63557142Y-81124286D01*
X63899999Y-81124286D01*
X64071428Y-81210000D01*
X65699999Y-82324286D02*
X65699999Y-80524286D01*
X65699999Y-82238571D02*
X65528570Y-82324286D01*
X65185713Y-82324286D01*
X65014285Y-82238571D01*
X64928570Y-82152857D01*
X64842856Y-81981429D01*
X64842856Y-81467143D01*
X64928570Y-81295714D01*
X65014285Y-81210000D01*
X65185713Y-81124286D01*
X65528570Y-81124286D01*
X65699999Y-81210000D01*
X66557141Y-82324286D02*
X66557141Y-81124286D01*
X66557141Y-81467143D02*
X66642856Y-81295714D01*
X66728570Y-81210000D01*
X66899999Y-81124286D01*
X67071427Y-81124286D01*
X67671427Y-82152857D02*
X67757142Y-82238571D01*
X67671427Y-82324286D01*
X67585713Y-82238571D01*
X67671427Y-82152857D01*
X67671427Y-82324286D01*
X67671427Y-81210000D02*
X67757142Y-81295714D01*
X67671427Y-81381429D01*
X67585713Y-81295714D01*
X67671427Y-81210000D01*
X67671427Y-81381429D01*
X69728571Y-80524286D02*
X70928571Y-80524286D01*
X70157142Y-82324286D01*
X71700000Y-80524286D02*
X71528571Y-80867143D01*
X72471428Y-82324286D02*
X72471428Y-80524286D01*
X72471428Y-81210000D02*
X72642857Y-81124286D01*
X72985714Y-81124286D01*
X73157143Y-81210000D01*
X73242857Y-81295714D01*
X73328571Y-81467143D01*
X73328571Y-81981429D01*
X73242857Y-82152857D01*
X73157143Y-82238571D01*
X72985714Y-82324286D01*
X72642857Y-82324286D01*
X72471428Y-82238571D01*
X75042857Y-82324286D02*
X74014285Y-82324286D01*
X74528571Y-82324286D02*
X74528571Y-80524286D01*
X74357142Y-80781429D01*
X74185714Y-80952857D01*
X74014285Y-81038571D01*
X76757143Y-82324286D02*
X75728571Y-82324286D01*
X76242857Y-82324286D02*
X76242857Y-80524286D01*
X76071428Y-80781429D01*
X75900000Y-80952857D01*
X75728571Y-81038571D01*
X78471429Y-82324286D02*
X77442857Y-82324286D01*
X77957143Y-82324286D02*
X77957143Y-80524286D01*
X77785714Y-80781429D01*
X77614286Y-80952857D01*
X77442857Y-81038571D01*
X79585715Y-80524286D02*
X79757143Y-80524286D01*
X79928572Y-80610000D01*
X80014286Y-80695714D01*
X80100000Y-80867143D01*
X80185715Y-81210000D01*
X80185715Y-81638571D01*
X80100000Y-81981429D01*
X80014286Y-82152857D01*
X79928572Y-82238571D01*
X79757143Y-82324286D01*
X79585715Y-82324286D01*
X79414286Y-82238571D01*
X79328572Y-82152857D01*
X79242857Y-81981429D01*
X79157143Y-81638571D01*
X79157143Y-81210000D01*
X79242857Y-80867143D01*
X79328572Y-80695714D01*
X79414286Y-80610000D01*
X79585715Y-80524286D01*
X80528572Y-82495714D02*
X81900001Y-82495714D01*
X82242858Y-81810000D02*
X83100001Y-81810000D01*
X82071430Y-82324286D02*
X82671430Y-80524286D01*
X83271430Y-82324286D01*
X83785715Y-80695714D02*
X83871429Y-80610000D01*
X84042858Y-80524286D01*
X84471429Y-80524286D01*
X84642858Y-80610000D01*
X84728572Y-80695714D01*
X84814287Y-80867143D01*
X84814287Y-81038571D01*
X84728572Y-81295714D01*
X83700001Y-82324286D01*
X84814287Y-82324286D01*
X85157144Y-82495714D02*
X86528573Y-82495714D01*
X86871430Y-81810000D02*
X87728573Y-81810000D01*
X86700002Y-82324286D02*
X87300002Y-80524286D01*
X87900002Y-82324286D01*
X89442859Y-82324286D02*
X88414287Y-82324286D01*
X88928573Y-82324286D02*
X88928573Y-80524286D01*
X88757144Y-80781429D01*
X88585716Y-80952857D01*
X88414287Y-81038571D01*
X89785716Y-82495714D02*
X91157145Y-82495714D01*
X91500002Y-81810000D02*
X92357145Y-81810000D01*
X91328574Y-82324286D02*
X91928574Y-80524286D01*
X92528574Y-82324286D01*
X93471431Y-80524286D02*
X93642859Y-80524286D01*
X93814288Y-80610000D01*
X93900002Y-80695714D01*
X93985716Y-80867143D01*
X94071431Y-81210000D01*
X94071431Y-81638571D01*
X93985716Y-81981429D01*
X93900002Y-82152857D01*
X93814288Y-82238571D01*
X93642859Y-82324286D01*
X93471431Y-82324286D01*
X93300002Y-82238571D01*
X93214288Y-82152857D01*
X93128573Y-81981429D01*
X93042859Y-81638571D01*
X93042859Y-81210000D01*
X93128573Y-80867143D01*
X93214288Y-80695714D01*
X93300002Y-80610000D01*
X93471431Y-80524286D01*
D11*
X62552381Y-43176191D02*
X63552381Y-42842858D01*
X62552381Y-42509524D01*
X63504762Y-41747619D02*
X63552381Y-41842857D01*
X63552381Y-42033334D01*
X63504762Y-42128572D01*
X63457143Y-42176191D01*
X63361905Y-42223810D01*
X63076190Y-42223810D01*
X62980952Y-42176191D01*
X62933333Y-42128572D01*
X62885714Y-42033334D01*
X62885714Y-41842857D01*
X62933333Y-41747619D01*
X63504762Y-40890476D02*
X63552381Y-40985714D01*
X63552381Y-41176191D01*
X63504762Y-41271429D01*
X63457143Y-41319048D01*
X63361905Y-41366667D01*
X63076190Y-41366667D01*
X62980952Y-41319048D01*
X62933333Y-41271429D01*
X62885714Y-41176191D01*
X62885714Y-40985714D01*
X62933333Y-40890476D01*
X65300000Y-42885714D02*
X65252381Y-42980952D01*
X65252381Y-43123809D01*
X65300000Y-43266667D01*
X65395238Y-43361905D01*
X65490476Y-43409524D01*
X65680952Y-43457143D01*
X65823810Y-43457143D01*
X66014286Y-43409524D01*
X66109524Y-43361905D01*
X66204762Y-43266667D01*
X66252381Y-43123809D01*
X66252381Y-43028571D01*
X66204762Y-42885714D01*
X66157143Y-42838095D01*
X65823810Y-42838095D01*
X65823810Y-43028571D01*
X66252381Y-42409524D02*
X65252381Y-42409524D01*
X66252381Y-41838095D01*
X65252381Y-41838095D01*
X66252381Y-41361905D02*
X65252381Y-41361905D01*
X65252381Y-41123810D01*
X65300000Y-40980952D01*
X65395238Y-40885714D01*
X65490476Y-40838095D01*
X65680952Y-40790476D01*
X65823810Y-40790476D01*
X66014286Y-40838095D01*
X66109524Y-40885714D01*
X66204762Y-40980952D01*
X66252381Y-41123810D01*
X66252381Y-41361905D01*
X68804762Y-43319048D02*
X68852381Y-43176191D01*
X68852381Y-42938095D01*
X68804762Y-42842857D01*
X68757143Y-42795238D01*
X68661905Y-42747619D01*
X68566667Y-42747619D01*
X68471429Y-42795238D01*
X68423810Y-42842857D01*
X68376190Y-42938095D01*
X68328571Y-43128572D01*
X68280952Y-43223810D01*
X68233333Y-43271429D01*
X68138095Y-43319048D01*
X68042857Y-43319048D01*
X67947619Y-43271429D01*
X67900000Y-43223810D01*
X67852381Y-43128572D01*
X67852381Y-42890476D01*
X67900000Y-42747619D01*
X68852381Y-42319048D02*
X67852381Y-42319048D01*
X67852381Y-42080953D01*
X67900000Y-41938095D01*
X67995238Y-41842857D01*
X68090476Y-41795238D01*
X68280952Y-41747619D01*
X68423810Y-41747619D01*
X68614286Y-41795238D01*
X68709524Y-41842857D01*
X68804762Y-41938095D01*
X68852381Y-42080953D01*
X68852381Y-42319048D01*
X68566667Y-41366667D02*
X68566667Y-40890476D01*
X68852381Y-41461905D02*
X67852381Y-41128572D01*
X68852381Y-40795238D01*
X71404762Y-43271429D02*
X71452381Y-43128572D01*
X71452381Y-42890476D01*
X71404762Y-42795238D01*
X71357143Y-42747619D01*
X71261905Y-42700000D01*
X71166667Y-42700000D01*
X71071429Y-42747619D01*
X71023810Y-42795238D01*
X70976190Y-42890476D01*
X70928571Y-43080953D01*
X70880952Y-43176191D01*
X70833333Y-43223810D01*
X70738095Y-43271429D01*
X70642857Y-43271429D01*
X70547619Y-43223810D01*
X70500000Y-43176191D01*
X70452381Y-43080953D01*
X70452381Y-42842857D01*
X70500000Y-42700000D01*
X71357143Y-41700000D02*
X71404762Y-41747619D01*
X71452381Y-41890476D01*
X71452381Y-41985714D01*
X71404762Y-42128572D01*
X71309524Y-42223810D01*
X71214286Y-42271429D01*
X71023810Y-42319048D01*
X70880952Y-42319048D01*
X70690476Y-42271429D01*
X70595238Y-42223810D01*
X70500000Y-42128572D01*
X70452381Y-41985714D01*
X70452381Y-41890476D01*
X70500000Y-41747619D01*
X70547619Y-41700000D01*
X71452381Y-40795238D02*
X71452381Y-41271429D01*
X70452381Y-41271429D01*
X95138095Y-31852381D02*
X95138095Y-30852381D01*
X95566666Y-30947619D02*
X95614285Y-30900000D01*
X95709523Y-30852381D01*
X95947619Y-30852381D01*
X96042857Y-30900000D01*
X96090476Y-30947619D01*
X96138095Y-31042857D01*
X96138095Y-31138095D01*
X96090476Y-31280952D01*
X95519047Y-31852381D01*
X96138095Y-31852381D01*
X97138095Y-31757143D02*
X97090476Y-31804762D01*
X96947619Y-31852381D01*
X96852381Y-31852381D01*
X96709523Y-31804762D01*
X96614285Y-31709524D01*
X96566666Y-31614286D01*
X96519047Y-31423810D01*
X96519047Y-31280952D01*
X96566666Y-31090476D01*
X96614285Y-30995238D01*
X96709523Y-30900000D01*
X96852381Y-30852381D01*
X96947619Y-30852381D01*
X97090476Y-30900000D01*
X97138095Y-30947619D01*
X98661905Y-31328571D02*
X98804762Y-31376190D01*
X98852381Y-31423810D01*
X98900000Y-31519048D01*
X98900000Y-31661905D01*
X98852381Y-31757143D01*
X98804762Y-31804762D01*
X98709524Y-31852381D01*
X98328571Y-31852381D01*
X98328571Y-30852381D01*
X98661905Y-30852381D01*
X98757143Y-30900000D01*
X98804762Y-30947619D01*
X98852381Y-31042857D01*
X98852381Y-31138095D01*
X98804762Y-31233333D01*
X98757143Y-31280952D01*
X98661905Y-31328571D01*
X98328571Y-31328571D01*
X99328571Y-30852381D02*
X99328571Y-31661905D01*
X99376190Y-31757143D01*
X99423809Y-31804762D01*
X99519047Y-31852381D01*
X99709524Y-31852381D01*
X99804762Y-31804762D01*
X99852381Y-31757143D01*
X99900000Y-31661905D01*
X99900000Y-30852381D01*
X100328571Y-31804762D02*
X100471428Y-31852381D01*
X100709524Y-31852381D01*
X100804762Y-31804762D01*
X100852381Y-31757143D01*
X100900000Y-31661905D01*
X100900000Y-31566667D01*
X100852381Y-31471429D01*
X100804762Y-31423810D01*
X100709524Y-31376190D01*
X100519047Y-31328571D01*
X100423809Y-31280952D01*
X100376190Y-31233333D01*
X100328571Y-31138095D01*
X100328571Y-31042857D01*
X100376190Y-30947619D01*
X100423809Y-30900000D01*
X100519047Y-30852381D01*
X100757143Y-30852381D01*
X100900000Y-30900000D01*
X94995238Y-32452381D02*
X95328571Y-33452381D01*
X95661905Y-32452381D01*
X96423810Y-33404762D02*
X96328572Y-33452381D01*
X96138095Y-33452381D01*
X96042857Y-33404762D01*
X95995238Y-33357143D01*
X95947619Y-33261905D01*
X95947619Y-32976190D01*
X95995238Y-32880952D01*
X96042857Y-32833333D01*
X96138095Y-32785714D01*
X96328572Y-32785714D01*
X96423810Y-32833333D01*
X96995238Y-33452381D02*
X96900000Y-33404762D01*
X96852381Y-33357143D01*
X96804762Y-33261905D01*
X96804762Y-32976190D01*
X96852381Y-32880952D01*
X96900000Y-32833333D01*
X96995238Y-32785714D01*
X97138096Y-32785714D01*
X97233334Y-32833333D01*
X97280953Y-32880952D01*
X97328572Y-32976190D01*
X97328572Y-33261905D01*
X97280953Y-33357143D01*
X97233334Y-33404762D01*
X97138096Y-33452381D01*
X96995238Y-33452381D01*
X97757143Y-33452381D02*
X97757143Y-32785714D01*
X97757143Y-32880952D02*
X97804762Y-32833333D01*
X97900000Y-32785714D01*
X98042858Y-32785714D01*
X98138096Y-32833333D01*
X98185715Y-32928571D01*
X98185715Y-33452381D01*
X98185715Y-32928571D02*
X98233334Y-32833333D01*
X98328572Y-32785714D01*
X98471429Y-32785714D01*
X98566667Y-32833333D01*
X98614286Y-32928571D01*
X98614286Y-33452381D01*
X99090476Y-33357143D02*
X99138095Y-33404762D01*
X99090476Y-33452381D01*
X99042857Y-33404762D01*
X99090476Y-33357143D01*
X99090476Y-33452381D01*
X99090476Y-32833333D02*
X99138095Y-32880952D01*
X99090476Y-32928571D01*
X99042857Y-32880952D01*
X99090476Y-32833333D01*
X99090476Y-32928571D01*
X100090476Y-33452381D02*
X99519047Y-33452381D01*
X99804761Y-33452381D02*
X99804761Y-32452381D01*
X99709523Y-32595238D01*
X99614285Y-32690476D01*
X99519047Y-32738095D01*
X100519047Y-33357143D02*
X100566666Y-33404762D01*
X100519047Y-33452381D01*
X100471428Y-33404762D01*
X100519047Y-33357143D01*
X100519047Y-33452381D01*
X101423809Y-32452381D02*
X101233332Y-32452381D01*
X101138094Y-32500000D01*
X101090475Y-32547619D01*
X100995237Y-32690476D01*
X100947618Y-32880952D01*
X100947618Y-33261905D01*
X100995237Y-33357143D01*
X101042856Y-33404762D01*
X101138094Y-33452381D01*
X101328571Y-33452381D01*
X101423809Y-33404762D01*
X101471428Y-33357143D01*
X101519047Y-33261905D01*
X101519047Y-33023810D01*
X101471428Y-32928571D01*
X101423809Y-32880952D01*
X101328571Y-32833333D01*
X101138094Y-32833333D01*
X101042856Y-32880952D01*
X100995237Y-32928571D01*
X100947618Y-33023810D01*
X102423809Y-32452381D02*
X101947618Y-32452381D01*
X101899999Y-32928571D01*
X101947618Y-32880952D01*
X102042856Y-32833333D01*
X102280952Y-32833333D01*
X102376190Y-32880952D01*
X102423809Y-32928571D01*
X102471428Y-33023810D01*
X102471428Y-33261905D01*
X102423809Y-33357143D01*
X102376190Y-33404762D01*
X102280952Y-33452381D01*
X102042856Y-33452381D01*
X101947618Y-33404762D01*
X101899999Y-33357143D01*
X102899999Y-33071429D02*
X103661904Y-33071429D01*
X104614285Y-32452381D02*
X104138094Y-32452381D01*
X104090475Y-32928571D01*
X104138094Y-32880952D01*
X104233332Y-32833333D01*
X104471428Y-32833333D01*
X104566666Y-32880952D01*
X104614285Y-32928571D01*
X104661904Y-33023810D01*
X104661904Y-33261905D01*
X104614285Y-33357143D01*
X104566666Y-33404762D01*
X104471428Y-33452381D01*
X104233332Y-33452381D01*
X104138094Y-33404762D01*
X104090475Y-33357143D01*
X105090475Y-33357143D02*
X105138094Y-33404762D01*
X105090475Y-33452381D01*
X105042856Y-33404762D01*
X105090475Y-33357143D01*
X105090475Y-33452381D01*
X106042856Y-32452381D02*
X105566665Y-32452381D01*
X105519046Y-32928571D01*
X105566665Y-32880952D01*
X105661903Y-32833333D01*
X105899999Y-32833333D01*
X105995237Y-32880952D01*
X106042856Y-32928571D01*
X106090475Y-33023810D01*
X106090475Y-33261905D01*
X106042856Y-33357143D01*
X105995237Y-33404762D01*
X105899999Y-33452381D01*
X105661903Y-33452381D01*
X105566665Y-33404762D01*
X105519046Y-33357143D01*
X106376189Y-32452381D02*
X106709522Y-33452381D01*
X107042856Y-32452381D01*
X64300000Y-46600000D02*
X64300000Y-53500000D01*
X43900000Y-53700000D02*
X47800000Y-57600000D01*
X43900000Y-45800000D02*
X43900000Y-53700000D01*
X45338095Y-53552381D02*
X45338095Y-52552381D01*
X45766666Y-52647619D02*
X45814285Y-52600000D01*
X45909523Y-52552381D01*
X46147619Y-52552381D01*
X46242857Y-52600000D01*
X46290476Y-52647619D01*
X46338095Y-52742857D01*
X46338095Y-52838095D01*
X46290476Y-52980952D01*
X45719047Y-53552381D01*
X46338095Y-53552381D01*
X47338095Y-53457143D02*
X47290476Y-53504762D01*
X47147619Y-53552381D01*
X47052381Y-53552381D01*
X46909523Y-53504762D01*
X46814285Y-53409524D01*
X46766666Y-53314286D01*
X46719047Y-53123810D01*
X46719047Y-52980952D01*
X46766666Y-52790476D01*
X46814285Y-52695238D01*
X46909523Y-52600000D01*
X47052381Y-52552381D01*
X47147619Y-52552381D01*
X47290476Y-52600000D01*
X47338095Y-52647619D01*
X48861905Y-53028571D02*
X49004762Y-53076190D01*
X49052381Y-53123810D01*
X49100000Y-53219048D01*
X49100000Y-53361905D01*
X49052381Y-53457143D01*
X49004762Y-53504762D01*
X48909524Y-53552381D01*
X48528571Y-53552381D01*
X48528571Y-52552381D01*
X48861905Y-52552381D01*
X48957143Y-52600000D01*
X49004762Y-52647619D01*
X49052381Y-52742857D01*
X49052381Y-52838095D01*
X49004762Y-52933333D01*
X48957143Y-52980952D01*
X48861905Y-53028571D01*
X48528571Y-53028571D01*
X49528571Y-52552381D02*
X49528571Y-53361905D01*
X49576190Y-53457143D01*
X49623809Y-53504762D01*
X49719047Y-53552381D01*
X49909524Y-53552381D01*
X50004762Y-53504762D01*
X50052381Y-53457143D01*
X50100000Y-53361905D01*
X50100000Y-52552381D01*
X50528571Y-53504762D02*
X50671428Y-53552381D01*
X50909524Y-53552381D01*
X51004762Y-53504762D01*
X51052381Y-53457143D01*
X51100000Y-53361905D01*
X51100000Y-53266667D01*
X51052381Y-53171429D01*
X51004762Y-53123810D01*
X50909524Y-53076190D01*
X50719047Y-53028571D01*
X50623809Y-52980952D01*
X50576190Y-52933333D01*
X50528571Y-52838095D01*
X50528571Y-52742857D01*
X50576190Y-52647619D01*
X50623809Y-52600000D01*
X50719047Y-52552381D01*
X50957143Y-52552381D01*
X51100000Y-52600000D01*
D10*
X106952381Y-41504762D02*
X106476190Y-41838096D01*
X106952381Y-42076191D02*
X105952381Y-42076191D01*
X105952381Y-41695238D01*
X106000000Y-41600000D01*
X106047619Y-41552381D01*
X106142857Y-41504762D01*
X106285714Y-41504762D01*
X106380952Y-41552381D01*
X106428571Y-41600000D01*
X106476190Y-41695238D01*
X106476190Y-42076191D01*
X106904762Y-41123810D02*
X106952381Y-40980953D01*
X106952381Y-40742857D01*
X106904762Y-40647619D01*
X106857143Y-40600000D01*
X106761905Y-40552381D01*
X106666667Y-40552381D01*
X106571429Y-40600000D01*
X106523810Y-40647619D01*
X106476190Y-40742857D01*
X106428571Y-40933334D01*
X106380952Y-41028572D01*
X106333333Y-41076191D01*
X106238095Y-41123810D01*
X106142857Y-41123810D01*
X106047619Y-41076191D01*
X106000000Y-41028572D01*
X105952381Y-40933334D01*
X105952381Y-40695238D01*
X106000000Y-40552381D01*
X105952381Y-40266667D02*
X105952381Y-39695238D01*
X106952381Y-39980953D02*
X105952381Y-39980953D01*
X105780000Y-42314286D02*
X105780000Y-39600000D01*
D11*
X44938095Y-31852381D02*
X44938095Y-30852381D01*
X45366666Y-30947619D02*
X45414285Y-30900000D01*
X45509523Y-30852381D01*
X45747619Y-30852381D01*
X45842857Y-30900000D01*
X45890476Y-30947619D01*
X45938095Y-31042857D01*
X45938095Y-31138095D01*
X45890476Y-31280952D01*
X45319047Y-31852381D01*
X45938095Y-31852381D01*
X46938095Y-31757143D02*
X46890476Y-31804762D01*
X46747619Y-31852381D01*
X46652381Y-31852381D01*
X46509523Y-31804762D01*
X46414285Y-31709524D01*
X46366666Y-31614286D01*
X46319047Y-31423810D01*
X46319047Y-31280952D01*
X46366666Y-31090476D01*
X46414285Y-30995238D01*
X46509523Y-30900000D01*
X46652381Y-30852381D01*
X46747619Y-30852381D01*
X46890476Y-30900000D01*
X46938095Y-30947619D01*
X48080952Y-31804762D02*
X48223809Y-31852381D01*
X48461905Y-31852381D01*
X48557143Y-31804762D01*
X48604762Y-31757143D01*
X48652381Y-31661905D01*
X48652381Y-31566667D01*
X48604762Y-31471429D01*
X48557143Y-31423810D01*
X48461905Y-31376190D01*
X48271428Y-31328571D01*
X48176190Y-31280952D01*
X48128571Y-31233333D01*
X48080952Y-31138095D01*
X48080952Y-31042857D01*
X48128571Y-30947619D01*
X48176190Y-30900000D01*
X48271428Y-30852381D01*
X48509524Y-30852381D01*
X48652381Y-30900000D01*
X49223809Y-31852381D02*
X49128571Y-31804762D01*
X49080952Y-31757143D01*
X49033333Y-31661905D01*
X49033333Y-31376190D01*
X49080952Y-31280952D01*
X49128571Y-31233333D01*
X49223809Y-31185714D01*
X49366667Y-31185714D01*
X49461905Y-31233333D01*
X49509524Y-31280952D01*
X49557143Y-31376190D01*
X49557143Y-31661905D01*
X49509524Y-31757143D01*
X49461905Y-31804762D01*
X49366667Y-31852381D01*
X49223809Y-31852381D01*
X50414286Y-31185714D02*
X50414286Y-31852381D01*
X49985714Y-31185714D02*
X49985714Y-31709524D01*
X50033333Y-31804762D01*
X50128571Y-31852381D01*
X50271429Y-31852381D01*
X50366667Y-31804762D01*
X50414286Y-31757143D01*
X50890476Y-31852381D02*
X50890476Y-31185714D01*
X50890476Y-31376190D02*
X50938095Y-31280952D01*
X50985714Y-31233333D01*
X51080952Y-31185714D01*
X51176191Y-31185714D01*
X51938096Y-31804762D02*
X51842858Y-31852381D01*
X51652381Y-31852381D01*
X51557143Y-31804762D01*
X51509524Y-31757143D01*
X51461905Y-31661905D01*
X51461905Y-31376190D01*
X51509524Y-31280952D01*
X51557143Y-31233333D01*
X51652381Y-31185714D01*
X51842858Y-31185714D01*
X51938096Y-31233333D01*
X52747620Y-31804762D02*
X52652382Y-31852381D01*
X52461905Y-31852381D01*
X52366667Y-31804762D01*
X52319048Y-31709524D01*
X52319048Y-31328571D01*
X52366667Y-31233333D01*
X52461905Y-31185714D01*
X52652382Y-31185714D01*
X52747620Y-31233333D01*
X52795239Y-31328571D01*
X52795239Y-31423810D01*
X52319048Y-31519048D01*
X44795238Y-32452381D02*
X45128571Y-33452381D01*
X45461905Y-32452381D01*
X46223810Y-33404762D02*
X46128572Y-33452381D01*
X45938095Y-33452381D01*
X45842857Y-33404762D01*
X45795238Y-33357143D01*
X45747619Y-33261905D01*
X45747619Y-32976190D01*
X45795238Y-32880952D01*
X45842857Y-32833333D01*
X45938095Y-32785714D01*
X46128572Y-32785714D01*
X46223810Y-32833333D01*
X47080953Y-33404762D02*
X46985715Y-33452381D01*
X46795238Y-33452381D01*
X46700000Y-33404762D01*
X46652381Y-33357143D01*
X46604762Y-33261905D01*
X46604762Y-32976190D01*
X46652381Y-32880952D01*
X46700000Y-32833333D01*
X46795238Y-32785714D01*
X46985715Y-32785714D01*
X47080953Y-32833333D01*
X47509524Y-33357143D02*
X47557143Y-33404762D01*
X47509524Y-33452381D01*
X47461905Y-33404762D01*
X47509524Y-33357143D01*
X47509524Y-33452381D01*
X47509524Y-32833333D02*
X47557143Y-32880952D01*
X47509524Y-32928571D01*
X47461905Y-32880952D01*
X47509524Y-32833333D01*
X47509524Y-32928571D01*
X48700000Y-32547619D02*
X48747619Y-32500000D01*
X48842857Y-32452381D01*
X49080953Y-32452381D01*
X49176191Y-32500000D01*
X49223810Y-32547619D01*
X49271429Y-32642857D01*
X49271429Y-32738095D01*
X49223810Y-32880952D01*
X48652381Y-33452381D01*
X49271429Y-33452381D01*
X49557143Y-32452381D02*
X49890476Y-33452381D01*
X50223810Y-32452381D01*
X51176191Y-32785714D02*
X51557143Y-32785714D01*
X51319048Y-32452381D02*
X51319048Y-33309524D01*
X51366667Y-33404762D01*
X51461905Y-33452381D01*
X51557143Y-33452381D01*
X52033334Y-33452381D02*
X51938096Y-33404762D01*
X51890477Y-33357143D01*
X51842858Y-33261905D01*
X51842858Y-32976190D01*
X51890477Y-32880952D01*
X51938096Y-32833333D01*
X52033334Y-32785714D01*
X52176192Y-32785714D01*
X52271430Y-32833333D01*
X52319049Y-32880952D01*
X52366668Y-32976190D01*
X52366668Y-33261905D01*
X52319049Y-33357143D01*
X52271430Y-33404762D01*
X52176192Y-33452381D01*
X52033334Y-33452381D01*
X54080954Y-33452381D02*
X53509525Y-33452381D01*
X53795239Y-33452381D02*
X53795239Y-32452381D01*
X53700001Y-32595238D01*
X53604763Y-32690476D01*
X53509525Y-32738095D01*
X54985716Y-32452381D02*
X54509525Y-32452381D01*
X54461906Y-32928571D01*
X54509525Y-32880952D01*
X54604763Y-32833333D01*
X54842859Y-32833333D01*
X54938097Y-32880952D01*
X54985716Y-32928571D01*
X55033335Y-33023810D01*
X55033335Y-33261905D01*
X54985716Y-33357143D01*
X54938097Y-33404762D01*
X54842859Y-33452381D01*
X54604763Y-33452381D01*
X54509525Y-33404762D01*
X54461906Y-33357143D01*
X55319049Y-32452381D02*
X55652382Y-33452381D01*
X55985716Y-32452381D01*
X64200000Y-37400000D02*
X64200000Y-30500000D01*
X58200000Y-46500000D02*
X64200000Y-46500000D01*
X57800000Y-46100000D02*
X58200000Y-46500000D01*
X57000000Y-46100000D02*
X57800000Y-46100000D01*
X44100000Y-45800000D02*
X51000000Y-45800000D01*
X44100000Y-30500000D02*
X44100000Y-45800000D01*
X60300000Y-37700000D02*
X60300000Y-38700000D01*
X60300000Y-37700000D02*
X61400000Y-37700000D01*
X62700000Y-40100000D02*
X60300000Y-37700000D01*
X71300000Y-40100000D02*
X62700000Y-40100000D01*
X104304762Y-42271429D02*
X104352381Y-42128572D01*
X104352381Y-41890476D01*
X104304762Y-41795238D01*
X104257143Y-41747619D01*
X104161905Y-41700000D01*
X104066667Y-41700000D01*
X103971429Y-41747619D01*
X103923810Y-41795238D01*
X103876190Y-41890476D01*
X103828571Y-42080953D01*
X103780952Y-42176191D01*
X103733333Y-42223810D01*
X103638095Y-42271429D01*
X103542857Y-42271429D01*
X103447619Y-42223810D01*
X103400000Y-42176191D01*
X103352381Y-42080953D01*
X103352381Y-41842857D01*
X103400000Y-41700000D01*
X104257143Y-40700000D02*
X104304762Y-40747619D01*
X104352381Y-40890476D01*
X104352381Y-40985714D01*
X104304762Y-41128572D01*
X104209524Y-41223810D01*
X104114286Y-41271429D01*
X103923810Y-41319048D01*
X103780952Y-41319048D01*
X103590476Y-41271429D01*
X103495238Y-41223810D01*
X103400000Y-41128572D01*
X103352381Y-40985714D01*
X103352381Y-40890476D01*
X103400000Y-40747619D01*
X103447619Y-40700000D01*
X104352381Y-39795238D02*
X104352381Y-40271429D01*
X103352381Y-40271429D01*
X101704762Y-42319048D02*
X101752381Y-42176191D01*
X101752381Y-41938095D01*
X101704762Y-41842857D01*
X101657143Y-41795238D01*
X101561905Y-41747619D01*
X101466667Y-41747619D01*
X101371429Y-41795238D01*
X101323810Y-41842857D01*
X101276190Y-41938095D01*
X101228571Y-42128572D01*
X101180952Y-42223810D01*
X101133333Y-42271429D01*
X101038095Y-42319048D01*
X100942857Y-42319048D01*
X100847619Y-42271429D01*
X100800000Y-42223810D01*
X100752381Y-42128572D01*
X100752381Y-41890476D01*
X100800000Y-41747619D01*
X101752381Y-41319048D02*
X100752381Y-41319048D01*
X100752381Y-41080953D01*
X100800000Y-40938095D01*
X100895238Y-40842857D01*
X100990476Y-40795238D01*
X101180952Y-40747619D01*
X101323810Y-40747619D01*
X101514286Y-40795238D01*
X101609524Y-40842857D01*
X101704762Y-40938095D01*
X101752381Y-41080953D01*
X101752381Y-41319048D01*
X101466667Y-40366667D02*
X101466667Y-39890476D01*
X101752381Y-40461905D02*
X100752381Y-40128572D01*
X101752381Y-39795238D01*
X98200000Y-41885714D02*
X98152381Y-41980952D01*
X98152381Y-42123809D01*
X98200000Y-42266667D01*
X98295238Y-42361905D01*
X98390476Y-42409524D01*
X98580952Y-42457143D01*
X98723810Y-42457143D01*
X98914286Y-42409524D01*
X99009524Y-42361905D01*
X99104762Y-42266667D01*
X99152381Y-42123809D01*
X99152381Y-42028571D01*
X99104762Y-41885714D01*
X99057143Y-41838095D01*
X98723810Y-41838095D01*
X98723810Y-42028571D01*
X99152381Y-41409524D02*
X98152381Y-41409524D01*
X99152381Y-40838095D01*
X98152381Y-40838095D01*
X99152381Y-40361905D02*
X98152381Y-40361905D01*
X98152381Y-40123810D01*
X98200000Y-39980952D01*
X98295238Y-39885714D01*
X98390476Y-39838095D01*
X98580952Y-39790476D01*
X98723810Y-39790476D01*
X98914286Y-39838095D01*
X99009524Y-39885714D01*
X99104762Y-39980952D01*
X99152381Y-40123810D01*
X99152381Y-40361905D01*
X95452381Y-43557143D02*
X96452381Y-43223810D01*
X95452381Y-42890476D01*
X96404762Y-42128571D02*
X96452381Y-42223809D01*
X96452381Y-42414286D01*
X96404762Y-42509524D01*
X96357143Y-42557143D01*
X96261905Y-42604762D01*
X95976190Y-42604762D01*
X95880952Y-42557143D01*
X95833333Y-42509524D01*
X95785714Y-42414286D01*
X95785714Y-42223809D01*
X95833333Y-42128571D01*
X96452381Y-41557143D02*
X96404762Y-41652381D01*
X96357143Y-41700000D01*
X96261905Y-41747619D01*
X95976190Y-41747619D01*
X95880952Y-41700000D01*
X95833333Y-41652381D01*
X95785714Y-41557143D01*
X95785714Y-41414285D01*
X95833333Y-41319047D01*
X95880952Y-41271428D01*
X95976190Y-41223809D01*
X96261905Y-41223809D01*
X96357143Y-41271428D01*
X96404762Y-41319047D01*
X96452381Y-41414285D01*
X96452381Y-41557143D01*
X96452381Y-40795238D02*
X95785714Y-40795238D01*
X95880952Y-40795238D02*
X95833333Y-40747619D01*
X95785714Y-40652381D01*
X95785714Y-40509523D01*
X95833333Y-40414285D01*
X95928571Y-40366666D01*
X96452381Y-40366666D01*
X95928571Y-40366666D02*
X95833333Y-40319047D01*
X95785714Y-40223809D01*
X95785714Y-40080952D01*
X95833333Y-39985714D01*
X95928571Y-39938095D01*
X96452381Y-39938095D01*
X76638095Y-43152381D02*
X76638095Y-42152381D01*
X77066666Y-42247619D02*
X77114285Y-42200000D01*
X77209523Y-42152381D01*
X77447619Y-42152381D01*
X77542857Y-42200000D01*
X77590476Y-42247619D01*
X77638095Y-42342857D01*
X77638095Y-42438095D01*
X77590476Y-42580952D01*
X77019047Y-43152381D01*
X77638095Y-43152381D01*
X78638095Y-43057143D02*
X78590476Y-43104762D01*
X78447619Y-43152381D01*
X78352381Y-43152381D01*
X78209523Y-43104762D01*
X78114285Y-43009524D01*
X78066666Y-42914286D01*
X78019047Y-42723810D01*
X78019047Y-42580952D01*
X78066666Y-42390476D01*
X78114285Y-42295238D01*
X78209523Y-42200000D01*
X78352381Y-42152381D01*
X78447619Y-42152381D01*
X78590476Y-42200000D01*
X78638095Y-42247619D01*
X79828571Y-43152381D02*
X79828571Y-42152381D01*
X80161905Y-42866667D01*
X80495238Y-42152381D01*
X80495238Y-43152381D01*
X80971428Y-42152381D02*
X80971428Y-42961905D01*
X81019047Y-43057143D01*
X81066666Y-43104762D01*
X81161904Y-43152381D01*
X81352381Y-43152381D01*
X81447619Y-43104762D01*
X81495238Y-43057143D01*
X81542857Y-42961905D01*
X81542857Y-42152381D01*
X81923809Y-42152381D02*
X82590476Y-43152381D01*
X82590476Y-42152381D02*
X81923809Y-43152381D01*
X77780952Y-50604762D02*
X77923809Y-50652381D01*
X78161905Y-50652381D01*
X78257143Y-50604762D01*
X78304762Y-50557143D01*
X78352381Y-50461905D01*
X78352381Y-50366667D01*
X78304762Y-50271429D01*
X78257143Y-50223810D01*
X78161905Y-50176190D01*
X77971428Y-50128571D01*
X77876190Y-50080952D01*
X77828571Y-50033333D01*
X77780952Y-49938095D01*
X77780952Y-49842857D01*
X77828571Y-49747619D01*
X77876190Y-49700000D01*
X77971428Y-49652381D01*
X78209524Y-49652381D01*
X78352381Y-49700000D01*
X78780952Y-50652381D02*
X78780952Y-49652381D01*
X79019047Y-49652381D01*
X79161905Y-49700000D01*
X79257143Y-49795238D01*
X79304762Y-49890476D01*
X79352381Y-50080952D01*
X79352381Y-50223810D01*
X79304762Y-50414286D01*
X79257143Y-50509524D01*
X79161905Y-50604762D01*
X79019047Y-50652381D01*
X78780952Y-50652381D01*
X79733333Y-50366667D02*
X80209524Y-50366667D01*
X79638095Y-50652381D02*
X79971428Y-49652381D01*
X80304762Y-50652381D01*
X77828571Y-52804762D02*
X77971428Y-52852381D01*
X78209524Y-52852381D01*
X78304762Y-52804762D01*
X78352381Y-52757143D01*
X78400000Y-52661905D01*
X78400000Y-52566667D01*
X78352381Y-52471429D01*
X78304762Y-52423810D01*
X78209524Y-52376190D01*
X78019047Y-52328571D01*
X77923809Y-52280952D01*
X77876190Y-52233333D01*
X77828571Y-52138095D01*
X77828571Y-52042857D01*
X77876190Y-51947619D01*
X77923809Y-51900000D01*
X78019047Y-51852381D01*
X78257143Y-51852381D01*
X78400000Y-51900000D01*
X79400000Y-52757143D02*
X79352381Y-52804762D01*
X79209524Y-52852381D01*
X79114286Y-52852381D01*
X78971428Y-52804762D01*
X78876190Y-52709524D01*
X78828571Y-52614286D01*
X78780952Y-52423810D01*
X78780952Y-52280952D01*
X78828571Y-52090476D01*
X78876190Y-51995238D01*
X78971428Y-51900000D01*
X79114286Y-51852381D01*
X79209524Y-51852381D01*
X79352381Y-51900000D01*
X79400000Y-51947619D01*
X80304762Y-52852381D02*
X79828571Y-52852381D01*
X79828571Y-51852381D01*
X78214286Y-47100000D02*
X78119048Y-47052381D01*
X77976191Y-47052381D01*
X77833333Y-47100000D01*
X77738095Y-47195238D01*
X77690476Y-47290476D01*
X77642857Y-47480952D01*
X77642857Y-47623810D01*
X77690476Y-47814286D01*
X77738095Y-47909524D01*
X77833333Y-48004762D01*
X77976191Y-48052381D01*
X78071429Y-48052381D01*
X78214286Y-48004762D01*
X78261905Y-47957143D01*
X78261905Y-47623810D01*
X78071429Y-47623810D01*
X78690476Y-48052381D02*
X78690476Y-47052381D01*
X79261905Y-48052381D01*
X79261905Y-47052381D01*
X79738095Y-48052381D02*
X79738095Y-47052381D01*
X79976190Y-47052381D01*
X80119048Y-47100000D01*
X80214286Y-47195238D01*
X80261905Y-47290476D01*
X80309524Y-47480952D01*
X80309524Y-47623810D01*
X80261905Y-47814286D01*
X80214286Y-47909524D01*
X80119048Y-48004762D01*
X79976190Y-48052381D01*
X79738095Y-48052381D01*
X77142857Y-44752381D02*
X77476190Y-45752381D01*
X77809524Y-44752381D01*
X78571429Y-45704762D02*
X78476191Y-45752381D01*
X78285714Y-45752381D01*
X78190476Y-45704762D01*
X78142857Y-45657143D01*
X78095238Y-45561905D01*
X78095238Y-45276190D01*
X78142857Y-45180952D01*
X78190476Y-45133333D01*
X78285714Y-45085714D01*
X78476191Y-45085714D01*
X78571429Y-45133333D01*
X79142857Y-45752381D02*
X79047619Y-45704762D01*
X79000000Y-45657143D01*
X78952381Y-45561905D01*
X78952381Y-45276190D01*
X79000000Y-45180952D01*
X79047619Y-45133333D01*
X79142857Y-45085714D01*
X79285715Y-45085714D01*
X79380953Y-45133333D01*
X79428572Y-45180952D01*
X79476191Y-45276190D01*
X79476191Y-45561905D01*
X79428572Y-45657143D01*
X79380953Y-45704762D01*
X79285715Y-45752381D01*
X79142857Y-45752381D01*
X79904762Y-45752381D02*
X79904762Y-45085714D01*
X79904762Y-45180952D02*
X79952381Y-45133333D01*
X80047619Y-45085714D01*
X80190477Y-45085714D01*
X80285715Y-45133333D01*
X80333334Y-45228571D01*
X80333334Y-45752381D01*
X80333334Y-45228571D02*
X80380953Y-45133333D01*
X80476191Y-45085714D01*
X80619048Y-45085714D01*
X80714286Y-45133333D01*
X80761905Y-45228571D01*
X80761905Y-45752381D01*
X81500000Y-43800000D02*
X81500000Y-53200000D01*
X88300000Y-43800000D02*
X81500000Y-43800000D01*
X85204761Y-45266667D02*
X85680952Y-45266667D01*
X85109523Y-45552381D02*
X85442856Y-44552381D01*
X85776190Y-45552381D01*
X86538095Y-45552381D02*
X86538095Y-44552381D01*
X86538095Y-45504762D02*
X86442857Y-45552381D01*
X86252380Y-45552381D01*
X86157142Y-45504762D01*
X86109523Y-45457143D01*
X86061904Y-45361905D01*
X86061904Y-45076190D01*
X86109523Y-44980952D01*
X86157142Y-44933333D01*
X86252380Y-44885714D01*
X86442857Y-44885714D01*
X86538095Y-44933333D01*
X87442857Y-45552381D02*
X87442857Y-44552381D01*
X87442857Y-45504762D02*
X87347619Y-45552381D01*
X87157142Y-45552381D01*
X87061904Y-45504762D01*
X87014285Y-45457143D01*
X86966666Y-45361905D01*
X86966666Y-45076190D01*
X87014285Y-44980952D01*
X87061904Y-44933333D01*
X87157142Y-44885714D01*
X87347619Y-44885714D01*
X87442857Y-44933333D01*
X87919047Y-45552381D02*
X87919047Y-44885714D01*
X87919047Y-45076190D02*
X87966666Y-44980952D01*
X88014285Y-44933333D01*
X88109523Y-44885714D01*
X88204762Y-44885714D01*
X113114286Y-48552381D02*
X113066667Y-48600000D01*
X112971429Y-48647619D01*
X112733333Y-48647619D01*
X112638095Y-48600000D01*
X112590476Y-48552381D01*
X112542857Y-48457143D01*
X112542857Y-48361905D01*
X112590476Y-48219048D01*
X113161905Y-47647619D01*
X112542857Y-47647619D01*
X112209524Y-48647619D02*
X111590476Y-48647619D01*
X111923810Y-48266667D01*
X111780952Y-48266667D01*
X111685714Y-48219048D01*
X111638095Y-48171429D01*
X111590476Y-48076190D01*
X111590476Y-47838095D01*
X111638095Y-47742857D01*
X111685714Y-47695238D01*
X111780952Y-47647619D01*
X112066667Y-47647619D01*
X112161905Y-47695238D01*
X112209524Y-47742857D01*
X113014286Y-58752381D02*
X112966667Y-58800000D01*
X112871429Y-58847619D01*
X112633333Y-58847619D01*
X112538095Y-58800000D01*
X112490476Y-58752381D01*
X112442857Y-58657143D01*
X112442857Y-58561905D01*
X112490476Y-58419048D01*
X113061905Y-57847619D01*
X112442857Y-57847619D01*
X112061905Y-58752381D02*
X112014286Y-58800000D01*
X111919048Y-58847619D01*
X111680952Y-58847619D01*
X111585714Y-58800000D01*
X111538095Y-58752381D01*
X111490476Y-58657143D01*
X111490476Y-58561905D01*
X111538095Y-58419048D01*
X112109524Y-57847619D01*
X111490476Y-57847619D01*
X113014286Y-68852381D02*
X112966667Y-68900000D01*
X112871429Y-68947619D01*
X112633333Y-68947619D01*
X112538095Y-68900000D01*
X112490476Y-68852381D01*
X112442857Y-68757143D01*
X112442857Y-68661905D01*
X112490476Y-68519048D01*
X113061905Y-67947619D01*
X112442857Y-67947619D01*
X111490476Y-67947619D02*
X112061905Y-67947619D01*
X111776191Y-67947619D02*
X111776191Y-68947619D01*
X111871429Y-68804762D01*
X111966667Y-68709524D01*
X112061905Y-68661905D01*
X113014286Y-79052381D02*
X112966667Y-79100000D01*
X112871429Y-79147619D01*
X112633333Y-79147619D01*
X112538095Y-79100000D01*
X112490476Y-79052381D01*
X112442857Y-78957143D01*
X112442857Y-78861905D01*
X112490476Y-78719048D01*
X113061905Y-78147619D01*
X112442857Y-78147619D01*
X111823810Y-79147619D02*
X111728571Y-79147619D01*
X111633333Y-79100000D01*
X111585714Y-79052381D01*
X111538095Y-78957143D01*
X111490476Y-78766667D01*
X111490476Y-78528571D01*
X111538095Y-78338095D01*
X111585714Y-78242857D01*
X111633333Y-78195238D01*
X111728571Y-78147619D01*
X111823810Y-78147619D01*
X111919048Y-78195238D01*
X111966667Y-78242857D01*
X112014286Y-78338095D01*
X112061905Y-78528571D01*
X112061905Y-78766667D01*
X112014286Y-78957143D01*
X111966667Y-79052381D01*
X111919048Y-79100000D01*
X111823810Y-79147619D01*
X112542857Y-88347619D02*
X113114286Y-88347619D01*
X112828572Y-88347619D02*
X112828572Y-89347619D01*
X112923810Y-89204762D01*
X113019048Y-89109524D01*
X113114286Y-89061905D01*
X112066667Y-88347619D02*
X111876191Y-88347619D01*
X111780952Y-88395238D01*
X111733333Y-88442857D01*
X111638095Y-88585714D01*
X111590476Y-88776190D01*
X111590476Y-89157143D01*
X111638095Y-89252381D01*
X111685714Y-89300000D01*
X111780952Y-89347619D01*
X111971429Y-89347619D01*
X112066667Y-89300000D01*
X112114286Y-89252381D01*
X112161905Y-89157143D01*
X112161905Y-88919048D01*
X112114286Y-88823810D01*
X112066667Y-88776190D01*
X111971429Y-88728571D01*
X111780952Y-88728571D01*
X111685714Y-88776190D01*
X111638095Y-88823810D01*
X111590476Y-88919048D01*
X112442857Y-98347619D02*
X113014286Y-98347619D01*
X112728572Y-98347619D02*
X112728572Y-99347619D01*
X112823810Y-99204762D01*
X112919048Y-99109524D01*
X113014286Y-99061905D01*
X111871429Y-98919048D02*
X111966667Y-98966667D01*
X112014286Y-99014286D01*
X112061905Y-99109524D01*
X112061905Y-99157143D01*
X112014286Y-99252381D01*
X111966667Y-99300000D01*
X111871429Y-99347619D01*
X111680952Y-99347619D01*
X111585714Y-99300000D01*
X111538095Y-99252381D01*
X111490476Y-99157143D01*
X111490476Y-99109524D01*
X111538095Y-99014286D01*
X111585714Y-98966667D01*
X111680952Y-98919048D01*
X111871429Y-98919048D01*
X111966667Y-98871429D01*
X112014286Y-98823810D01*
X112061905Y-98728571D01*
X112061905Y-98538095D01*
X112014286Y-98442857D01*
X111966667Y-98395238D01*
X111871429Y-98347619D01*
X111680952Y-98347619D01*
X111585714Y-98395238D01*
X111538095Y-98442857D01*
X111490476Y-98538095D01*
X111490476Y-98728571D01*
X111538095Y-98823810D01*
X111585714Y-98871429D01*
X111680952Y-98919048D01*
X112542857Y-108447619D02*
X113114286Y-108447619D01*
X112828572Y-108447619D02*
X112828572Y-109447619D01*
X112923810Y-109304762D01*
X113019048Y-109209524D01*
X113114286Y-109161905D01*
X112209524Y-109447619D02*
X111542857Y-109447619D01*
X111971429Y-108447619D01*
X115200000Y-120100000D02*
X111500000Y-120100000D01*
X112542857Y-118647619D02*
X113114286Y-118647619D01*
X112828572Y-118647619D02*
X112828572Y-119647619D01*
X112923810Y-119504762D01*
X113019048Y-119409524D01*
X113114286Y-119361905D01*
X111685714Y-119647619D02*
X111876191Y-119647619D01*
X111971429Y-119600000D01*
X112019048Y-119552381D01*
X112114286Y-119409524D01*
X112161905Y-119219048D01*
X112161905Y-118838095D01*
X112114286Y-118742857D01*
X112066667Y-118695238D01*
X111971429Y-118647619D01*
X111780952Y-118647619D01*
X111685714Y-118695238D01*
X111638095Y-118742857D01*
X111590476Y-118838095D01*
X111590476Y-119076190D01*
X111638095Y-119171429D01*
X111685714Y-119219048D01*
X111780952Y-119266667D01*
X111971429Y-119266667D01*
X112066667Y-119219048D01*
X112114286Y-119171429D01*
X112161905Y-119076190D01*
X106452381Y-117242857D02*
X106452381Y-117814286D01*
X106452381Y-117528572D02*
X105452381Y-117528572D01*
X105595238Y-117623810D01*
X105690476Y-117719048D01*
X105738095Y-117814286D01*
X105452381Y-116338095D02*
X105452381Y-116814286D01*
X105928571Y-116861905D01*
X105880952Y-116814286D01*
X105833333Y-116719048D01*
X105833333Y-116480952D01*
X105880952Y-116385714D01*
X105928571Y-116338095D01*
X106023810Y-116290476D01*
X106261905Y-116290476D01*
X106357143Y-116338095D01*
X106404762Y-116385714D01*
X106452381Y-116480952D01*
X106452381Y-116719048D01*
X106404762Y-116814286D01*
X106357143Y-116861905D01*
X96552381Y-117342857D02*
X96552381Y-117914286D01*
X96552381Y-117628572D02*
X95552381Y-117628572D01*
X95695238Y-117723810D01*
X95790476Y-117819048D01*
X95838095Y-117914286D01*
X95885714Y-116485714D02*
X96552381Y-116485714D01*
X95504762Y-116723810D02*
X96219048Y-116961905D01*
X96219048Y-116342857D01*
X86352381Y-117442857D02*
X86352381Y-118014286D01*
X86352381Y-117728572D02*
X85352381Y-117728572D01*
X85495238Y-117823810D01*
X85590476Y-117919048D01*
X85638095Y-118014286D01*
X85352381Y-117109524D02*
X85352381Y-116490476D01*
X85733333Y-116823810D01*
X85733333Y-116680952D01*
X85780952Y-116585714D01*
X85828571Y-116538095D01*
X85923810Y-116490476D01*
X86161905Y-116490476D01*
X86257143Y-116538095D01*
X86304762Y-116585714D01*
X86352381Y-116680952D01*
X86352381Y-116966667D01*
X86304762Y-117061905D01*
X86257143Y-117109524D01*
X76152381Y-117442857D02*
X76152381Y-118014286D01*
X76152381Y-117728572D02*
X75152381Y-117728572D01*
X75295238Y-117823810D01*
X75390476Y-117919048D01*
X75438095Y-118014286D01*
X75247619Y-117061905D02*
X75200000Y-117014286D01*
X75152381Y-116919048D01*
X75152381Y-116680952D01*
X75200000Y-116585714D01*
X75247619Y-116538095D01*
X75342857Y-116490476D01*
X75438095Y-116490476D01*
X75580952Y-116538095D01*
X76152381Y-117109524D01*
X76152381Y-116490476D01*
X66052381Y-117542857D02*
X66052381Y-118114286D01*
X66052381Y-117828572D02*
X65052381Y-117828572D01*
X65195238Y-117923810D01*
X65290476Y-118019048D01*
X65338095Y-118114286D01*
X66052381Y-116590476D02*
X66052381Y-117161905D01*
X66052381Y-116876191D02*
X65052381Y-116876191D01*
X65195238Y-116971429D01*
X65290476Y-117066667D01*
X65338095Y-117161905D01*
X55652381Y-117642857D02*
X55652381Y-118214286D01*
X55652381Y-117928572D02*
X54652381Y-117928572D01*
X54795238Y-118023810D01*
X54890476Y-118119048D01*
X54938095Y-118214286D01*
X54652381Y-117023810D02*
X54652381Y-116928571D01*
X54700000Y-116833333D01*
X54747619Y-116785714D01*
X54842857Y-116738095D01*
X55033333Y-116690476D01*
X55271429Y-116690476D01*
X55461905Y-116738095D01*
X55557143Y-116785714D01*
X55604762Y-116833333D01*
X55652381Y-116928571D01*
X55652381Y-117023810D01*
X55604762Y-117119048D01*
X55557143Y-117166667D01*
X55461905Y-117214286D01*
X55271429Y-117261905D01*
X55033333Y-117261905D01*
X54842857Y-117214286D01*
X54747619Y-117166667D01*
X54700000Y-117119048D01*
X54652381Y-117023810D01*
X45652381Y-117166667D02*
X45652381Y-116976191D01*
X45604762Y-116880952D01*
X45557143Y-116833333D01*
X45414286Y-116738095D01*
X45223810Y-116690476D01*
X44842857Y-116690476D01*
X44747619Y-116738095D01*
X44700000Y-116785714D01*
X44652381Y-116880952D01*
X44652381Y-117071429D01*
X44700000Y-117166667D01*
X44747619Y-117214286D01*
X44842857Y-117261905D01*
X45080952Y-117261905D01*
X45176190Y-117214286D01*
X45223810Y-117166667D01*
X45271429Y-117071429D01*
X45271429Y-116880952D01*
X45223810Y-116785714D01*
X45176190Y-116738095D01*
X45080952Y-116690476D01*
X34880952Y-116971429D02*
X34833333Y-117066667D01*
X34785714Y-117114286D01*
X34690476Y-117161905D01*
X34642857Y-117161905D01*
X34547619Y-117114286D01*
X34500000Y-117066667D01*
X34452381Y-116971429D01*
X34452381Y-116780952D01*
X34500000Y-116685714D01*
X34547619Y-116638095D01*
X34642857Y-116590476D01*
X34690476Y-116590476D01*
X34785714Y-116638095D01*
X34833333Y-116685714D01*
X34880952Y-116780952D01*
X34880952Y-116971429D01*
X34928571Y-117066667D01*
X34976190Y-117114286D01*
X35071429Y-117161905D01*
X35261905Y-117161905D01*
X35357143Y-117114286D01*
X35404762Y-117066667D01*
X35452381Y-116971429D01*
X35452381Y-116780952D01*
X35404762Y-116685714D01*
X35357143Y-116638095D01*
X35261905Y-116590476D01*
X35071429Y-116590476D01*
X34976190Y-116638095D01*
X34928571Y-116685714D01*
X34880952Y-116780952D01*
X39590476Y-110752381D02*
X40257143Y-110752381D01*
X39828571Y-111752381D01*
X40114286Y-100452381D02*
X39923809Y-100452381D01*
X39828571Y-100500000D01*
X39780952Y-100547619D01*
X39685714Y-100690476D01*
X39638095Y-100880952D01*
X39638095Y-101261905D01*
X39685714Y-101357143D01*
X39733333Y-101404762D01*
X39828571Y-101452381D01*
X40019048Y-101452381D01*
X40114286Y-101404762D01*
X40161905Y-101357143D01*
X40209524Y-101261905D01*
X40209524Y-101023810D01*
X40161905Y-100928571D01*
X40114286Y-100880952D01*
X40019048Y-100833333D01*
X39828571Y-100833333D01*
X39733333Y-100880952D01*
X39685714Y-100928571D01*
X39638095Y-101023810D01*
X40161905Y-90352381D02*
X39685714Y-90352381D01*
X39638095Y-90828571D01*
X39685714Y-90780952D01*
X39780952Y-90733333D01*
X40019048Y-90733333D01*
X40114286Y-90780952D01*
X40161905Y-90828571D01*
X40209524Y-90923810D01*
X40209524Y-91161905D01*
X40161905Y-91257143D01*
X40114286Y-91304762D01*
X40019048Y-91352381D01*
X39780952Y-91352381D01*
X39685714Y-91304762D01*
X39638095Y-91257143D01*
X40114286Y-80485714D02*
X40114286Y-81152381D01*
X39876190Y-80104762D02*
X39638095Y-80819048D01*
X40257143Y-80819048D01*
X39490476Y-70052381D02*
X40109524Y-70052381D01*
X39776190Y-70433333D01*
X39919048Y-70433333D01*
X40014286Y-70480952D01*
X40061905Y-70528571D01*
X40109524Y-70623810D01*
X40109524Y-70861905D01*
X40061905Y-70957143D01*
X40014286Y-71004762D01*
X39919048Y-71052381D01*
X39633333Y-71052381D01*
X39538095Y-71004762D01*
X39490476Y-70957143D01*
X39738095Y-59747619D02*
X39785714Y-59700000D01*
X39880952Y-59652381D01*
X40119048Y-59652381D01*
X40214286Y-59700000D01*
X40261905Y-59747619D01*
X40309524Y-59842857D01*
X40309524Y-59938095D01*
X40261905Y-60080952D01*
X39690476Y-60652381D01*
X40309524Y-60652381D01*
X40009524Y-50652381D02*
X39438095Y-50652381D01*
X39723809Y-50652381D02*
X39723809Y-49652381D01*
X39628571Y-49795238D01*
X39533333Y-49890476D01*
X39438095Y-49938095D01*
X39676190Y-39552381D02*
X39771429Y-39552381D01*
X39866667Y-39600000D01*
X39914286Y-39647619D01*
X39961905Y-39742857D01*
X40009524Y-39933333D01*
X40009524Y-40171429D01*
X39961905Y-40361905D01*
X39914286Y-40457143D01*
X39866667Y-40504762D01*
X39771429Y-40552381D01*
X39676190Y-40552381D01*
X39580952Y-40504762D01*
X39533333Y-40457143D01*
X39485714Y-40361905D01*
X39438095Y-40171429D01*
X39438095Y-39933333D01*
X39485714Y-39742857D01*
X39533333Y-39647619D01*
X39580952Y-39600000D01*
X39676190Y-39552381D01*
X94466667Y-94590477D02*
X94466667Y-94114286D01*
X94752381Y-94685715D02*
X93752381Y-94352382D01*
X94752381Y-94019048D01*
X94752381Y-93257143D02*
X93752381Y-93257143D01*
X94704762Y-93257143D02*
X94752381Y-93352381D01*
X94752381Y-93542858D01*
X94704762Y-93638096D01*
X94657143Y-93685715D01*
X94561905Y-93733334D01*
X94276190Y-93733334D01*
X94180952Y-93685715D01*
X94133333Y-93638096D01*
X94085714Y-93542858D01*
X94085714Y-93352381D01*
X94133333Y-93257143D01*
X94752381Y-92352381D02*
X93752381Y-92352381D01*
X94704762Y-92352381D02*
X94752381Y-92447619D01*
X94752381Y-92638096D01*
X94704762Y-92733334D01*
X94657143Y-92780953D01*
X94561905Y-92828572D01*
X94276190Y-92828572D01*
X94180952Y-92780953D01*
X94133333Y-92733334D01*
X94085714Y-92638096D01*
X94085714Y-92447619D01*
X94133333Y-92352381D01*
X94752381Y-91876191D02*
X94085714Y-91876191D01*
X94276190Y-91876191D02*
X94180952Y-91828572D01*
X94133333Y-91780953D01*
X94085714Y-91685715D01*
X94085714Y-91590476D01*
X94704762Y-90876190D02*
X94752381Y-90971428D01*
X94752381Y-91161905D01*
X94704762Y-91257143D01*
X94609524Y-91304762D01*
X94228571Y-91304762D01*
X94133333Y-91257143D01*
X94085714Y-91161905D01*
X94085714Y-90971428D01*
X94133333Y-90876190D01*
X94228571Y-90828571D01*
X94323810Y-90828571D01*
X94419048Y-91304762D01*
X94704762Y-90447619D02*
X94752381Y-90352381D01*
X94752381Y-90161905D01*
X94704762Y-90066666D01*
X94609524Y-90019047D01*
X94561905Y-90019047D01*
X94466667Y-90066666D01*
X94419048Y-90161905D01*
X94419048Y-90304762D01*
X94371429Y-90400000D01*
X94276190Y-90447619D01*
X94228571Y-90447619D01*
X94133333Y-90400000D01*
X94085714Y-90304762D01*
X94085714Y-90161905D01*
X94133333Y-90066666D01*
X94704762Y-89638095D02*
X94752381Y-89542857D01*
X94752381Y-89352381D01*
X94704762Y-89257142D01*
X94609524Y-89209523D01*
X94561905Y-89209523D01*
X94466667Y-89257142D01*
X94419048Y-89352381D01*
X94419048Y-89495238D01*
X94371429Y-89590476D01*
X94276190Y-89638095D01*
X94228571Y-89638095D01*
X94133333Y-89590476D01*
X94085714Y-89495238D01*
X94085714Y-89352381D01*
X94133333Y-89257142D01*
X58909523Y-99066667D02*
X59385714Y-99066667D01*
X58814285Y-99352381D02*
X59147618Y-98352381D01*
X59480952Y-99352381D01*
X60242857Y-99352381D02*
X60242857Y-98352381D01*
X60242857Y-99304762D02*
X60147619Y-99352381D01*
X59957142Y-99352381D01*
X59861904Y-99304762D01*
X59814285Y-99257143D01*
X59766666Y-99161905D01*
X59766666Y-98876190D01*
X59814285Y-98780952D01*
X59861904Y-98733333D01*
X59957142Y-98685714D01*
X60147619Y-98685714D01*
X60242857Y-98733333D01*
X61147619Y-99352381D02*
X61147619Y-98352381D01*
X61147619Y-99304762D02*
X61052381Y-99352381D01*
X60861904Y-99352381D01*
X60766666Y-99304762D01*
X60719047Y-99257143D01*
X60671428Y-99161905D01*
X60671428Y-98876190D01*
X60719047Y-98780952D01*
X60766666Y-98733333D01*
X60861904Y-98685714D01*
X61052381Y-98685714D01*
X61147619Y-98733333D01*
X61623809Y-99352381D02*
X61623809Y-98685714D01*
X61623809Y-98876190D02*
X61671428Y-98780952D01*
X61719047Y-98733333D01*
X61814285Y-98685714D01*
X61909524Y-98685714D01*
X62623810Y-99304762D02*
X62528572Y-99352381D01*
X62338095Y-99352381D01*
X62242857Y-99304762D01*
X62195238Y-99209524D01*
X62195238Y-98828571D01*
X62242857Y-98733333D01*
X62338095Y-98685714D01*
X62528572Y-98685714D01*
X62623810Y-98733333D01*
X62671429Y-98828571D01*
X62671429Y-98923810D01*
X62195238Y-99019048D01*
X63052381Y-99304762D02*
X63147619Y-99352381D01*
X63338095Y-99352381D01*
X63433334Y-99304762D01*
X63480953Y-99209524D01*
X63480953Y-99161905D01*
X63433334Y-99066667D01*
X63338095Y-99019048D01*
X63195238Y-99019048D01*
X63100000Y-98971429D01*
X63052381Y-98876190D01*
X63052381Y-98828571D01*
X63100000Y-98733333D01*
X63195238Y-98685714D01*
X63338095Y-98685714D01*
X63433334Y-98733333D01*
X63861905Y-99304762D02*
X63957143Y-99352381D01*
X64147619Y-99352381D01*
X64242858Y-99304762D01*
X64290477Y-99209524D01*
X64290477Y-99161905D01*
X64242858Y-99066667D01*
X64147619Y-99019048D01*
X64004762Y-99019048D01*
X63909524Y-98971429D01*
X63861905Y-98876190D01*
X63861905Y-98828571D01*
X63909524Y-98733333D01*
X64004762Y-98685714D01*
X64147619Y-98685714D01*
X64242858Y-98733333D01*
X44866667Y-67590477D02*
X44866667Y-67114286D01*
X45152381Y-67685715D02*
X44152381Y-67352382D01*
X45152381Y-67019048D01*
X45152381Y-66257143D02*
X44152381Y-66257143D01*
X45104762Y-66257143D02*
X45152381Y-66352381D01*
X45152381Y-66542858D01*
X45104762Y-66638096D01*
X45057143Y-66685715D01*
X44961905Y-66733334D01*
X44676190Y-66733334D01*
X44580952Y-66685715D01*
X44533333Y-66638096D01*
X44485714Y-66542858D01*
X44485714Y-66352381D01*
X44533333Y-66257143D01*
X45152381Y-65352381D02*
X44152381Y-65352381D01*
X45104762Y-65352381D02*
X45152381Y-65447619D01*
X45152381Y-65638096D01*
X45104762Y-65733334D01*
X45057143Y-65780953D01*
X44961905Y-65828572D01*
X44676190Y-65828572D01*
X44580952Y-65780953D01*
X44533333Y-65733334D01*
X44485714Y-65638096D01*
X44485714Y-65447619D01*
X44533333Y-65352381D01*
X45152381Y-64876191D02*
X44485714Y-64876191D01*
X44676190Y-64876191D02*
X44580952Y-64828572D01*
X44533333Y-64780953D01*
X44485714Y-64685715D01*
X44485714Y-64590476D01*
X45104762Y-63876190D02*
X45152381Y-63971428D01*
X45152381Y-64161905D01*
X45104762Y-64257143D01*
X45009524Y-64304762D01*
X44628571Y-64304762D01*
X44533333Y-64257143D01*
X44485714Y-64161905D01*
X44485714Y-63971428D01*
X44533333Y-63876190D01*
X44628571Y-63828571D01*
X44723810Y-63828571D01*
X44819048Y-64304762D01*
X45104762Y-63447619D02*
X45152381Y-63352381D01*
X45152381Y-63161905D01*
X45104762Y-63066666D01*
X45009524Y-63019047D01*
X44961905Y-63019047D01*
X44866667Y-63066666D01*
X44819048Y-63161905D01*
X44819048Y-63304762D01*
X44771429Y-63400000D01*
X44676190Y-63447619D01*
X44628571Y-63447619D01*
X44533333Y-63400000D01*
X44485714Y-63304762D01*
X44485714Y-63161905D01*
X44533333Y-63066666D01*
X45104762Y-62638095D02*
X45152381Y-62542857D01*
X45152381Y-62352381D01*
X45104762Y-62257142D01*
X45009524Y-62209523D01*
X44961905Y-62209523D01*
X44866667Y-62257142D01*
X44819048Y-62352381D01*
X44819048Y-62495238D01*
X44771429Y-62590476D01*
X44676190Y-62638095D01*
X44628571Y-62638095D01*
X44533333Y-62590476D01*
X44485714Y-62495238D01*
X44485714Y-62352381D01*
X44533333Y-62257142D01*
X104452381Y-89547619D02*
X104452381Y-89452380D01*
X104500000Y-89357142D01*
X104547619Y-89309523D01*
X104642857Y-89261904D01*
X104833333Y-89214285D01*
X105071429Y-89214285D01*
X105261905Y-89261904D01*
X105357143Y-89309523D01*
X105404762Y-89357142D01*
X105452381Y-89452380D01*
X105452381Y-89547619D01*
X105404762Y-89642857D01*
X105357143Y-89690476D01*
X105261905Y-89738095D01*
X105071429Y-89785714D01*
X104833333Y-89785714D01*
X104642857Y-89738095D01*
X104547619Y-89690476D01*
X104500000Y-89642857D01*
X104452381Y-89547619D01*
X105452381Y-91414285D02*
X105452381Y-91985714D01*
X105452381Y-91700000D02*
X104452381Y-91700000D01*
X104595238Y-91795238D01*
X104690476Y-91890476D01*
X104738095Y-91985714D01*
X104647619Y-94185714D02*
X104600000Y-94138095D01*
X104552381Y-94042857D01*
X104552381Y-93804761D01*
X104600000Y-93709523D01*
X104647619Y-93661904D01*
X104742857Y-93614285D01*
X104838095Y-93614285D01*
X104980952Y-93661904D01*
X105552381Y-94233333D01*
X105552381Y-93614285D01*
X102952381Y-95790476D02*
X102952381Y-96266667D01*
X101952381Y-96266667D01*
X96647619Y-95914286D02*
X97647619Y-95914286D01*
X97171429Y-95914286D02*
X97171429Y-96485715D01*
X96647619Y-96485715D02*
X97647619Y-96485715D01*
X57885714Y-101247619D02*
X57885714Y-102247619D01*
X57885714Y-101771429D02*
X57314285Y-101771429D01*
X57314285Y-101247619D02*
X57314285Y-102247619D01*
X58009524Y-107552381D02*
X57533333Y-107552381D01*
X57533333Y-106552381D01*
X59614286Y-109247619D02*
X59661905Y-109200000D01*
X59757143Y-109152381D01*
X59995239Y-109152381D01*
X60090477Y-109200000D01*
X60138096Y-109247619D01*
X60185715Y-109342857D01*
X60185715Y-109438095D01*
X60138096Y-109580952D01*
X59566667Y-110152381D01*
X60185715Y-110152381D01*
X62385715Y-110052381D02*
X61814286Y-110052381D01*
X62100000Y-110052381D02*
X62100000Y-109052381D01*
X62004762Y-109195238D01*
X61909524Y-109290476D01*
X61814286Y-109338095D01*
X64252381Y-109052381D02*
X64347620Y-109052381D01*
X64442858Y-109100000D01*
X64490477Y-109147619D01*
X64538096Y-109242857D01*
X64585715Y-109433333D01*
X64585715Y-109671429D01*
X64538096Y-109861905D01*
X64490477Y-109957143D01*
X64442858Y-110004762D01*
X64347620Y-110052381D01*
X64252381Y-110052381D01*
X64157143Y-110004762D01*
X64109524Y-109957143D01*
X64061905Y-109861905D01*
X64014286Y-109671429D01*
X64014286Y-109433333D01*
X64061905Y-109242857D01*
X64109524Y-109147619D01*
X64157143Y-109100000D01*
X64252381Y-109052381D01*
X117710000Y-38890000D02*
X111360000Y-38890000D01*
X117710000Y-49050000D02*
X111360000Y-49050000D01*
X117710000Y-59210000D02*
X111360000Y-59210000D01*
X117710000Y-69370000D02*
X111360000Y-69370000D01*
X117710000Y-79530000D02*
X111360000Y-79530000D01*
X117710000Y-89690000D02*
X111360000Y-89690000D01*
X117710000Y-99850000D02*
X111360000Y-99850000D01*
X117710000Y-110010000D02*
X111360000Y-110010000D01*
X117710000Y-120170000D02*
X115170000Y-120170000D01*
X115170000Y-122710000D02*
X115170000Y-116360000D01*
X105010000Y-122710000D02*
X105010000Y-116360000D01*
X94850000Y-122710000D02*
X94850000Y-116360000D01*
X84690000Y-122710000D02*
X84690000Y-116360000D01*
X74530000Y-122710000D02*
X74530000Y-116360000D01*
X64370000Y-122710000D02*
X64370000Y-116360000D01*
X44050000Y-122710000D02*
X44050000Y-116360000D01*
X54210000Y-122710000D02*
X54210000Y-116360000D01*
X33890000Y-122710000D02*
X33890000Y-120170000D01*
X33890000Y-120170000D02*
X40240000Y-120170000D01*
X33890000Y-110010000D02*
X40240000Y-110010000D01*
X33890000Y-99850000D02*
X40240000Y-99850000D01*
X33890000Y-89690000D02*
X40240000Y-89690000D01*
X33890000Y-79530000D02*
X40240000Y-79530000D01*
X33890000Y-69370000D02*
X40240000Y-69370000D01*
X33890000Y-59210000D02*
X40240000Y-59210000D01*
X33890000Y-49050000D02*
X40240000Y-49050000D01*
X33890000Y-38890000D02*
X40240000Y-38890000D01*
X48052381Y-60690476D02*
X48052381Y-61166667D01*
X47052381Y-61166667D01*
X53252381Y-61385714D02*
X52252381Y-61385714D01*
X52728571Y-61385714D02*
X52728571Y-60814285D01*
X53252381Y-60814285D02*
X52252381Y-60814285D01*
X54652381Y-62547619D02*
X54652381Y-62452380D01*
X54700000Y-62357142D01*
X54747619Y-62309523D01*
X54842857Y-62261904D01*
X55033333Y-62214285D01*
X55271429Y-62214285D01*
X55461905Y-62261904D01*
X55557143Y-62309523D01*
X55604762Y-62357142D01*
X55652381Y-62452380D01*
X55652381Y-62547619D01*
X55604762Y-62642857D01*
X55557143Y-62690476D01*
X55461905Y-62738095D01*
X55271429Y-62785714D01*
X55033333Y-62785714D01*
X54842857Y-62738095D01*
X54747619Y-62690476D01*
X54700000Y-62642857D01*
X54652381Y-62547619D01*
X55652381Y-64414285D02*
X55652381Y-64985714D01*
X55652381Y-64700000D02*
X54652381Y-64700000D01*
X54795238Y-64795238D01*
X54890476Y-64890476D01*
X54938095Y-64985714D01*
X54847619Y-67185714D02*
X54800000Y-67138095D01*
X54752381Y-67042857D01*
X54752381Y-66804761D01*
X54800000Y-66709523D01*
X54847619Y-66661904D01*
X54942857Y-66614285D01*
X55038095Y-66614285D01*
X55180952Y-66661904D01*
X55752381Y-67233333D01*
X55752381Y-66614285D01*
D13*
X46200000Y-67500000D02*
X46100000Y-67500000D01*
X46100000Y-67500000D02*
X46100000Y-66300000D01*
X46100000Y-66300000D02*
X48600000Y-66300000D01*
X48600000Y-66300000D02*
X48700000Y-66300000D01*
X48700000Y-66300000D02*
X48700000Y-67500000D01*
X48700000Y-67500000D02*
X48600000Y-67500000D01*
X48600000Y-67500000D02*
X46200000Y-67500000D01*
X54000000Y-66300000D02*
X54100000Y-66300000D01*
X54100000Y-66300000D02*
X54100000Y-67500000D01*
X54100000Y-67500000D02*
X51600000Y-67500000D01*
X51600000Y-67500000D02*
X51500000Y-67500000D01*
X51500000Y-67500000D02*
X51500000Y-66300000D01*
X51500000Y-66300000D02*
X51600000Y-66300000D01*
X51600000Y-66300000D02*
X54000000Y-66300000D01*
X46200000Y-65300000D02*
X46100000Y-65300000D01*
X46100000Y-65300000D02*
X46100000Y-64100000D01*
X46100000Y-64100000D02*
X48600000Y-64100000D01*
X48600000Y-64100000D02*
X48700000Y-64100000D01*
X48700000Y-64100000D02*
X48700000Y-65300000D01*
X48700000Y-65300000D02*
X48600000Y-65300000D01*
X48600000Y-65300000D02*
X46200000Y-65300000D01*
X54000000Y-64100000D02*
X54100000Y-64100000D01*
X54100000Y-64100000D02*
X54100000Y-65300000D01*
X54100000Y-65300000D02*
X51600000Y-65300000D01*
X51600000Y-65300000D02*
X51500000Y-65300000D01*
X51500000Y-65300000D02*
X51500000Y-64100000D01*
X51500000Y-64100000D02*
X51600000Y-64100000D01*
X51600000Y-64100000D02*
X54000000Y-64100000D01*
X46200000Y-63100000D02*
X46100000Y-63100000D01*
X46100000Y-63100000D02*
X46100000Y-61900000D01*
X46100000Y-61900000D02*
X48600000Y-61900000D01*
X48600000Y-61900000D02*
X48700000Y-61900000D01*
X48700000Y-61900000D02*
X48700000Y-63100000D01*
X48700000Y-63100000D02*
X48600000Y-63100000D01*
X48600000Y-63100000D02*
X46200000Y-63100000D01*
X54000000Y-61900000D02*
X54100000Y-61900000D01*
X54100000Y-61900000D02*
X54100000Y-63100000D01*
X54100000Y-63100000D02*
X51600000Y-63100000D01*
X51600000Y-63100000D02*
X51500000Y-63100000D01*
X51500000Y-63100000D02*
X51500000Y-61900000D01*
X51500000Y-61900000D02*
X51600000Y-61900000D01*
X51600000Y-61900000D02*
X54000000Y-61900000D01*
X60100000Y-108300000D02*
X60100000Y-108400000D01*
X60100000Y-108400000D02*
X58900000Y-108400000D01*
X58900000Y-108400000D02*
X58900000Y-105900000D01*
X58900000Y-105900000D02*
X58900000Y-105800000D01*
X58900000Y-105800000D02*
X60100000Y-105800000D01*
X60100000Y-105800000D02*
X60100000Y-105900000D01*
X60100000Y-105900000D02*
X60100000Y-108300000D01*
X58900000Y-100400000D02*
X58900000Y-100300000D01*
X58900000Y-100300000D02*
X60100000Y-100300000D01*
X60100000Y-100300000D02*
X60100000Y-102800000D01*
X60100000Y-102800000D02*
X60100000Y-102900000D01*
X60100000Y-102900000D02*
X58900000Y-102900000D01*
X58900000Y-102900000D02*
X58900000Y-102800000D01*
X58900000Y-102800000D02*
X58900000Y-100400000D01*
X62600000Y-108300000D02*
X62600000Y-108400000D01*
X62600000Y-108400000D02*
X61400000Y-108400000D01*
X61400000Y-108400000D02*
X61400000Y-105900000D01*
X61400000Y-105900000D02*
X61400000Y-105800000D01*
X61400000Y-105800000D02*
X62600000Y-105800000D01*
X62600000Y-105800000D02*
X62600000Y-105900000D01*
X62600000Y-105900000D02*
X62600000Y-108300000D01*
X61400000Y-100400000D02*
X61400000Y-100300000D01*
X61400000Y-100300000D02*
X62600000Y-100300000D01*
X62600000Y-100300000D02*
X62600000Y-102800000D01*
X62600000Y-102800000D02*
X62600000Y-102900000D01*
X62600000Y-102900000D02*
X61400000Y-102900000D01*
X61400000Y-102900000D02*
X61400000Y-102800000D01*
X61400000Y-102800000D02*
X61400000Y-100400000D01*
X65000000Y-108300000D02*
X65000000Y-108400000D01*
X65000000Y-108400000D02*
X63800000Y-108400000D01*
X63800000Y-108400000D02*
X63800000Y-105900000D01*
X63800000Y-105900000D02*
X63800000Y-105800000D01*
X63800000Y-105800000D02*
X65000000Y-105800000D01*
X65000000Y-105800000D02*
X65000000Y-105900000D01*
X65000000Y-105900000D02*
X65000000Y-108300000D01*
X63800000Y-100400000D02*
X63800000Y-100300000D01*
X63800000Y-100300000D02*
X65000000Y-100300000D01*
X65000000Y-100300000D02*
X65000000Y-102800000D01*
X65000000Y-102800000D02*
X65000000Y-102900000D01*
X65000000Y-102900000D02*
X63800000Y-102900000D01*
X63800000Y-102900000D02*
X63800000Y-102800000D01*
X63800000Y-102800000D02*
X63800000Y-100400000D01*
X103500000Y-93500000D02*
X103600000Y-93500000D01*
X103600000Y-93500000D02*
X103600000Y-94700000D01*
X103600000Y-94700000D02*
X101100000Y-94700000D01*
X101100000Y-94700000D02*
X101000000Y-94700000D01*
X101000000Y-94700000D02*
X101000000Y-93500000D01*
X101000000Y-93500000D02*
X101100000Y-93500000D01*
X101100000Y-93500000D02*
X103500000Y-93500000D01*
X95800000Y-94700000D02*
X95700000Y-94700000D01*
X95700000Y-94700000D02*
X95700000Y-93500000D01*
X95700000Y-93500000D02*
X98200000Y-93500000D01*
X98200000Y-93500000D02*
X98300000Y-93500000D01*
X98300000Y-93500000D02*
X98300000Y-94700000D01*
X98300000Y-94700000D02*
X98200000Y-94700000D01*
X98200000Y-94700000D02*
X95800000Y-94700000D01*
X103500000Y-91100000D02*
X103600000Y-91100000D01*
X103600000Y-91100000D02*
X103600000Y-92300000D01*
X103600000Y-92300000D02*
X101100000Y-92300000D01*
X101100000Y-92300000D02*
X101000000Y-92300000D01*
X101000000Y-92300000D02*
X101000000Y-91100000D01*
X101000000Y-91100000D02*
X101100000Y-91100000D01*
X101100000Y-91100000D02*
X103500000Y-91100000D01*
X95800000Y-92300000D02*
X95700000Y-92300000D01*
X95700000Y-92300000D02*
X95700000Y-91100000D01*
X95700000Y-91100000D02*
X98200000Y-91100000D01*
X98200000Y-91100000D02*
X98300000Y-91100000D01*
X98300000Y-91100000D02*
X98300000Y-92300000D01*
X98300000Y-92300000D02*
X98200000Y-92300000D01*
X98200000Y-92300000D02*
X95800000Y-92300000D01*
X103500000Y-88800000D02*
X103600000Y-88800000D01*
X103600000Y-88800000D02*
X103600000Y-90000000D01*
X103600000Y-90000000D02*
X101100000Y-90000000D01*
X101100000Y-90000000D02*
X101000000Y-90000000D01*
X101000000Y-90000000D02*
X101000000Y-88800000D01*
X101000000Y-88800000D02*
X101100000Y-88800000D01*
X101100000Y-88800000D02*
X103500000Y-88800000D01*
X95800000Y-90000000D02*
X95700000Y-90000000D01*
X95700000Y-90000000D02*
X95700000Y-88800000D01*
X95700000Y-88800000D02*
X98200000Y-88800000D01*
X98200000Y-88800000D02*
X98300000Y-88800000D01*
X98300000Y-88800000D02*
X98300000Y-90000000D01*
X98300000Y-90000000D02*
X98200000Y-90000000D01*
X98200000Y-90000000D02*
X95800000Y-90000000D01*
X28810000Y-41430000D02*
X28810000Y-49050000D01*
X28810000Y-49050000D02*
X33890000Y-49050000D01*
X33890000Y-49050000D02*
X33890000Y-38890000D01*
X33890000Y-38890000D02*
X31350000Y-38890000D01*
X30080000Y-38610000D02*
X28530000Y-38610000D01*
X31350000Y-38890000D02*
X31350000Y-41430000D01*
X31350000Y-41430000D02*
X28810000Y-41430000D01*
X28530000Y-38610000D02*
X28530000Y-40160000D01*
X28810000Y-51590000D02*
X28810000Y-59210000D01*
X28810000Y-59210000D02*
X33890000Y-59210000D01*
X33890000Y-59210000D02*
X33890000Y-49050000D01*
X33890000Y-49050000D02*
X31350000Y-49050000D01*
X30080000Y-48770000D02*
X28530000Y-48770000D01*
X31350000Y-49050000D02*
X31350000Y-51590000D01*
X31350000Y-51590000D02*
X28810000Y-51590000D01*
X28530000Y-48770000D02*
X28530000Y-50320000D01*
X28810000Y-61750000D02*
X28810000Y-69370000D01*
X28810000Y-69370000D02*
X33890000Y-69370000D01*
X33890000Y-69370000D02*
X33890000Y-59210000D01*
X33890000Y-59210000D02*
X31350000Y-59210000D01*
X30080000Y-58930000D02*
X28530000Y-58930000D01*
X31350000Y-59210000D02*
X31350000Y-61750000D01*
X31350000Y-61750000D02*
X28810000Y-61750000D01*
X28530000Y-58930000D02*
X28530000Y-60480000D01*
X28810000Y-71910000D02*
X28810000Y-79530000D01*
X28810000Y-79530000D02*
X33890000Y-79530000D01*
X33890000Y-79530000D02*
X33890000Y-69370000D01*
X33890000Y-69370000D02*
X31350000Y-69370000D01*
X30080000Y-69090000D02*
X28530000Y-69090000D01*
X31350000Y-69370000D02*
X31350000Y-71910000D01*
X31350000Y-71910000D02*
X28810000Y-71910000D01*
X28530000Y-69090000D02*
X28530000Y-70640000D01*
X28810000Y-82070000D02*
X28810000Y-89690000D01*
X28810000Y-89690000D02*
X33890000Y-89690000D01*
X33890000Y-89690000D02*
X33890000Y-79530000D01*
X33890000Y-79530000D02*
X31350000Y-79530000D01*
X30080000Y-79250000D02*
X28530000Y-79250000D01*
X31350000Y-79530000D02*
X31350000Y-82070000D01*
X31350000Y-82070000D02*
X28810000Y-82070000D01*
X28530000Y-79250000D02*
X28530000Y-80800000D01*
X28810000Y-92230000D02*
X28810000Y-99850000D01*
X28810000Y-99850000D02*
X33890000Y-99850000D01*
X33890000Y-99850000D02*
X33890000Y-89690000D01*
X33890000Y-89690000D02*
X31350000Y-89690000D01*
X30080000Y-89410000D02*
X28530000Y-89410000D01*
X31350000Y-89690000D02*
X31350000Y-92230000D01*
X31350000Y-92230000D02*
X28810000Y-92230000D01*
X28530000Y-89410000D02*
X28530000Y-90960000D01*
X28810000Y-102390000D02*
X28810000Y-110010000D01*
X28810000Y-110010000D02*
X33890000Y-110010000D01*
X33890000Y-110010000D02*
X33890000Y-99850000D01*
X33890000Y-99850000D02*
X31350000Y-99850000D01*
X30080000Y-99570000D02*
X28530000Y-99570000D01*
X31350000Y-99850000D02*
X31350000Y-102390000D01*
X31350000Y-102390000D02*
X28810000Y-102390000D01*
X28530000Y-99570000D02*
X28530000Y-101120000D01*
X28810000Y-112550000D02*
X28810000Y-120170000D01*
X28810000Y-120170000D02*
X33890000Y-120170000D01*
X33890000Y-120170000D02*
X33890000Y-110010000D01*
X33890000Y-110010000D02*
X31350000Y-110010000D01*
X30080000Y-109730000D02*
X28530000Y-109730000D01*
X31350000Y-110010000D02*
X31350000Y-112550000D01*
X31350000Y-112550000D02*
X28810000Y-112550000D01*
X28530000Y-109730000D02*
X28530000Y-111280000D01*
X36430000Y-127790000D02*
X44050000Y-127790000D01*
X44050000Y-127790000D02*
X44050000Y-122710000D01*
X44050000Y-122710000D02*
X33890000Y-122710000D01*
X33890000Y-122710000D02*
X33890000Y-125250000D01*
X33610000Y-126520000D02*
X33610000Y-128070000D01*
X33890000Y-125250000D02*
X36430000Y-125250000D01*
X36430000Y-125250000D02*
X36430000Y-127790000D01*
X33610000Y-128070000D02*
X35160000Y-128070000D01*
X56750000Y-127790000D02*
X64370000Y-127790000D01*
X64370000Y-127790000D02*
X64370000Y-122710000D01*
X64370000Y-122710000D02*
X54210000Y-122710000D01*
X54210000Y-122710000D02*
X54210000Y-125250000D01*
X53930000Y-126520000D02*
X53930000Y-128070000D01*
X54210000Y-125250000D02*
X56750000Y-125250000D01*
X56750000Y-125250000D02*
X56750000Y-127790000D01*
X53930000Y-128070000D02*
X55480000Y-128070000D01*
X66910000Y-127790000D02*
X74530000Y-127790000D01*
X74530000Y-127790000D02*
X74530000Y-122710000D01*
X74530000Y-122710000D02*
X64370000Y-122710000D01*
X64370000Y-122710000D02*
X64370000Y-125250000D01*
X64090000Y-126520000D02*
X64090000Y-128070000D01*
X64370000Y-125250000D02*
X66910000Y-125250000D01*
X66910000Y-125250000D02*
X66910000Y-127790000D01*
X64090000Y-128070000D02*
X65640000Y-128070000D01*
X77070000Y-127790000D02*
X84690000Y-127790000D01*
X84690000Y-127790000D02*
X84690000Y-122710000D01*
X84690000Y-122710000D02*
X74530000Y-122710000D01*
X74530000Y-122710000D02*
X74530000Y-125250000D01*
X74250000Y-126520000D02*
X74250000Y-128070000D01*
X74530000Y-125250000D02*
X77070000Y-125250000D01*
X77070000Y-125250000D02*
X77070000Y-127790000D01*
X74250000Y-128070000D02*
X75800000Y-128070000D01*
X87230000Y-127790000D02*
X94850000Y-127790000D01*
X94850000Y-127790000D02*
X94850000Y-122710000D01*
X94850000Y-122710000D02*
X84690000Y-122710000D01*
X84690000Y-122710000D02*
X84690000Y-125250000D01*
X84410000Y-126520000D02*
X84410000Y-128070000D01*
X84690000Y-125250000D02*
X87230000Y-125250000D01*
X87230000Y-125250000D02*
X87230000Y-127790000D01*
X84410000Y-128070000D02*
X85960000Y-128070000D01*
X97390000Y-127790000D02*
X105010000Y-127790000D01*
X105010000Y-127790000D02*
X105010000Y-122710000D01*
X105010000Y-122710000D02*
X94850000Y-122710000D01*
X94850000Y-122710000D02*
X94850000Y-125250000D01*
X94570000Y-126520000D02*
X94570000Y-128070000D01*
X94850000Y-125250000D02*
X97390000Y-125250000D01*
X97390000Y-125250000D02*
X97390000Y-127790000D01*
X94570000Y-128070000D02*
X96120000Y-128070000D01*
X107550000Y-127790000D02*
X115170000Y-127790000D01*
X115170000Y-127790000D02*
X115170000Y-122710000D01*
X115170000Y-122710000D02*
X105010000Y-122710000D01*
X105010000Y-122710000D02*
X105010000Y-125250000D01*
X104730000Y-126520000D02*
X104730000Y-128070000D01*
X105010000Y-125250000D02*
X107550000Y-125250000D01*
X107550000Y-125250000D02*
X107550000Y-127790000D01*
X104730000Y-128070000D02*
X106280000Y-128070000D01*
X122790000Y-117630000D02*
X122790000Y-110010000D01*
X122790000Y-110010000D02*
X117710000Y-110010000D01*
X117710000Y-110010000D02*
X117710000Y-120170000D01*
X117710000Y-120170000D02*
X120250000Y-120170000D01*
X121520000Y-120450000D02*
X123070000Y-120450000D01*
X120250000Y-120170000D02*
X120250000Y-117630000D01*
X120250000Y-117630000D02*
X122790000Y-117630000D01*
X123070000Y-120450000D02*
X123070000Y-118900000D01*
X122790000Y-107470000D02*
X122790000Y-99850000D01*
X122790000Y-99850000D02*
X117710000Y-99850000D01*
X117710000Y-99850000D02*
X117710000Y-110010000D01*
X117710000Y-110010000D02*
X120250000Y-110010000D01*
X121520000Y-110290000D02*
X123070000Y-110290000D01*
X120250000Y-110010000D02*
X120250000Y-107470000D01*
X120250000Y-107470000D02*
X122790000Y-107470000D01*
X123070000Y-110290000D02*
X123070000Y-108740000D01*
X122790000Y-97310000D02*
X122790000Y-89690000D01*
X122790000Y-89690000D02*
X117710000Y-89690000D01*
X117710000Y-89690000D02*
X117710000Y-99850000D01*
X117710000Y-99850000D02*
X120250000Y-99850000D01*
X121520000Y-100130000D02*
X123070000Y-100130000D01*
X120250000Y-99850000D02*
X120250000Y-97310000D01*
X120250000Y-97310000D02*
X122790000Y-97310000D01*
X123070000Y-100130000D02*
X123070000Y-98580000D01*
X122790000Y-87150000D02*
X122790000Y-79530000D01*
X122790000Y-79530000D02*
X117710000Y-79530000D01*
X117710000Y-79530000D02*
X117710000Y-89690000D01*
X117710000Y-89690000D02*
X120250000Y-89690000D01*
X121520000Y-89970000D02*
X123070000Y-89970000D01*
X120250000Y-89690000D02*
X120250000Y-87150000D01*
X120250000Y-87150000D02*
X122790000Y-87150000D01*
X123070000Y-89970000D02*
X123070000Y-88420000D01*
X122790000Y-76990000D02*
X122790000Y-69370000D01*
X122790000Y-69370000D02*
X117710000Y-69370000D01*
X117710000Y-69370000D02*
X117710000Y-79530000D01*
X117710000Y-79530000D02*
X120250000Y-79530000D01*
X121520000Y-79810000D02*
X123070000Y-79810000D01*
X120250000Y-79530000D02*
X120250000Y-76990000D01*
X120250000Y-76990000D02*
X122790000Y-76990000D01*
X123070000Y-79810000D02*
X123070000Y-78260000D01*
X122790000Y-66830000D02*
X122790000Y-59210000D01*
X122790000Y-59210000D02*
X117710000Y-59210000D01*
X117710000Y-59210000D02*
X117710000Y-69370000D01*
X117710000Y-69370000D02*
X120250000Y-69370000D01*
X121520000Y-69650000D02*
X123070000Y-69650000D01*
X120250000Y-69370000D02*
X120250000Y-66830000D01*
X120250000Y-66830000D02*
X122790000Y-66830000D01*
X123070000Y-69650000D02*
X123070000Y-68100000D01*
X122790000Y-56670000D02*
X122790000Y-49050000D01*
X122790000Y-49050000D02*
X117710000Y-49050000D01*
X117710000Y-49050000D02*
X117710000Y-59210000D01*
X117710000Y-59210000D02*
X120250000Y-59210000D01*
X121520000Y-59490000D02*
X123070000Y-59490000D01*
X120250000Y-59210000D02*
X120250000Y-56670000D01*
X120250000Y-56670000D02*
X122790000Y-56670000D01*
X123070000Y-59490000D02*
X123070000Y-57940000D01*
X122790000Y-46510000D02*
X122790000Y-38890000D01*
X122790000Y-38890000D02*
X117710000Y-38890000D01*
X117710000Y-38890000D02*
X117710000Y-49050000D01*
X117710000Y-49050000D02*
X120250000Y-49050000D01*
X121520000Y-49330000D02*
X123070000Y-49330000D01*
X120250000Y-49050000D02*
X120250000Y-46510000D01*
X120250000Y-46510000D02*
X122790000Y-46510000D01*
X123070000Y-49330000D02*
X123070000Y-47780000D01*
X48200000Y-45675000D02*
X47200000Y-45675000D01*
X47200000Y-44325000D02*
X48200000Y-44325000D01*
X60000000Y-45025000D02*
X61000000Y-45025000D01*
X61000000Y-46375000D02*
X60000000Y-46375000D01*
X60000000Y-48725000D02*
X61000000Y-48725000D01*
X61000000Y-50075000D02*
X60000000Y-50075000D01*
X48200000Y-50175000D02*
X47200000Y-50175000D01*
X47200000Y-48825000D02*
X48200000Y-48825000D01*
X111400000Y-34425000D02*
X112400000Y-34425000D01*
X112400000Y-35775000D02*
X111400000Y-35775000D01*
X41100000Y-45025000D02*
X42100000Y-45025000D01*
X42100000Y-46375000D02*
X41100000Y-46375000D01*
X36900000Y-47125000D02*
X37900000Y-47125000D01*
X37900000Y-48475000D02*
X36900000Y-48475000D01*
X41000000Y-54325000D02*
X42000000Y-54325000D01*
X42000000Y-55675000D02*
X41000000Y-55675000D01*
X37000000Y-57225000D02*
X38000000Y-57225000D01*
X38000000Y-58575000D02*
X37000000Y-58575000D01*
X41000000Y-64925000D02*
X42000000Y-64925000D01*
X42000000Y-66275000D02*
X41000000Y-66275000D01*
X37000000Y-67425000D02*
X38000000Y-67425000D01*
X38000000Y-68775000D02*
X37000000Y-68775000D01*
X41000000Y-75025000D02*
X42000000Y-75025000D01*
X42000000Y-76375000D02*
X41000000Y-76375000D01*
X37000000Y-77625000D02*
X38000000Y-77625000D01*
X38000000Y-78975000D02*
X37000000Y-78975000D01*
X41000000Y-85225000D02*
X42000000Y-85225000D01*
X42000000Y-86575000D02*
X41000000Y-86575000D01*
X36900000Y-87725000D02*
X37900000Y-87725000D01*
X37900000Y-89075000D02*
X36900000Y-89075000D01*
X41000000Y-95325000D02*
X42000000Y-95325000D01*
X42000000Y-96675000D02*
X41000000Y-96675000D01*
X36900000Y-97925000D02*
X37900000Y-97925000D01*
X37900000Y-99275000D02*
X36900000Y-99275000D01*
X41000000Y-104025000D02*
X42000000Y-104025000D01*
X42000000Y-105375000D02*
X41000000Y-105375000D01*
X37000000Y-106325000D02*
X38000000Y-106325000D01*
X38000000Y-107675000D02*
X37000000Y-107675000D01*
X41000000Y-108325000D02*
X42000000Y-108325000D01*
X42000000Y-109675000D02*
X41000000Y-109675000D01*
X36900000Y-110325000D02*
X37900000Y-110325000D01*
X37900000Y-111675000D02*
X36900000Y-111675000D01*
X39525000Y-115400000D02*
X39525000Y-114400000D01*
X40875000Y-114400000D02*
X40875000Y-115400000D01*
X42125000Y-119500000D02*
X42125000Y-118500000D01*
X43475000Y-118500000D02*
X43475000Y-119500000D01*
X49725000Y-115400000D02*
X49725000Y-114400000D01*
X51075000Y-114400000D02*
X51075000Y-115400000D01*
X52225000Y-119500000D02*
X52225000Y-118500000D01*
X53575000Y-118500000D02*
X53575000Y-119500000D01*
X59825000Y-115300000D02*
X59825000Y-114300000D01*
X61175000Y-114300000D02*
X61175000Y-115300000D01*
X62425000Y-119400000D02*
X62425000Y-118400000D01*
X63775000Y-118400000D02*
X63775000Y-119400000D01*
X70025000Y-115400000D02*
X70025000Y-114400000D01*
X71375000Y-114400000D02*
X71375000Y-115400000D01*
X72525000Y-119500000D02*
X72525000Y-118500000D01*
X73875000Y-118500000D02*
X73875000Y-119500000D01*
X80125000Y-115400000D02*
X80125000Y-114400000D01*
X81475000Y-114400000D02*
X81475000Y-115400000D01*
X82725000Y-119500000D02*
X82725000Y-118500000D01*
X84075000Y-118500000D02*
X84075000Y-119500000D01*
X90325000Y-115500000D02*
X90325000Y-114500000D01*
X91675000Y-114500000D02*
X91675000Y-115500000D01*
X92825000Y-119500000D02*
X92825000Y-118500000D01*
X94175000Y-118500000D02*
X94175000Y-119500000D01*
X100025000Y-115400000D02*
X100025000Y-114400000D01*
X101375000Y-114400000D02*
X101375000Y-115400000D01*
X102225000Y-119500000D02*
X102225000Y-118500000D01*
X103575000Y-118500000D02*
X103575000Y-119500000D01*
X104425000Y-115500000D02*
X104425000Y-114500000D01*
X105775000Y-114500000D02*
X105775000Y-115500000D01*
X106425000Y-119500000D02*
X106425000Y-118500000D01*
X107775000Y-118500000D02*
X107775000Y-119500000D01*
X110400000Y-114475000D02*
X109400000Y-114475000D01*
X109400000Y-113125000D02*
X110400000Y-113125000D01*
X114500000Y-111975000D02*
X113500000Y-111975000D01*
X113500000Y-110625000D02*
X114500000Y-110625000D01*
X110500000Y-104275000D02*
X109500000Y-104275000D01*
X109500000Y-102925000D02*
X110500000Y-102925000D01*
X114700000Y-101775000D02*
X113700000Y-101775000D01*
X113700000Y-100425000D02*
X114700000Y-100425000D01*
X110400000Y-94175000D02*
X109400000Y-94175000D01*
X109400000Y-92825000D02*
X110400000Y-92825000D01*
X114600000Y-91575000D02*
X113600000Y-91575000D01*
X113600000Y-90225000D02*
X114600000Y-90225000D01*
X110400000Y-83975000D02*
X109400000Y-83975000D01*
X109400000Y-82625000D02*
X110400000Y-82625000D01*
X114600000Y-81475000D02*
X113600000Y-81475000D01*
X113600000Y-80125000D02*
X114600000Y-80125000D01*
X110400000Y-73875000D02*
X109400000Y-73875000D01*
X109400000Y-72525000D02*
X110400000Y-72525000D01*
X114600000Y-71275000D02*
X113600000Y-71275000D01*
X113600000Y-69925000D02*
X114600000Y-69925000D01*
X110400000Y-63675000D02*
X109400000Y-63675000D01*
X109400000Y-62325000D02*
X110400000Y-62325000D01*
X114600000Y-61175000D02*
X113600000Y-61175000D01*
X113600000Y-59825000D02*
X114600000Y-59825000D01*
X110400000Y-53575000D02*
X109400000Y-53575000D01*
X109400000Y-52225000D02*
X110400000Y-52225000D01*
X114600000Y-50975000D02*
X113600000Y-50975000D01*
X113600000Y-49625000D02*
X114600000Y-49625000D01*
X110400000Y-43375000D02*
X109400000Y-43375000D01*
X109400000Y-42025000D02*
X110400000Y-42025000D01*
X114600000Y-40875000D02*
X113600000Y-40875000D01*
X113600000Y-39525000D02*
X114600000Y-39525000D01*
X85643000Y-35257000D02*
G75*
G03X83357000Y-35257000I-1143000J-1143000D01*
G01*
X83357000Y-37543000D02*
G75*
G03X85643000Y-37543000I1143000J1143000D01*
G01*
X52375000Y-44375000D02*
X52375000Y-44600000D01*
X55625000Y-44375000D02*
X55625000Y-44600000D01*
X55625000Y-47625000D02*
X55625000Y-47400000D01*
X52375000Y-47625000D02*
X52375000Y-47400000D01*
X52375000Y-44375000D02*
X55625000Y-44375000D01*
X52375000Y-47625000D02*
X55625000Y-47625000D01*
X52375000Y-44600000D02*
X51300000Y-44600000D01*
X47675000Y-75975000D02*
X47675000Y-76000000D01*
X52325000Y-75975000D02*
X52325000Y-76000000D01*
X52325000Y-84025000D02*
X52325000Y-84000000D01*
X47675000Y-84025000D02*
X47675000Y-84000000D01*
X47675000Y-75975000D02*
X52325000Y-75975000D01*
X47675000Y-84025000D02*
X52325000Y-84025000D01*
X47675000Y-76000000D02*
X46600000Y-76000000D01*
X70975000Y-107325000D02*
X71000000Y-107325000D01*
X70975000Y-102675000D02*
X71000000Y-102675000D01*
X79025000Y-102675000D02*
X79000000Y-102675000D01*
X79025000Y-107325000D02*
X79000000Y-107325000D01*
X70975000Y-107325000D02*
X70975000Y-102675000D01*
X79025000Y-107325000D02*
X79025000Y-102675000D01*
X71000000Y-107325000D02*
X71000000Y-108400000D01*
X102325000Y-84025000D02*
X102325000Y-84000000D01*
X97675000Y-84025000D02*
X97675000Y-84000000D01*
X97675000Y-75975000D02*
X97675000Y-76000000D01*
X102325000Y-75975000D02*
X102325000Y-76000000D01*
X102325000Y-84025000D02*
X97675000Y-84025000D01*
X102325000Y-75975000D02*
X97675000Y-75975000D01*
X102325000Y-84000000D02*
X103400000Y-84000000D01*
X51670000Y-38890000D02*
X59290000Y-38890000D01*
X59290000Y-38890000D02*
X59290000Y-33810000D01*
X59290000Y-33810000D02*
X49130000Y-33810000D01*
X49130000Y-33810000D02*
X49130000Y-36350000D01*
X48850000Y-37620000D02*
X48850000Y-39170000D01*
X49130000Y-36350000D02*
X51670000Y-36350000D01*
X51670000Y-36350000D02*
X51670000Y-38890000D01*
X48850000Y-39170000D02*
X50400000Y-39170000D01*
X46590000Y-127790000D02*
X54210000Y-127790000D01*
X54210000Y-127790000D02*
X54210000Y-122710000D01*
X54210000Y-122710000D02*
X44050000Y-122710000D01*
X44050000Y-122710000D02*
X44050000Y-125250000D01*
X43770000Y-126520000D02*
X43770000Y-128070000D01*
X44050000Y-125250000D02*
X46590000Y-125250000D01*
X46590000Y-125250000D02*
X46590000Y-127790000D01*
X43770000Y-128070000D02*
X45320000Y-128070000D01*
X94850000Y-33810000D02*
X107550000Y-33810000D01*
X107550000Y-33810000D02*
X107550000Y-38890000D01*
X107550000Y-38890000D02*
X97390000Y-38890000D01*
X94850000Y-33810000D02*
X94850000Y-36350000D01*
X94570000Y-37620000D02*
X94570000Y-39170000D01*
X94850000Y-36350000D02*
X97390000Y-36350000D01*
X97390000Y-36350000D02*
X97390000Y-38890000D01*
X94570000Y-39170000D02*
X96120000Y-39170000D01*
X55550000Y-43300000D02*
X54850000Y-43300000D01*
X54850000Y-42100000D02*
X55550000Y-42100000D01*
X52250000Y-75000000D02*
X51550000Y-75000000D01*
X51550000Y-73800000D02*
X52250000Y-73800000D01*
X70400000Y-102750000D02*
X70400000Y-103450000D01*
X69200000Y-103450000D02*
X69200000Y-102750000D01*
X97750000Y-84600000D02*
X98450000Y-84600000D01*
X98450000Y-85800000D02*
X97750000Y-85800000D01*
D14*
G36*
X94675167Y-105111926D02*
X94860128Y-105223686D01*
X94967815Y-105318207D01*
X94968548Y-105319366D01*
X94958198Y-105430585D01*
X94882927Y-105644953D01*
X94758842Y-105916931D01*
X94753197Y-105928156D01*
X94601010Y-106289963D01*
X94525830Y-106646216D01*
X94527716Y-107036308D01*
X94606727Y-107499634D01*
X94756373Y-108053833D01*
X94861300Y-108383813D01*
X94944657Y-108581607D01*
X95025629Y-108679387D01*
X95123399Y-108709322D01*
X95147670Y-108710000D01*
X95279617Y-108721071D01*
X95368721Y-108777861D01*
X95438909Y-108915733D01*
X95514103Y-109170053D01*
X95548387Y-109302321D01*
X95616799Y-109552255D01*
X95670132Y-109663799D01*
X95732301Y-109663345D01*
X95811677Y-109592894D01*
X95822850Y-109569554D01*
X96651283Y-109569554D01*
X96708828Y-109755795D01*
X96848672Y-109816429D01*
X97043574Y-109738563D01*
X97222535Y-109558396D01*
X97681712Y-109558396D01*
X97688385Y-109589454D01*
X97804423Y-109706555D01*
X97971528Y-109707787D01*
X98121258Y-109597250D01*
X98143021Y-109562233D01*
X98224960Y-109293427D01*
X98184486Y-109061862D01*
X98112465Y-108971303D01*
X98017057Y-108935727D01*
X97915000Y-109016263D01*
X97815126Y-109163056D01*
X97712747Y-109380233D01*
X97681712Y-109558396D01*
X97222535Y-109558396D01*
X97250950Y-109529790D01*
X97394729Y-109299429D01*
X97480905Y-109082793D01*
X97488092Y-109042957D01*
X97474136Y-108888810D01*
X97354357Y-108822169D01*
X97273046Y-108809715D01*
X97021289Y-108830552D01*
X96840806Y-108975712D01*
X96704407Y-109267189D01*
X96703279Y-109270598D01*
X96651283Y-109569554D01*
X95822850Y-109569554D01*
X95900006Y-109408381D01*
X95940032Y-109119951D01*
X95934416Y-108785171D01*
X95885815Y-108461609D01*
X95796888Y-108206830D01*
X95744088Y-108129586D01*
X95646905Y-107988315D01*
X95643771Y-107835651D01*
X95658545Y-107788017D01*
X96003876Y-107788017D01*
X96046261Y-108032145D01*
X96120976Y-108217044D01*
X96209044Y-108286667D01*
X96293331Y-108216639D01*
X96369846Y-108070142D01*
X96404353Y-107893375D01*
X96346574Y-107712159D01*
X96251026Y-107557609D01*
X96049883Y-107261600D01*
X96008898Y-107540844D01*
X96003876Y-107788017D01*
X95658545Y-107788017D01*
X95692649Y-107678064D01*
X95748744Y-107452440D01*
X95721839Y-107241652D01*
X95658077Y-107069261D01*
X95642270Y-107027635D01*
X95949996Y-107027635D01*
X96003766Y-107132211D01*
X96078967Y-107116677D01*
X96170607Y-106992736D01*
X96247984Y-106814619D01*
X96280333Y-106643711D01*
X96273154Y-106535395D01*
X96217228Y-106546559D01*
X96114000Y-106635667D01*
X95975771Y-106829948D01*
X95949996Y-107027635D01*
X95642270Y-107027635D01*
X95579737Y-106862973D01*
X95576147Y-106726547D01*
X95661332Y-106586377D01*
X95775432Y-106453285D01*
X95928562Y-106262233D01*
X96018962Y-106117275D01*
X96029333Y-106082387D01*
X96083599Y-106003657D01*
X96200246Y-106014193D01*
X96310043Y-106096715D01*
X96340895Y-106160164D01*
X96432487Y-106279187D01*
X96544635Y-106277289D01*
X96651455Y-106255288D01*
X96693052Y-106282945D01*
X96668293Y-106391658D01*
X96576043Y-106612828D01*
X96528628Y-106720293D01*
X96424375Y-106992572D01*
X96401560Y-107180662D01*
X96442146Y-107323722D01*
X96543523Y-107493272D01*
X96614132Y-107502400D01*
X96648298Y-107358149D01*
X96641127Y-107076840D01*
X96631990Y-106780985D01*
X96671613Y-106602558D01*
X96742041Y-106514442D01*
X96884384Y-106440567D01*
X96944119Y-106498244D01*
X96904543Y-106663046D01*
X96878988Y-106714749D01*
X96815574Y-106923464D01*
X96839273Y-107099242D01*
X96940241Y-107184550D01*
X96959622Y-107186000D01*
X97011801Y-107117394D01*
X97003770Y-106995500D01*
X96996417Y-106769257D01*
X97084647Y-106644772D01*
X97245132Y-106650570D01*
X97274362Y-106664636D01*
X97498695Y-106807291D01*
X97587985Y-106943222D01*
X97540728Y-107102159D01*
X97355419Y-107313830D01*
X97235817Y-107425830D01*
X96982707Y-107684782D01*
X96761679Y-107960600D01*
X96638882Y-108159667D01*
X96531708Y-108428693D01*
X96451936Y-108713106D01*
X96407364Y-108968823D01*
X96405788Y-109151763D01*
X96451666Y-109218000D01*
X96529587Y-109150307D01*
X96537333Y-109102418D01*
X96586478Y-108959923D01*
X96705487Y-108773163D01*
X96712811Y-108763751D01*
X96951085Y-108582636D01*
X97235933Y-108545365D01*
X97508154Y-108655116D01*
X97592088Y-108697519D01*
X97684367Y-108682380D01*
X97744438Y-108639776D01*
X98179493Y-108639776D01*
X98249076Y-108793614D01*
X98287208Y-108861492D01*
X98448511Y-109062716D01*
X98607206Y-109096924D01*
X98758340Y-108963233D01*
X98768673Y-108947301D01*
X98807843Y-108768250D01*
X98771596Y-108549502D01*
X98680440Y-108369852D01*
X98603316Y-108311968D01*
X98476035Y-108337811D01*
X98321191Y-108434231D01*
X98201705Y-108542944D01*
X98179493Y-108639776D01*
X97744438Y-108639776D01*
X97812668Y-108591386D01*
X98004671Y-108406222D01*
X98211925Y-108189449D01*
X98458156Y-107937354D01*
X98666355Y-107740596D01*
X98806567Y-107626697D01*
X98843365Y-107609333D01*
X98932928Y-107649693D01*
X99147723Y-107762703D01*
X99466390Y-107936254D01*
X99867567Y-108158239D01*
X100329890Y-108416552D01*
X100831999Y-108699084D01*
X101352531Y-108993728D01*
X101870125Y-109288377D01*
X102363418Y-109570924D01*
X102811049Y-109829261D01*
X103191656Y-110051280D01*
X103483876Y-110224875D01*
X103666348Y-110337938D01*
X103707207Y-110366026D01*
X103717046Y-110388240D01*
X103677050Y-110407546D01*
X103576881Y-110424145D01*
X103406197Y-110438239D01*
X103154659Y-110450027D01*
X102811928Y-110459712D01*
X102367663Y-110467494D01*
X101811525Y-110473575D01*
X101133174Y-110478155D01*
X100322270Y-110481436D01*
X99368472Y-110483619D01*
X98261443Y-110484905D01*
X97574500Y-110485307D01*
X96559465Y-110485258D01*
X95595214Y-110484272D01*
X94694902Y-110482419D01*
X93871685Y-110479771D01*
X93138715Y-110476401D01*
X92509149Y-110472378D01*
X91996141Y-110467776D01*
X91612845Y-110462665D01*
X91372417Y-110457117D01*
X91288011Y-110451203D01*
X91288000Y-110451131D01*
X91328913Y-110371111D01*
X91444213Y-110164469D01*
X91622737Y-109850718D01*
X91853325Y-109449371D01*
X92084228Y-109050117D01*
X95115040Y-109050117D01*
X95130252Y-109146430D01*
X95197730Y-109367115D01*
X95289770Y-109540182D01*
X95378220Y-109619347D01*
X95411963Y-109609592D01*
X95414090Y-109513586D01*
X95376726Y-109315305D01*
X95354301Y-109226546D01*
X95269841Y-108999680D01*
X95185011Y-108888645D01*
X95125011Y-108902454D01*
X95115040Y-109050117D01*
X92084228Y-109050117D01*
X92124814Y-108979941D01*
X92413982Y-108482631D01*
X92745255Y-107913664D01*
X93074977Y-107346147D01*
X93385297Y-106810900D01*
X93658361Y-106338741D01*
X93876315Y-105960487D01*
X93986186Y-105768694D01*
X94432406Y-104986389D01*
X94675167Y-105111926D01*
X94675167Y-105111926D01*
G37*
X94675167Y-105111926D02*
X94860128Y-105223686D01*
X94967815Y-105318207D01*
X94968548Y-105319366D01*
X94958198Y-105430585D01*
X94882927Y-105644953D01*
X94758842Y-105916931D01*
X94753197Y-105928156D01*
X94601010Y-106289963D01*
X94525830Y-106646216D01*
X94527716Y-107036308D01*
X94606727Y-107499634D01*
X94756373Y-108053833D01*
X94861300Y-108383813D01*
X94944657Y-108581607D01*
X95025629Y-108679387D01*
X95123399Y-108709322D01*
X95147670Y-108710000D01*
X95279617Y-108721071D01*
X95368721Y-108777861D01*
X95438909Y-108915733D01*
X95514103Y-109170053D01*
X95548387Y-109302321D01*
X95616799Y-109552255D01*
X95670132Y-109663799D01*
X95732301Y-109663345D01*
X95811677Y-109592894D01*
X95822850Y-109569554D01*
X96651283Y-109569554D01*
X96708828Y-109755795D01*
X96848672Y-109816429D01*
X97043574Y-109738563D01*
X97222535Y-109558396D01*
X97681712Y-109558396D01*
X97688385Y-109589454D01*
X97804423Y-109706555D01*
X97971528Y-109707787D01*
X98121258Y-109597250D01*
X98143021Y-109562233D01*
X98224960Y-109293427D01*
X98184486Y-109061862D01*
X98112465Y-108971303D01*
X98017057Y-108935727D01*
X97915000Y-109016263D01*
X97815126Y-109163056D01*
X97712747Y-109380233D01*
X97681712Y-109558396D01*
X97222535Y-109558396D01*
X97250950Y-109529790D01*
X97394729Y-109299429D01*
X97480905Y-109082793D01*
X97488092Y-109042957D01*
X97474136Y-108888810D01*
X97354357Y-108822169D01*
X97273046Y-108809715D01*
X97021289Y-108830552D01*
X96840806Y-108975712D01*
X96704407Y-109267189D01*
X96703279Y-109270598D01*
X96651283Y-109569554D01*
X95822850Y-109569554D01*
X95900006Y-109408381D01*
X95940032Y-109119951D01*
X95934416Y-108785171D01*
X95885815Y-108461609D01*
X95796888Y-108206830D01*
X95744088Y-108129586D01*
X95646905Y-107988315D01*
X95643771Y-107835651D01*
X95658545Y-107788017D01*
X96003876Y-107788017D01*
X96046261Y-108032145D01*
X96120976Y-108217044D01*
X96209044Y-108286667D01*
X96293331Y-108216639D01*
X96369846Y-108070142D01*
X96404353Y-107893375D01*
X96346574Y-107712159D01*
X96251026Y-107557609D01*
X96049883Y-107261600D01*
X96008898Y-107540844D01*
X96003876Y-107788017D01*
X95658545Y-107788017D01*
X95692649Y-107678064D01*
X95748744Y-107452440D01*
X95721839Y-107241652D01*
X95658077Y-107069261D01*
X95642270Y-107027635D01*
X95949996Y-107027635D01*
X96003766Y-107132211D01*
X96078967Y-107116677D01*
X96170607Y-106992736D01*
X96247984Y-106814619D01*
X96280333Y-106643711D01*
X96273154Y-106535395D01*
X96217228Y-106546559D01*
X96114000Y-106635667D01*
X95975771Y-106829948D01*
X95949996Y-107027635D01*
X95642270Y-107027635D01*
X95579737Y-106862973D01*
X95576147Y-106726547D01*
X95661332Y-106586377D01*
X95775432Y-106453285D01*
X95928562Y-106262233D01*
X96018962Y-106117275D01*
X96029333Y-106082387D01*
X96083599Y-106003657D01*
X96200246Y-106014193D01*
X96310043Y-106096715D01*
X96340895Y-106160164D01*
X96432487Y-106279187D01*
X96544635Y-106277289D01*
X96651455Y-106255288D01*
X96693052Y-106282945D01*
X96668293Y-106391658D01*
X96576043Y-106612828D01*
X96528628Y-106720293D01*
X96424375Y-106992572D01*
X96401560Y-107180662D01*
X96442146Y-107323722D01*
X96543523Y-107493272D01*
X96614132Y-107502400D01*
X96648298Y-107358149D01*
X96641127Y-107076840D01*
X96631990Y-106780985D01*
X96671613Y-106602558D01*
X96742041Y-106514442D01*
X96884384Y-106440567D01*
X96944119Y-106498244D01*
X96904543Y-106663046D01*
X96878988Y-106714749D01*
X96815574Y-106923464D01*
X96839273Y-107099242D01*
X96940241Y-107184550D01*
X96959622Y-107186000D01*
X97011801Y-107117394D01*
X97003770Y-106995500D01*
X96996417Y-106769257D01*
X97084647Y-106644772D01*
X97245132Y-106650570D01*
X97274362Y-106664636D01*
X97498695Y-106807291D01*
X97587985Y-106943222D01*
X97540728Y-107102159D01*
X97355419Y-107313830D01*
X97235817Y-107425830D01*
X96982707Y-107684782D01*
X96761679Y-107960600D01*
X96638882Y-108159667D01*
X96531708Y-108428693D01*
X96451936Y-108713106D01*
X96407364Y-108968823D01*
X96405788Y-109151763D01*
X96451666Y-109218000D01*
X96529587Y-109150307D01*
X96537333Y-109102418D01*
X96586478Y-108959923D01*
X96705487Y-108773163D01*
X96712811Y-108763751D01*
X96951085Y-108582636D01*
X97235933Y-108545365D01*
X97508154Y-108655116D01*
X97592088Y-108697519D01*
X97684367Y-108682380D01*
X97744438Y-108639776D01*
X98179493Y-108639776D01*
X98249076Y-108793614D01*
X98287208Y-108861492D01*
X98448511Y-109062716D01*
X98607206Y-109096924D01*
X98758340Y-108963233D01*
X98768673Y-108947301D01*
X98807843Y-108768250D01*
X98771596Y-108549502D01*
X98680440Y-108369852D01*
X98603316Y-108311968D01*
X98476035Y-108337811D01*
X98321191Y-108434231D01*
X98201705Y-108542944D01*
X98179493Y-108639776D01*
X97744438Y-108639776D01*
X97812668Y-108591386D01*
X98004671Y-108406222D01*
X98211925Y-108189449D01*
X98458156Y-107937354D01*
X98666355Y-107740596D01*
X98806567Y-107626697D01*
X98843365Y-107609333D01*
X98932928Y-107649693D01*
X99147723Y-107762703D01*
X99466390Y-107936254D01*
X99867567Y-108158239D01*
X100329890Y-108416552D01*
X100831999Y-108699084D01*
X101352531Y-108993728D01*
X101870125Y-109288377D01*
X102363418Y-109570924D01*
X102811049Y-109829261D01*
X103191656Y-110051280D01*
X103483876Y-110224875D01*
X103666348Y-110337938D01*
X103707207Y-110366026D01*
X103717046Y-110388240D01*
X103677050Y-110407546D01*
X103576881Y-110424145D01*
X103406197Y-110438239D01*
X103154659Y-110450027D01*
X102811928Y-110459712D01*
X102367663Y-110467494D01*
X101811525Y-110473575D01*
X101133174Y-110478155D01*
X100322270Y-110481436D01*
X99368472Y-110483619D01*
X98261443Y-110484905D01*
X97574500Y-110485307D01*
X96559465Y-110485258D01*
X95595214Y-110484272D01*
X94694902Y-110482419D01*
X93871685Y-110479771D01*
X93138715Y-110476401D01*
X92509149Y-110472378D01*
X91996141Y-110467776D01*
X91612845Y-110462665D01*
X91372417Y-110457117D01*
X91288011Y-110451203D01*
X91288000Y-110451131D01*
X91328913Y-110371111D01*
X91444213Y-110164469D01*
X91622737Y-109850718D01*
X91853325Y-109449371D01*
X92084228Y-109050117D01*
X95115040Y-109050117D01*
X95130252Y-109146430D01*
X95197730Y-109367115D01*
X95289770Y-109540182D01*
X95378220Y-109619347D01*
X95411963Y-109609592D01*
X95414090Y-109513586D01*
X95376726Y-109315305D01*
X95354301Y-109226546D01*
X95269841Y-108999680D01*
X95185011Y-108888645D01*
X95125011Y-108902454D01*
X95115040Y-109050117D01*
X92084228Y-109050117D01*
X92124814Y-108979941D01*
X92413982Y-108482631D01*
X92745255Y-107913664D01*
X93074977Y-107346147D01*
X93385297Y-106810900D01*
X93658361Y-106338741D01*
X93876315Y-105960487D01*
X93986186Y-105768694D01*
X94432406Y-104986389D01*
X94675167Y-105111926D01*
G36*
X101831580Y-105002290D02*
X101879411Y-105079201D01*
X101999838Y-105280265D01*
X102179924Y-105583488D01*
X102406733Y-105966878D01*
X102667330Y-106408445D01*
X102948777Y-106886195D01*
X103238139Y-107378136D01*
X103522480Y-107862276D01*
X103788863Y-108316623D01*
X104024352Y-108719186D01*
X104216012Y-109047971D01*
X104350905Y-109280986D01*
X104415338Y-109394817D01*
X104477812Y-109538352D01*
X104481693Y-109592502D01*
X104404181Y-109557312D01*
X104197734Y-109447524D01*
X103880157Y-109273040D01*
X103469255Y-109043767D01*
X102982835Y-108769608D01*
X102438702Y-108460466D01*
X102147431Y-108294084D01*
X101581186Y-107967768D01*
X101065297Y-107666087D01*
X100617417Y-107399711D01*
X100255199Y-107179311D01*
X99996294Y-107015556D01*
X99858355Y-106919117D01*
X99840265Y-106899498D01*
X99896717Y-106810436D01*
X100048318Y-106636429D01*
X100267085Y-106408771D01*
X100371008Y-106305912D01*
X100629523Y-106035455D01*
X100848812Y-105773032D01*
X100991400Y-105564522D01*
X101013756Y-105519006D01*
X101186283Y-105276164D01*
X101466316Y-105114216D01*
X101678682Y-105036330D01*
X101812243Y-105000732D01*
X101831580Y-105002290D01*
X101831580Y-105002290D01*
G37*
X101831580Y-105002290D02*
X101879411Y-105079201D01*
X101999838Y-105280265D01*
X102179924Y-105583488D01*
X102406733Y-105966878D01*
X102667330Y-106408445D01*
X102948777Y-106886195D01*
X103238139Y-107378136D01*
X103522480Y-107862276D01*
X103788863Y-108316623D01*
X104024352Y-108719186D01*
X104216012Y-109047971D01*
X104350905Y-109280986D01*
X104415338Y-109394817D01*
X104477812Y-109538352D01*
X104481693Y-109592502D01*
X104404181Y-109557312D01*
X104197734Y-109447524D01*
X103880157Y-109273040D01*
X103469255Y-109043767D01*
X102982835Y-108769608D01*
X102438702Y-108460466D01*
X102147431Y-108294084D01*
X101581186Y-107967768D01*
X101065297Y-107666087D01*
X100617417Y-107399711D01*
X100255199Y-107179311D01*
X99996294Y-107015556D01*
X99858355Y-106919117D01*
X99840265Y-106899498D01*
X99896717Y-106810436D01*
X100048318Y-106636429D01*
X100267085Y-106408771D01*
X100371008Y-106305912D01*
X100629523Y-106035455D01*
X100848812Y-105773032D01*
X100991400Y-105564522D01*
X101013756Y-105519006D01*
X101186283Y-105276164D01*
X101466316Y-105114216D01*
X101678682Y-105036330D01*
X101812243Y-105000732D01*
X101831580Y-105002290D01*
G36*
X98209947Y-98789034D02*
X98334290Y-98982561D01*
X98515022Y-99276549D01*
X98738477Y-99647633D01*
X98990991Y-100072449D01*
X99258898Y-100527632D01*
X99528534Y-100989818D01*
X99786232Y-101435641D01*
X100018329Y-101841739D01*
X100211159Y-102184745D01*
X100351057Y-102441295D01*
X100424358Y-102588024D01*
X100432000Y-102611440D01*
X100364057Y-102732191D01*
X100190986Y-102894802D01*
X99958924Y-103065023D01*
X99714007Y-103208606D01*
X99523237Y-103286068D01*
X99334342Y-103324774D01*
X99012269Y-103377093D01*
X98592133Y-103437884D01*
X98109046Y-103502007D01*
X97722666Y-103549655D01*
X97129542Y-103624104D01*
X96679901Y-103692322D01*
X96348492Y-103762295D01*
X96110063Y-103842007D01*
X95939362Y-103939444D01*
X95811137Y-104062591D01*
X95724441Y-104181512D01*
X95588078Y-104341285D01*
X95437155Y-104374270D01*
X95212234Y-104292700D01*
X95203833Y-104288665D01*
X95058683Y-104191919D01*
X95013333Y-104121278D01*
X95054203Y-104030411D01*
X95169125Y-103815250D01*
X95346571Y-103495617D01*
X95575008Y-103091334D01*
X95842907Y-102622223D01*
X96138737Y-102108106D01*
X96450968Y-101568804D01*
X96768070Y-101024139D01*
X97078511Y-100493934D01*
X97370762Y-99998009D01*
X97633293Y-99556188D01*
X97854572Y-99188290D01*
X98023070Y-98914139D01*
X98127255Y-98753557D01*
X98155657Y-98719333D01*
X98209947Y-98789034D01*
X98209947Y-98789034D01*
G37*
X98209947Y-98789034D02*
X98334290Y-98982561D01*
X98515022Y-99276549D01*
X98738477Y-99647633D01*
X98990991Y-100072449D01*
X99258898Y-100527632D01*
X99528534Y-100989818D01*
X99786232Y-101435641D01*
X100018329Y-101841739D01*
X100211159Y-102184745D01*
X100351057Y-102441295D01*
X100424358Y-102588024D01*
X100432000Y-102611440D01*
X100364057Y-102732191D01*
X100190986Y-102894802D01*
X99958924Y-103065023D01*
X99714007Y-103208606D01*
X99523237Y-103286068D01*
X99334342Y-103324774D01*
X99012269Y-103377093D01*
X98592133Y-103437884D01*
X98109046Y-103502007D01*
X97722666Y-103549655D01*
X97129542Y-103624104D01*
X96679901Y-103692322D01*
X96348492Y-103762295D01*
X96110063Y-103842007D01*
X95939362Y-103939444D01*
X95811137Y-104062591D01*
X95724441Y-104181512D01*
X95588078Y-104341285D01*
X95437155Y-104374270D01*
X95212234Y-104292700D01*
X95203833Y-104288665D01*
X95058683Y-104191919D01*
X95013333Y-104121278D01*
X95054203Y-104030411D01*
X95169125Y-103815250D01*
X95346571Y-103495617D01*
X95575008Y-103091334D01*
X95842907Y-102622223D01*
X96138737Y-102108106D01*
X96450968Y-101568804D01*
X96768070Y-101024139D01*
X97078511Y-100493934D01*
X97370762Y-99998009D01*
X97633293Y-99556188D01*
X97854572Y-99188290D01*
X98023070Y-98914139D01*
X98127255Y-98753557D01*
X98155657Y-98719333D01*
X98209947Y-98789034D01*
D15*
X47019000Y-67721810D02*
X47019000Y-68084667D01*
X46997228Y-68157238D01*
X46953685Y-68205619D01*
X46888371Y-68229810D01*
X46844828Y-68229810D01*
X47236714Y-68229810D02*
X47236714Y-67721810D01*
X47410886Y-67721810D01*
X47454428Y-67746000D01*
X47476200Y-67770190D01*
X47497971Y-67818571D01*
X47497971Y-67891143D01*
X47476200Y-67939524D01*
X47454428Y-67963714D01*
X47410886Y-67987905D01*
X47236714Y-67987905D01*
X47933400Y-68229810D02*
X47672143Y-68229810D01*
X47802771Y-68229810D02*
X47802771Y-67721810D01*
X47759228Y-67794381D01*
X47715686Y-67842762D01*
X47672143Y-67866952D01*
X52419000Y-67721810D02*
X52419000Y-68084667D01*
X52397228Y-68157238D01*
X52353685Y-68205619D01*
X52288371Y-68229810D01*
X52244828Y-68229810D01*
X52636714Y-68229810D02*
X52636714Y-67721810D01*
X52810886Y-67721810D01*
X52854428Y-67746000D01*
X52876200Y-67770190D01*
X52897971Y-67818571D01*
X52897971Y-67891143D01*
X52876200Y-67939524D01*
X52854428Y-67963714D01*
X52810886Y-67987905D01*
X52636714Y-67987905D01*
X53072143Y-67770190D02*
X53093914Y-67746000D01*
X53137457Y-67721810D01*
X53246314Y-67721810D01*
X53289857Y-67746000D01*
X53311628Y-67770190D01*
X53333400Y-67818571D01*
X53333400Y-67866952D01*
X53311628Y-67939524D01*
X53050371Y-68229810D01*
X53333400Y-68229810D01*
X47019000Y-65521810D02*
X47019000Y-65884667D01*
X46997228Y-65957238D01*
X46953685Y-66005619D01*
X46888371Y-66029810D01*
X46844828Y-66029810D01*
X47236714Y-66029810D02*
X47236714Y-65521810D01*
X47410886Y-65521810D01*
X47454428Y-65546000D01*
X47476200Y-65570190D01*
X47497971Y-65618571D01*
X47497971Y-65691143D01*
X47476200Y-65739524D01*
X47454428Y-65763714D01*
X47410886Y-65787905D01*
X47236714Y-65787905D01*
X47650371Y-65521810D02*
X47933400Y-65521810D01*
X47781000Y-65715333D01*
X47846314Y-65715333D01*
X47889857Y-65739524D01*
X47911628Y-65763714D01*
X47933400Y-65812095D01*
X47933400Y-65933048D01*
X47911628Y-65981429D01*
X47889857Y-66005619D01*
X47846314Y-66029810D01*
X47715686Y-66029810D01*
X47672143Y-66005619D01*
X47650371Y-65981429D01*
X52419000Y-65521810D02*
X52419000Y-65884667D01*
X52397228Y-65957238D01*
X52353685Y-66005619D01*
X52288371Y-66029810D01*
X52244828Y-66029810D01*
X52636714Y-66029810D02*
X52636714Y-65521810D01*
X52810886Y-65521810D01*
X52854428Y-65546000D01*
X52876200Y-65570190D01*
X52897971Y-65618571D01*
X52897971Y-65691143D01*
X52876200Y-65739524D01*
X52854428Y-65763714D01*
X52810886Y-65787905D01*
X52636714Y-65787905D01*
X53289857Y-65691143D02*
X53289857Y-66029810D01*
X53181000Y-65497619D02*
X53072143Y-65860476D01*
X53355171Y-65860476D01*
X47019000Y-63321810D02*
X47019000Y-63684667D01*
X46997228Y-63757238D01*
X46953685Y-63805619D01*
X46888371Y-63829810D01*
X46844828Y-63829810D01*
X47236714Y-63829810D02*
X47236714Y-63321810D01*
X47410886Y-63321810D01*
X47454428Y-63346000D01*
X47476200Y-63370190D01*
X47497971Y-63418571D01*
X47497971Y-63491143D01*
X47476200Y-63539524D01*
X47454428Y-63563714D01*
X47410886Y-63587905D01*
X47236714Y-63587905D01*
X47911628Y-63321810D02*
X47693914Y-63321810D01*
X47672143Y-63563714D01*
X47693914Y-63539524D01*
X47737457Y-63515333D01*
X47846314Y-63515333D01*
X47889857Y-63539524D01*
X47911628Y-63563714D01*
X47933400Y-63612095D01*
X47933400Y-63733048D01*
X47911628Y-63781429D01*
X47889857Y-63805619D01*
X47846314Y-63829810D01*
X47737457Y-63829810D01*
X47693914Y-63805619D01*
X47672143Y-63781429D01*
X52419000Y-63321810D02*
X52419000Y-63684667D01*
X52397228Y-63757238D01*
X52353685Y-63805619D01*
X52288371Y-63829810D01*
X52244828Y-63829810D01*
X52636714Y-63829810D02*
X52636714Y-63321810D01*
X52810886Y-63321810D01*
X52854428Y-63346000D01*
X52876200Y-63370190D01*
X52897971Y-63418571D01*
X52897971Y-63491143D01*
X52876200Y-63539524D01*
X52854428Y-63563714D01*
X52810886Y-63587905D01*
X52636714Y-63587905D01*
X53289857Y-63321810D02*
X53202771Y-63321810D01*
X53159228Y-63346000D01*
X53137457Y-63370190D01*
X53093914Y-63442762D01*
X53072143Y-63539524D01*
X53072143Y-63733048D01*
X53093914Y-63781429D01*
X53115686Y-63805619D01*
X53159228Y-63829810D01*
X53246314Y-63829810D01*
X53289857Y-63805619D01*
X53311628Y-63781429D01*
X53333400Y-63733048D01*
X53333400Y-63612095D01*
X53311628Y-63563714D01*
X53289857Y-63539524D01*
X53246314Y-63515333D01*
X53159228Y-63515333D01*
X53115686Y-63539524D01*
X53093914Y-63563714D01*
X53072143Y-63612095D01*
X60421810Y-107481000D02*
X60784667Y-107481000D01*
X60857238Y-107502772D01*
X60905619Y-107546315D01*
X60929810Y-107611629D01*
X60929810Y-107655172D01*
X60929810Y-107263286D02*
X60421810Y-107263286D01*
X60421810Y-107089114D01*
X60446000Y-107045572D01*
X60470190Y-107023800D01*
X60518571Y-107002029D01*
X60591143Y-107002029D01*
X60639524Y-107023800D01*
X60663714Y-107045572D01*
X60687905Y-107089114D01*
X60687905Y-107263286D01*
X60421810Y-106849629D02*
X60421810Y-106544829D01*
X60929810Y-106740772D01*
X60321810Y-101981000D02*
X60684667Y-101981000D01*
X60757238Y-102002772D01*
X60805619Y-102046315D01*
X60829810Y-102111629D01*
X60829810Y-102155172D01*
X60829810Y-101763286D02*
X60321810Y-101763286D01*
X60321810Y-101589114D01*
X60346000Y-101545572D01*
X60370190Y-101523800D01*
X60418571Y-101502029D01*
X60491143Y-101502029D01*
X60539524Y-101523800D01*
X60563714Y-101545572D01*
X60587905Y-101589114D01*
X60587905Y-101763286D01*
X60539524Y-101240772D02*
X60515333Y-101284314D01*
X60491143Y-101306086D01*
X60442762Y-101327857D01*
X60418571Y-101327857D01*
X60370190Y-101306086D01*
X60346000Y-101284314D01*
X60321810Y-101240772D01*
X60321810Y-101153686D01*
X60346000Y-101110143D01*
X60370190Y-101088372D01*
X60418571Y-101066600D01*
X60442762Y-101066600D01*
X60491143Y-101088372D01*
X60515333Y-101110143D01*
X60539524Y-101153686D01*
X60539524Y-101240772D01*
X60563714Y-101284314D01*
X60587905Y-101306086D01*
X60636286Y-101327857D01*
X60733048Y-101327857D01*
X60781429Y-101306086D01*
X60805619Y-101284314D01*
X60829810Y-101240772D01*
X60829810Y-101153686D01*
X60805619Y-101110143D01*
X60781429Y-101088372D01*
X60733048Y-101066600D01*
X60636286Y-101066600D01*
X60587905Y-101088372D01*
X60563714Y-101110143D01*
X60539524Y-101153686D01*
X62821810Y-107481000D02*
X63184667Y-107481000D01*
X63257238Y-107502772D01*
X63305619Y-107546315D01*
X63329810Y-107611629D01*
X63329810Y-107655172D01*
X63329810Y-107263286D02*
X62821810Y-107263286D01*
X62821810Y-107089114D01*
X62846000Y-107045572D01*
X62870190Y-107023800D01*
X62918571Y-107002029D01*
X62991143Y-107002029D01*
X63039524Y-107023800D01*
X63063714Y-107045572D01*
X63087905Y-107089114D01*
X63087905Y-107263286D01*
X63329810Y-106784314D02*
X63329810Y-106697229D01*
X63305619Y-106653686D01*
X63281429Y-106631914D01*
X63208857Y-106588372D01*
X63112095Y-106566600D01*
X62918571Y-106566600D01*
X62870190Y-106588372D01*
X62846000Y-106610143D01*
X62821810Y-106653686D01*
X62821810Y-106740772D01*
X62846000Y-106784314D01*
X62870190Y-106806086D01*
X62918571Y-106827857D01*
X63039524Y-106827857D01*
X63087905Y-106806086D01*
X63112095Y-106784314D01*
X63136286Y-106740772D01*
X63136286Y-106653686D01*
X63112095Y-106610143D01*
X63087905Y-106588372D01*
X63039524Y-106566600D01*
X62821810Y-102198714D02*
X63184667Y-102198714D01*
X63257238Y-102220486D01*
X63305619Y-102264029D01*
X63329810Y-102329343D01*
X63329810Y-102372886D01*
X63329810Y-101981000D02*
X62821810Y-101981000D01*
X62821810Y-101806828D01*
X62846000Y-101763286D01*
X62870190Y-101741514D01*
X62918571Y-101719743D01*
X62991143Y-101719743D01*
X63039524Y-101741514D01*
X63063714Y-101763286D01*
X63087905Y-101806828D01*
X63087905Y-101981000D01*
X63329810Y-101284314D02*
X63329810Y-101545571D01*
X63329810Y-101414943D02*
X62821810Y-101414943D01*
X62894381Y-101458486D01*
X62942762Y-101502028D01*
X62966952Y-101545571D01*
X62821810Y-101001285D02*
X62821810Y-100957742D01*
X62846000Y-100914199D01*
X62870190Y-100892428D01*
X62918571Y-100870657D01*
X63015333Y-100848885D01*
X63136286Y-100848885D01*
X63233048Y-100870657D01*
X63281429Y-100892428D01*
X63305619Y-100914199D01*
X63329810Y-100957742D01*
X63329810Y-101001285D01*
X63305619Y-101044828D01*
X63281429Y-101066599D01*
X63233048Y-101088371D01*
X63136286Y-101110142D01*
X63015333Y-101110142D01*
X62918571Y-101088371D01*
X62870190Y-101066599D01*
X62846000Y-101044828D01*
X62821810Y-101001285D01*
X65321810Y-107798714D02*
X65684667Y-107798714D01*
X65757238Y-107820486D01*
X65805619Y-107864029D01*
X65829810Y-107929343D01*
X65829810Y-107972886D01*
X65829810Y-107581000D02*
X65321810Y-107581000D01*
X65321810Y-107406828D01*
X65346000Y-107363286D01*
X65370190Y-107341514D01*
X65418571Y-107319743D01*
X65491143Y-107319743D01*
X65539524Y-107341514D01*
X65563714Y-107363286D01*
X65587905Y-107406828D01*
X65587905Y-107581000D01*
X65829810Y-106884314D02*
X65829810Y-107145571D01*
X65829810Y-107014943D02*
X65321810Y-107014943D01*
X65394381Y-107058486D01*
X65442762Y-107102028D01*
X65466952Y-107145571D01*
X65829810Y-106448885D02*
X65829810Y-106710142D01*
X65829810Y-106579514D02*
X65321810Y-106579514D01*
X65394381Y-106623057D01*
X65442762Y-106666599D01*
X65466952Y-106710142D01*
X65221810Y-102198714D02*
X65584667Y-102198714D01*
X65657238Y-102220486D01*
X65705619Y-102264029D01*
X65729810Y-102329343D01*
X65729810Y-102372886D01*
X65729810Y-101981000D02*
X65221810Y-101981000D01*
X65221810Y-101806828D01*
X65246000Y-101763286D01*
X65270190Y-101741514D01*
X65318571Y-101719743D01*
X65391143Y-101719743D01*
X65439524Y-101741514D01*
X65463714Y-101763286D01*
X65487905Y-101806828D01*
X65487905Y-101981000D01*
X65729810Y-101284314D02*
X65729810Y-101545571D01*
X65729810Y-101414943D02*
X65221810Y-101414943D01*
X65294381Y-101458486D01*
X65342762Y-101502028D01*
X65366952Y-101545571D01*
X65270190Y-101110142D02*
X65246000Y-101088371D01*
X65221810Y-101044828D01*
X65221810Y-100935971D01*
X65246000Y-100892428D01*
X65270190Y-100870657D01*
X65318571Y-100848885D01*
X65366952Y-100848885D01*
X65439524Y-100870657D01*
X65729810Y-101131914D01*
X65729810Y-100848885D01*
X101701286Y-92721810D02*
X101701286Y-93084667D01*
X101679514Y-93157238D01*
X101635971Y-93205619D01*
X101570657Y-93229810D01*
X101527114Y-93229810D01*
X101919000Y-93229810D02*
X101919000Y-92721810D01*
X102093172Y-92721810D01*
X102136714Y-92746000D01*
X102158486Y-92770190D01*
X102180257Y-92818571D01*
X102180257Y-92891143D01*
X102158486Y-92939524D01*
X102136714Y-92963714D01*
X102093172Y-92987905D01*
X101919000Y-92987905D01*
X102615686Y-93229810D02*
X102354429Y-93229810D01*
X102485057Y-93229810D02*
X102485057Y-92721810D01*
X102441514Y-92794381D01*
X102397972Y-92842762D01*
X102354429Y-92866952D01*
X102768086Y-92721810D02*
X103051115Y-92721810D01*
X102898715Y-92915333D01*
X102964029Y-92915333D01*
X103007572Y-92939524D01*
X103029343Y-92963714D01*
X103051115Y-93012095D01*
X103051115Y-93133048D01*
X103029343Y-93181429D01*
X103007572Y-93205619D01*
X102964029Y-93229810D01*
X102833401Y-93229810D01*
X102789858Y-93205619D01*
X102768086Y-93181429D01*
X96301286Y-92721810D02*
X96301286Y-93084667D01*
X96279514Y-93157238D01*
X96235971Y-93205619D01*
X96170657Y-93229810D01*
X96127114Y-93229810D01*
X96519000Y-93229810D02*
X96519000Y-92721810D01*
X96693172Y-92721810D01*
X96736714Y-92746000D01*
X96758486Y-92770190D01*
X96780257Y-92818571D01*
X96780257Y-92891143D01*
X96758486Y-92939524D01*
X96736714Y-92963714D01*
X96693172Y-92987905D01*
X96519000Y-92987905D01*
X97215686Y-93229810D02*
X96954429Y-93229810D01*
X97085057Y-93229810D02*
X97085057Y-92721810D01*
X97041514Y-92794381D01*
X96997972Y-92842762D01*
X96954429Y-92866952D01*
X97607572Y-92891143D02*
X97607572Y-93229810D01*
X97498715Y-92697619D02*
X97389858Y-93060476D01*
X97672886Y-93060476D01*
X101601286Y-90421810D02*
X101601286Y-90784667D01*
X101579514Y-90857238D01*
X101535971Y-90905619D01*
X101470657Y-90929810D01*
X101427114Y-90929810D01*
X101819000Y-90929810D02*
X101819000Y-90421810D01*
X101993172Y-90421810D01*
X102036714Y-90446000D01*
X102058486Y-90470190D01*
X102080257Y-90518571D01*
X102080257Y-90591143D01*
X102058486Y-90639524D01*
X102036714Y-90663714D01*
X101993172Y-90687905D01*
X101819000Y-90687905D01*
X102515686Y-90929810D02*
X102254429Y-90929810D01*
X102385057Y-90929810D02*
X102385057Y-90421810D01*
X102341514Y-90494381D01*
X102297972Y-90542762D01*
X102254429Y-90566952D01*
X102929343Y-90421810D02*
X102711629Y-90421810D01*
X102689858Y-90663714D01*
X102711629Y-90639524D01*
X102755172Y-90615333D01*
X102864029Y-90615333D01*
X102907572Y-90639524D01*
X102929343Y-90663714D01*
X102951115Y-90712095D01*
X102951115Y-90833048D01*
X102929343Y-90881429D01*
X102907572Y-90905619D01*
X102864029Y-90929810D01*
X102755172Y-90929810D01*
X102711629Y-90905619D01*
X102689858Y-90881429D01*
X96401286Y-90321810D02*
X96401286Y-90684667D01*
X96379514Y-90757238D01*
X96335971Y-90805619D01*
X96270657Y-90829810D01*
X96227114Y-90829810D01*
X96619000Y-90829810D02*
X96619000Y-90321810D01*
X96793172Y-90321810D01*
X96836714Y-90346000D01*
X96858486Y-90370190D01*
X96880257Y-90418571D01*
X96880257Y-90491143D01*
X96858486Y-90539524D01*
X96836714Y-90563714D01*
X96793172Y-90587905D01*
X96619000Y-90587905D01*
X97315686Y-90829810D02*
X97054429Y-90829810D01*
X97185057Y-90829810D02*
X97185057Y-90321810D01*
X97141514Y-90394381D01*
X97097972Y-90442762D01*
X97054429Y-90466952D01*
X97707572Y-90321810D02*
X97620486Y-90321810D01*
X97576943Y-90346000D01*
X97555172Y-90370190D01*
X97511629Y-90442762D01*
X97489858Y-90539524D01*
X97489858Y-90733048D01*
X97511629Y-90781429D01*
X97533401Y-90805619D01*
X97576943Y-90829810D01*
X97664029Y-90829810D01*
X97707572Y-90805619D01*
X97729343Y-90781429D01*
X97751115Y-90733048D01*
X97751115Y-90612095D01*
X97729343Y-90563714D01*
X97707572Y-90539524D01*
X97664029Y-90515333D01*
X97576943Y-90515333D01*
X97533401Y-90539524D01*
X97511629Y-90563714D01*
X97489858Y-90612095D01*
X101601286Y-88021810D02*
X101601286Y-88384667D01*
X101579514Y-88457238D01*
X101535971Y-88505619D01*
X101470657Y-88529810D01*
X101427114Y-88529810D01*
X101819000Y-88529810D02*
X101819000Y-88021810D01*
X101993172Y-88021810D01*
X102036714Y-88046000D01*
X102058486Y-88070190D01*
X102080257Y-88118571D01*
X102080257Y-88191143D01*
X102058486Y-88239524D01*
X102036714Y-88263714D01*
X101993172Y-88287905D01*
X101819000Y-88287905D01*
X102515686Y-88529810D02*
X102254429Y-88529810D01*
X102385057Y-88529810D02*
X102385057Y-88021810D01*
X102341514Y-88094381D01*
X102297972Y-88142762D01*
X102254429Y-88166952D01*
X102668086Y-88021810D02*
X102972886Y-88021810D01*
X102776943Y-88529810D01*
X96401286Y-88021810D02*
X96401286Y-88384667D01*
X96379514Y-88457238D01*
X96335971Y-88505619D01*
X96270657Y-88529810D01*
X96227114Y-88529810D01*
X96619000Y-88529810D02*
X96619000Y-88021810D01*
X96793172Y-88021810D01*
X96836714Y-88046000D01*
X96858486Y-88070190D01*
X96880257Y-88118571D01*
X96880257Y-88191143D01*
X96858486Y-88239524D01*
X96836714Y-88263714D01*
X96793172Y-88287905D01*
X96619000Y-88287905D01*
X97315686Y-88529810D02*
X97054429Y-88529810D01*
X97185057Y-88529810D02*
X97185057Y-88021810D01*
X97141514Y-88094381D01*
X97097972Y-88142762D01*
X97054429Y-88166952D01*
X97576943Y-88239524D02*
X97533401Y-88215333D01*
X97511629Y-88191143D01*
X97489858Y-88142762D01*
X97489858Y-88118571D01*
X97511629Y-88070190D01*
X97533401Y-88046000D01*
X97576943Y-88021810D01*
X97664029Y-88021810D01*
X97707572Y-88046000D01*
X97729343Y-88070190D01*
X97751115Y-88118571D01*
X97751115Y-88142762D01*
X97729343Y-88191143D01*
X97707572Y-88215333D01*
X97664029Y-88239524D01*
X97576943Y-88239524D01*
X97533401Y-88263714D01*
X97511629Y-88287905D01*
X97489858Y-88336286D01*
X97489858Y-88433048D01*
X97511629Y-88481429D01*
X97533401Y-88505619D01*
X97576943Y-88529810D01*
X97664029Y-88529810D01*
X97707572Y-88505619D01*
X97729343Y-88481429D01*
X97751115Y-88433048D01*
X97751115Y-88336286D01*
X97729343Y-88287905D01*
X97707572Y-88263714D01*
X97664029Y-88239524D01*
D13*
X29341905Y-35512381D02*
X29341905Y-34512381D01*
X29722858Y-34512381D01*
X29818096Y-34560000D01*
X29865715Y-34607619D01*
X29913334Y-34702857D01*
X29913334Y-34845714D01*
X29865715Y-34940952D01*
X29818096Y-34988571D01*
X29722858Y-35036190D01*
X29341905Y-35036190D01*
X30865715Y-35512381D02*
X30294286Y-35512381D01*
X30580000Y-35512381D02*
X30580000Y-34512381D01*
X30484762Y-34655238D01*
X30389524Y-34750476D01*
X30294286Y-34798095D01*
X29341905Y-45672381D02*
X29341905Y-44672381D01*
X29722858Y-44672381D01*
X29818096Y-44720000D01*
X29865715Y-44767619D01*
X29913334Y-44862857D01*
X29913334Y-45005714D01*
X29865715Y-45100952D01*
X29818096Y-45148571D01*
X29722858Y-45196190D01*
X29341905Y-45196190D01*
X30294286Y-44767619D02*
X30341905Y-44720000D01*
X30437143Y-44672381D01*
X30675239Y-44672381D01*
X30770477Y-44720000D01*
X30818096Y-44767619D01*
X30865715Y-44862857D01*
X30865715Y-44958095D01*
X30818096Y-45100952D01*
X30246667Y-45672381D01*
X30865715Y-45672381D01*
X29341905Y-55832381D02*
X29341905Y-54832381D01*
X29722858Y-54832381D01*
X29818096Y-54880000D01*
X29865715Y-54927619D01*
X29913334Y-55022857D01*
X29913334Y-55165714D01*
X29865715Y-55260952D01*
X29818096Y-55308571D01*
X29722858Y-55356190D01*
X29341905Y-55356190D01*
X30246667Y-54832381D02*
X30865715Y-54832381D01*
X30532381Y-55213333D01*
X30675239Y-55213333D01*
X30770477Y-55260952D01*
X30818096Y-55308571D01*
X30865715Y-55403810D01*
X30865715Y-55641905D01*
X30818096Y-55737143D01*
X30770477Y-55784762D01*
X30675239Y-55832381D01*
X30389524Y-55832381D01*
X30294286Y-55784762D01*
X30246667Y-55737143D01*
X29341905Y-65992381D02*
X29341905Y-64992381D01*
X29722858Y-64992381D01*
X29818096Y-65040000D01*
X29865715Y-65087619D01*
X29913334Y-65182857D01*
X29913334Y-65325714D01*
X29865715Y-65420952D01*
X29818096Y-65468571D01*
X29722858Y-65516190D01*
X29341905Y-65516190D01*
X30770477Y-65325714D02*
X30770477Y-65992381D01*
X30532381Y-64944762D02*
X30294286Y-65659048D01*
X30913334Y-65659048D01*
X29341905Y-76152381D02*
X29341905Y-75152381D01*
X29722858Y-75152381D01*
X29818096Y-75200000D01*
X29865715Y-75247619D01*
X29913334Y-75342857D01*
X29913334Y-75485714D01*
X29865715Y-75580952D01*
X29818096Y-75628571D01*
X29722858Y-75676190D01*
X29341905Y-75676190D01*
X30818096Y-75152381D02*
X30341905Y-75152381D01*
X30294286Y-75628571D01*
X30341905Y-75580952D01*
X30437143Y-75533333D01*
X30675239Y-75533333D01*
X30770477Y-75580952D01*
X30818096Y-75628571D01*
X30865715Y-75723810D01*
X30865715Y-75961905D01*
X30818096Y-76057143D01*
X30770477Y-76104762D01*
X30675239Y-76152381D01*
X30437143Y-76152381D01*
X30341905Y-76104762D01*
X30294286Y-76057143D01*
X29341905Y-86312381D02*
X29341905Y-85312381D01*
X29722858Y-85312381D01*
X29818096Y-85360000D01*
X29865715Y-85407619D01*
X29913334Y-85502857D01*
X29913334Y-85645714D01*
X29865715Y-85740952D01*
X29818096Y-85788571D01*
X29722858Y-85836190D01*
X29341905Y-85836190D01*
X30770477Y-85312381D02*
X30580000Y-85312381D01*
X30484762Y-85360000D01*
X30437143Y-85407619D01*
X30341905Y-85550476D01*
X30294286Y-85740952D01*
X30294286Y-86121905D01*
X30341905Y-86217143D01*
X30389524Y-86264762D01*
X30484762Y-86312381D01*
X30675239Y-86312381D01*
X30770477Y-86264762D01*
X30818096Y-86217143D01*
X30865715Y-86121905D01*
X30865715Y-85883810D01*
X30818096Y-85788571D01*
X30770477Y-85740952D01*
X30675239Y-85693333D01*
X30484762Y-85693333D01*
X30389524Y-85740952D01*
X30341905Y-85788571D01*
X30294286Y-85883810D01*
X29341905Y-96472381D02*
X29341905Y-95472381D01*
X29722858Y-95472381D01*
X29818096Y-95520000D01*
X29865715Y-95567619D01*
X29913334Y-95662857D01*
X29913334Y-95805714D01*
X29865715Y-95900952D01*
X29818096Y-95948571D01*
X29722858Y-95996190D01*
X29341905Y-95996190D01*
X30246667Y-95472381D02*
X30913334Y-95472381D01*
X30484762Y-96472381D01*
X29341905Y-106632381D02*
X29341905Y-105632381D01*
X29722858Y-105632381D01*
X29818096Y-105680000D01*
X29865715Y-105727619D01*
X29913334Y-105822857D01*
X29913334Y-105965714D01*
X29865715Y-106060952D01*
X29818096Y-106108571D01*
X29722858Y-106156190D01*
X29341905Y-106156190D01*
X30484762Y-106060952D02*
X30389524Y-106013333D01*
X30341905Y-105965714D01*
X30294286Y-105870476D01*
X30294286Y-105822857D01*
X30341905Y-105727619D01*
X30389524Y-105680000D01*
X30484762Y-105632381D01*
X30675239Y-105632381D01*
X30770477Y-105680000D01*
X30818096Y-105727619D01*
X30865715Y-105822857D01*
X30865715Y-105870476D01*
X30818096Y-105965714D01*
X30770477Y-106013333D01*
X30675239Y-106060952D01*
X30484762Y-106060952D01*
X30389524Y-106108571D01*
X30341905Y-106156190D01*
X30294286Y-106251429D01*
X30294286Y-106441905D01*
X30341905Y-106537143D01*
X30389524Y-106584762D01*
X30484762Y-106632381D01*
X30675239Y-106632381D01*
X30770477Y-106584762D01*
X30818096Y-106537143D01*
X30865715Y-106441905D01*
X30865715Y-106251429D01*
X30818096Y-106156190D01*
X30770477Y-106108571D01*
X30675239Y-106060952D01*
X30512381Y-127258095D02*
X29512381Y-127258095D01*
X29512381Y-126877142D01*
X29560000Y-126781904D01*
X29607619Y-126734285D01*
X29702857Y-126686666D01*
X29845714Y-126686666D01*
X29940952Y-126734285D01*
X29988571Y-126781904D01*
X30036190Y-126877142D01*
X30036190Y-127258095D01*
X30512381Y-126210476D02*
X30512381Y-126020000D01*
X30464762Y-125924761D01*
X30417143Y-125877142D01*
X30274286Y-125781904D01*
X30083810Y-125734285D01*
X29702857Y-125734285D01*
X29607619Y-125781904D01*
X29560000Y-125829523D01*
X29512381Y-125924761D01*
X29512381Y-126115238D01*
X29560000Y-126210476D01*
X29607619Y-126258095D01*
X29702857Y-126305714D01*
X29940952Y-126305714D01*
X30036190Y-126258095D01*
X30083810Y-126210476D01*
X30131429Y-126115238D01*
X30131429Y-125924761D01*
X30083810Y-125829523D01*
X30036190Y-125781904D01*
X29940952Y-125734285D01*
X50832381Y-127734286D02*
X49832381Y-127734286D01*
X49832381Y-127353333D01*
X49880000Y-127258095D01*
X49927619Y-127210476D01*
X50022857Y-127162857D01*
X50165714Y-127162857D01*
X50260952Y-127210476D01*
X50308571Y-127258095D01*
X50356190Y-127353333D01*
X50356190Y-127734286D01*
X50832381Y-126210476D02*
X50832381Y-126781905D01*
X50832381Y-126496191D02*
X49832381Y-126496191D01*
X49975238Y-126591429D01*
X50070476Y-126686667D01*
X50118095Y-126781905D01*
X50832381Y-125258095D02*
X50832381Y-125829524D01*
X50832381Y-125543810D02*
X49832381Y-125543810D01*
X49975238Y-125639048D01*
X50070476Y-125734286D01*
X50118095Y-125829524D01*
X60992381Y-127734286D02*
X59992381Y-127734286D01*
X59992381Y-127353333D01*
X60040000Y-127258095D01*
X60087619Y-127210476D01*
X60182857Y-127162857D01*
X60325714Y-127162857D01*
X60420952Y-127210476D01*
X60468571Y-127258095D01*
X60516190Y-127353333D01*
X60516190Y-127734286D01*
X60992381Y-126210476D02*
X60992381Y-126781905D01*
X60992381Y-126496191D02*
X59992381Y-126496191D01*
X60135238Y-126591429D01*
X60230476Y-126686667D01*
X60278095Y-126781905D01*
X60087619Y-125829524D02*
X60040000Y-125781905D01*
X59992381Y-125686667D01*
X59992381Y-125448571D01*
X60040000Y-125353333D01*
X60087619Y-125305714D01*
X60182857Y-125258095D01*
X60278095Y-125258095D01*
X60420952Y-125305714D01*
X60992381Y-125877143D01*
X60992381Y-125258095D01*
X71152381Y-127734286D02*
X70152381Y-127734286D01*
X70152381Y-127353333D01*
X70200000Y-127258095D01*
X70247619Y-127210476D01*
X70342857Y-127162857D01*
X70485714Y-127162857D01*
X70580952Y-127210476D01*
X70628571Y-127258095D01*
X70676190Y-127353333D01*
X70676190Y-127734286D01*
X71152381Y-126210476D02*
X71152381Y-126781905D01*
X71152381Y-126496191D02*
X70152381Y-126496191D01*
X70295238Y-126591429D01*
X70390476Y-126686667D01*
X70438095Y-126781905D01*
X70152381Y-125877143D02*
X70152381Y-125258095D01*
X70533333Y-125591429D01*
X70533333Y-125448571D01*
X70580952Y-125353333D01*
X70628571Y-125305714D01*
X70723810Y-125258095D01*
X70961905Y-125258095D01*
X71057143Y-125305714D01*
X71104762Y-125353333D01*
X71152381Y-125448571D01*
X71152381Y-125734286D01*
X71104762Y-125829524D01*
X71057143Y-125877143D01*
X81312381Y-127734286D02*
X80312381Y-127734286D01*
X80312381Y-127353333D01*
X80360000Y-127258095D01*
X80407619Y-127210476D01*
X80502857Y-127162857D01*
X80645714Y-127162857D01*
X80740952Y-127210476D01*
X80788571Y-127258095D01*
X80836190Y-127353333D01*
X80836190Y-127734286D01*
X81312381Y-126210476D02*
X81312381Y-126781905D01*
X81312381Y-126496191D02*
X80312381Y-126496191D01*
X80455238Y-126591429D01*
X80550476Y-126686667D01*
X80598095Y-126781905D01*
X80645714Y-125353333D02*
X81312381Y-125353333D01*
X80264762Y-125591429D02*
X80979048Y-125829524D01*
X80979048Y-125210476D01*
X91472381Y-127734286D02*
X90472381Y-127734286D01*
X90472381Y-127353333D01*
X90520000Y-127258095D01*
X90567619Y-127210476D01*
X90662857Y-127162857D01*
X90805714Y-127162857D01*
X90900952Y-127210476D01*
X90948571Y-127258095D01*
X90996190Y-127353333D01*
X90996190Y-127734286D01*
X91472381Y-126210476D02*
X91472381Y-126781905D01*
X91472381Y-126496191D02*
X90472381Y-126496191D01*
X90615238Y-126591429D01*
X90710476Y-126686667D01*
X90758095Y-126781905D01*
X90472381Y-125305714D02*
X90472381Y-125781905D01*
X90948571Y-125829524D01*
X90900952Y-125781905D01*
X90853333Y-125686667D01*
X90853333Y-125448571D01*
X90900952Y-125353333D01*
X90948571Y-125305714D01*
X91043810Y-125258095D01*
X91281905Y-125258095D01*
X91377143Y-125305714D01*
X91424762Y-125353333D01*
X91472381Y-125448571D01*
X91472381Y-125686667D01*
X91424762Y-125781905D01*
X91377143Y-125829524D01*
X101632381Y-127734286D02*
X100632381Y-127734286D01*
X100632381Y-127353333D01*
X100680000Y-127258095D01*
X100727619Y-127210476D01*
X100822857Y-127162857D01*
X100965714Y-127162857D01*
X101060952Y-127210476D01*
X101108571Y-127258095D01*
X101156190Y-127353333D01*
X101156190Y-127734286D01*
X101632381Y-126210476D02*
X101632381Y-126781905D01*
X101632381Y-126496191D02*
X100632381Y-126496191D01*
X100775238Y-126591429D01*
X100870476Y-126686667D01*
X100918095Y-126781905D01*
X100632381Y-125353333D02*
X100632381Y-125543810D01*
X100680000Y-125639048D01*
X100727619Y-125686667D01*
X100870476Y-125781905D01*
X101060952Y-125829524D01*
X101441905Y-125829524D01*
X101537143Y-125781905D01*
X101584762Y-125734286D01*
X101632381Y-125639048D01*
X101632381Y-125448571D01*
X101584762Y-125353333D01*
X101537143Y-125305714D01*
X101441905Y-125258095D01*
X101203810Y-125258095D01*
X101108571Y-125305714D01*
X101060952Y-125353333D01*
X101013333Y-125448571D01*
X101013333Y-125639048D01*
X101060952Y-125734286D01*
X101108571Y-125781905D01*
X101203810Y-125829524D01*
X120305714Y-124452381D02*
X120305714Y-123452381D01*
X120686667Y-123452381D01*
X120781905Y-123500000D01*
X120829524Y-123547619D01*
X120877143Y-123642857D01*
X120877143Y-123785714D01*
X120829524Y-123880952D01*
X120781905Y-123928571D01*
X120686667Y-123976190D01*
X120305714Y-123976190D01*
X121829524Y-124452381D02*
X121258095Y-124452381D01*
X121543809Y-124452381D02*
X121543809Y-123452381D01*
X121448571Y-123595238D01*
X121353333Y-123690476D01*
X121258095Y-123738095D01*
X122162857Y-123452381D02*
X122829524Y-123452381D01*
X122400952Y-124452381D01*
X120305714Y-114292381D02*
X120305714Y-113292381D01*
X120686667Y-113292381D01*
X120781905Y-113340000D01*
X120829524Y-113387619D01*
X120877143Y-113482857D01*
X120877143Y-113625714D01*
X120829524Y-113720952D01*
X120781905Y-113768571D01*
X120686667Y-113816190D01*
X120305714Y-113816190D01*
X121829524Y-114292381D02*
X121258095Y-114292381D01*
X121543809Y-114292381D02*
X121543809Y-113292381D01*
X121448571Y-113435238D01*
X121353333Y-113530476D01*
X121258095Y-113578095D01*
X122400952Y-113720952D02*
X122305714Y-113673333D01*
X122258095Y-113625714D01*
X122210476Y-113530476D01*
X122210476Y-113482857D01*
X122258095Y-113387619D01*
X122305714Y-113340000D01*
X122400952Y-113292381D01*
X122591429Y-113292381D01*
X122686667Y-113340000D01*
X122734286Y-113387619D01*
X122781905Y-113482857D01*
X122781905Y-113530476D01*
X122734286Y-113625714D01*
X122686667Y-113673333D01*
X122591429Y-113720952D01*
X122400952Y-113720952D01*
X122305714Y-113768571D01*
X122258095Y-113816190D01*
X122210476Y-113911429D01*
X122210476Y-114101905D01*
X122258095Y-114197143D01*
X122305714Y-114244762D01*
X122400952Y-114292381D01*
X122591429Y-114292381D01*
X122686667Y-114244762D01*
X122734286Y-114197143D01*
X122781905Y-114101905D01*
X122781905Y-113911429D01*
X122734286Y-113816190D01*
X122686667Y-113768571D01*
X122591429Y-113720952D01*
X120305714Y-104132381D02*
X120305714Y-103132381D01*
X120686667Y-103132381D01*
X120781905Y-103180000D01*
X120829524Y-103227619D01*
X120877143Y-103322857D01*
X120877143Y-103465714D01*
X120829524Y-103560952D01*
X120781905Y-103608571D01*
X120686667Y-103656190D01*
X120305714Y-103656190D01*
X121829524Y-104132381D02*
X121258095Y-104132381D01*
X121543809Y-104132381D02*
X121543809Y-103132381D01*
X121448571Y-103275238D01*
X121353333Y-103370476D01*
X121258095Y-103418095D01*
X122305714Y-104132381D02*
X122496190Y-104132381D01*
X122591429Y-104084762D01*
X122639048Y-104037143D01*
X122734286Y-103894286D01*
X122781905Y-103703810D01*
X122781905Y-103322857D01*
X122734286Y-103227619D01*
X122686667Y-103180000D01*
X122591429Y-103132381D01*
X122400952Y-103132381D01*
X122305714Y-103180000D01*
X122258095Y-103227619D01*
X122210476Y-103322857D01*
X122210476Y-103560952D01*
X122258095Y-103656190D01*
X122305714Y-103703810D01*
X122400952Y-103751429D01*
X122591429Y-103751429D01*
X122686667Y-103703810D01*
X122734286Y-103656190D01*
X122781905Y-103560952D01*
X120305714Y-93972381D02*
X120305714Y-92972381D01*
X120686667Y-92972381D01*
X120781905Y-93020000D01*
X120829524Y-93067619D01*
X120877143Y-93162857D01*
X120877143Y-93305714D01*
X120829524Y-93400952D01*
X120781905Y-93448571D01*
X120686667Y-93496190D01*
X120305714Y-93496190D01*
X121258095Y-93067619D02*
X121305714Y-93020000D01*
X121400952Y-92972381D01*
X121639048Y-92972381D01*
X121734286Y-93020000D01*
X121781905Y-93067619D01*
X121829524Y-93162857D01*
X121829524Y-93258095D01*
X121781905Y-93400952D01*
X121210476Y-93972381D01*
X121829524Y-93972381D01*
X122448571Y-92972381D02*
X122543810Y-92972381D01*
X122639048Y-93020000D01*
X122686667Y-93067619D01*
X122734286Y-93162857D01*
X122781905Y-93353333D01*
X122781905Y-93591429D01*
X122734286Y-93781905D01*
X122686667Y-93877143D01*
X122639048Y-93924762D01*
X122543810Y-93972381D01*
X122448571Y-93972381D01*
X122353333Y-93924762D01*
X122305714Y-93877143D01*
X122258095Y-93781905D01*
X122210476Y-93591429D01*
X122210476Y-93353333D01*
X122258095Y-93162857D01*
X122305714Y-93067619D01*
X122353333Y-93020000D01*
X122448571Y-92972381D01*
X120305714Y-83812381D02*
X120305714Y-82812381D01*
X120686667Y-82812381D01*
X120781905Y-82860000D01*
X120829524Y-82907619D01*
X120877143Y-83002857D01*
X120877143Y-83145714D01*
X120829524Y-83240952D01*
X120781905Y-83288571D01*
X120686667Y-83336190D01*
X120305714Y-83336190D01*
X121258095Y-82907619D02*
X121305714Y-82860000D01*
X121400952Y-82812381D01*
X121639048Y-82812381D01*
X121734286Y-82860000D01*
X121781905Y-82907619D01*
X121829524Y-83002857D01*
X121829524Y-83098095D01*
X121781905Y-83240952D01*
X121210476Y-83812381D01*
X121829524Y-83812381D01*
X122781905Y-83812381D02*
X122210476Y-83812381D01*
X122496190Y-83812381D02*
X122496190Y-82812381D01*
X122400952Y-82955238D01*
X122305714Y-83050476D01*
X122210476Y-83098095D01*
X120305714Y-73652381D02*
X120305714Y-72652381D01*
X120686667Y-72652381D01*
X120781905Y-72700000D01*
X120829524Y-72747619D01*
X120877143Y-72842857D01*
X120877143Y-72985714D01*
X120829524Y-73080952D01*
X120781905Y-73128571D01*
X120686667Y-73176190D01*
X120305714Y-73176190D01*
X121258095Y-72747619D02*
X121305714Y-72700000D01*
X121400952Y-72652381D01*
X121639048Y-72652381D01*
X121734286Y-72700000D01*
X121781905Y-72747619D01*
X121829524Y-72842857D01*
X121829524Y-72938095D01*
X121781905Y-73080952D01*
X121210476Y-73652381D01*
X121829524Y-73652381D01*
X122210476Y-72747619D02*
X122258095Y-72700000D01*
X122353333Y-72652381D01*
X122591429Y-72652381D01*
X122686667Y-72700000D01*
X122734286Y-72747619D01*
X122781905Y-72842857D01*
X122781905Y-72938095D01*
X122734286Y-73080952D01*
X122162857Y-73652381D01*
X122781905Y-73652381D01*
X120305714Y-63492381D02*
X120305714Y-62492381D01*
X120686667Y-62492381D01*
X120781905Y-62540000D01*
X120829524Y-62587619D01*
X120877143Y-62682857D01*
X120877143Y-62825714D01*
X120829524Y-62920952D01*
X120781905Y-62968571D01*
X120686667Y-63016190D01*
X120305714Y-63016190D01*
X121258095Y-62587619D02*
X121305714Y-62540000D01*
X121400952Y-62492381D01*
X121639048Y-62492381D01*
X121734286Y-62540000D01*
X121781905Y-62587619D01*
X121829524Y-62682857D01*
X121829524Y-62778095D01*
X121781905Y-62920952D01*
X121210476Y-63492381D01*
X121829524Y-63492381D01*
X122162857Y-62492381D02*
X122781905Y-62492381D01*
X122448571Y-62873333D01*
X122591429Y-62873333D01*
X122686667Y-62920952D01*
X122734286Y-62968571D01*
X122781905Y-63063810D01*
X122781905Y-63301905D01*
X122734286Y-63397143D01*
X122686667Y-63444762D01*
X122591429Y-63492381D01*
X122305714Y-63492381D01*
X122210476Y-63444762D01*
X122162857Y-63397143D01*
X120305714Y-53332381D02*
X120305714Y-52332381D01*
X120686667Y-52332381D01*
X120781905Y-52380000D01*
X120829524Y-52427619D01*
X120877143Y-52522857D01*
X120877143Y-52665714D01*
X120829524Y-52760952D01*
X120781905Y-52808571D01*
X120686667Y-52856190D01*
X120305714Y-52856190D01*
X121258095Y-52427619D02*
X121305714Y-52380000D01*
X121400952Y-52332381D01*
X121639048Y-52332381D01*
X121734286Y-52380000D01*
X121781905Y-52427619D01*
X121829524Y-52522857D01*
X121829524Y-52618095D01*
X121781905Y-52760952D01*
X121210476Y-53332381D01*
X121829524Y-53332381D01*
X122686667Y-52665714D02*
X122686667Y-53332381D01*
X122448571Y-52284762D02*
X122210476Y-52999048D01*
X122829524Y-52999048D01*
X47533334Y-43552381D02*
X47200000Y-43076190D01*
X46961905Y-43552381D02*
X46961905Y-42552381D01*
X47342858Y-42552381D01*
X47438096Y-42600000D01*
X47485715Y-42647619D01*
X47533334Y-42742857D01*
X47533334Y-42885714D01*
X47485715Y-42980952D01*
X47438096Y-43028571D01*
X47342858Y-43076190D01*
X46961905Y-43076190D01*
X48485715Y-43552381D02*
X47914286Y-43552381D01*
X48200000Y-43552381D02*
X48200000Y-42552381D01*
X48104762Y-42695238D01*
X48009524Y-42790476D01*
X47914286Y-42838095D01*
X60333334Y-48052381D02*
X60000000Y-47576190D01*
X59761905Y-48052381D02*
X59761905Y-47052381D01*
X60142858Y-47052381D01*
X60238096Y-47100000D01*
X60285715Y-47147619D01*
X60333334Y-47242857D01*
X60333334Y-47385714D01*
X60285715Y-47480952D01*
X60238096Y-47528571D01*
X60142858Y-47576190D01*
X59761905Y-47576190D01*
X60714286Y-47147619D02*
X60761905Y-47100000D01*
X60857143Y-47052381D01*
X61095239Y-47052381D01*
X61190477Y-47100000D01*
X61238096Y-47147619D01*
X61285715Y-47242857D01*
X61285715Y-47338095D01*
X61238096Y-47480952D01*
X60666667Y-48052381D01*
X61285715Y-48052381D01*
X60333334Y-51752381D02*
X60000000Y-51276190D01*
X59761905Y-51752381D02*
X59761905Y-50752381D01*
X60142858Y-50752381D01*
X60238096Y-50800000D01*
X60285715Y-50847619D01*
X60333334Y-50942857D01*
X60333334Y-51085714D01*
X60285715Y-51180952D01*
X60238096Y-51228571D01*
X60142858Y-51276190D01*
X59761905Y-51276190D01*
X60666667Y-50752381D02*
X61285715Y-50752381D01*
X60952381Y-51133333D01*
X61095239Y-51133333D01*
X61190477Y-51180952D01*
X61238096Y-51228571D01*
X61285715Y-51323810D01*
X61285715Y-51561905D01*
X61238096Y-51657143D01*
X61190477Y-51704762D01*
X61095239Y-51752381D01*
X60809524Y-51752381D01*
X60714286Y-51704762D01*
X60666667Y-51657143D01*
X47533334Y-48052381D02*
X47200000Y-47576190D01*
X46961905Y-48052381D02*
X46961905Y-47052381D01*
X47342858Y-47052381D01*
X47438096Y-47100000D01*
X47485715Y-47147619D01*
X47533334Y-47242857D01*
X47533334Y-47385714D01*
X47485715Y-47480952D01*
X47438096Y-47528571D01*
X47342858Y-47576190D01*
X46961905Y-47576190D01*
X48390477Y-47385714D02*
X48390477Y-48052381D01*
X48152381Y-47004762D02*
X47914286Y-47719048D01*
X48533334Y-47719048D01*
X111733334Y-37452381D02*
X111400000Y-36976190D01*
X111161905Y-37452381D02*
X111161905Y-36452381D01*
X111542858Y-36452381D01*
X111638096Y-36500000D01*
X111685715Y-36547619D01*
X111733334Y-36642857D01*
X111733334Y-36785714D01*
X111685715Y-36880952D01*
X111638096Y-36928571D01*
X111542858Y-36976190D01*
X111161905Y-36976190D01*
X112638096Y-36452381D02*
X112161905Y-36452381D01*
X112114286Y-36928571D01*
X112161905Y-36880952D01*
X112257143Y-36833333D01*
X112495239Y-36833333D01*
X112590477Y-36880952D01*
X112638096Y-36928571D01*
X112685715Y-37023810D01*
X112685715Y-37261905D01*
X112638096Y-37357143D01*
X112590477Y-37404762D01*
X112495239Y-37452381D01*
X112257143Y-37452381D01*
X112161905Y-37404762D01*
X112114286Y-37357143D01*
X51338095Y-42852381D02*
X51338095Y-43661905D01*
X51385714Y-43757143D01*
X51433333Y-43804762D01*
X51528571Y-43852381D01*
X51719048Y-43852381D01*
X51814286Y-43804762D01*
X51861905Y-43757143D01*
X51909524Y-43661905D01*
X51909524Y-42852381D01*
X52909524Y-43852381D02*
X52338095Y-43852381D01*
X52623809Y-43852381D02*
X52623809Y-42852381D01*
X52528571Y-42995238D01*
X52433333Y-43090476D01*
X52338095Y-43138095D01*
X46438095Y-74452381D02*
X46438095Y-75261905D01*
X46485714Y-75357143D01*
X46533333Y-75404762D01*
X46628571Y-75452381D01*
X46819048Y-75452381D01*
X46914286Y-75404762D01*
X46961905Y-75357143D01*
X47009524Y-75261905D01*
X47009524Y-74452381D01*
X47438095Y-74547619D02*
X47485714Y-74500000D01*
X47580952Y-74452381D01*
X47819048Y-74452381D01*
X47914286Y-74500000D01*
X47961905Y-74547619D01*
X48009524Y-74642857D01*
X48009524Y-74738095D01*
X47961905Y-74880952D01*
X47390476Y-75452381D01*
X48009524Y-75452381D01*
X69552381Y-108161905D02*
X70361905Y-108161905D01*
X70457143Y-108114286D01*
X70504762Y-108066667D01*
X70552381Y-107971429D01*
X70552381Y-107780952D01*
X70504762Y-107685714D01*
X70457143Y-107638095D01*
X70361905Y-107590476D01*
X69552381Y-107590476D01*
X69552381Y-107209524D02*
X69552381Y-106590476D01*
X69933333Y-106923810D01*
X69933333Y-106780952D01*
X69980952Y-106685714D01*
X70028571Y-106638095D01*
X70123810Y-106590476D01*
X70361905Y-106590476D01*
X70457143Y-106638095D01*
X70504762Y-106685714D01*
X70552381Y-106780952D01*
X70552381Y-107066667D01*
X70504762Y-107161905D01*
X70457143Y-107209524D01*
X101838095Y-84652381D02*
X101838095Y-85461905D01*
X101885714Y-85557143D01*
X101933333Y-85604762D01*
X102028571Y-85652381D01*
X102219048Y-85652381D01*
X102314286Y-85604762D01*
X102361905Y-85557143D01*
X102409524Y-85461905D01*
X102409524Y-84652381D01*
X103314286Y-84985714D02*
X103314286Y-85652381D01*
X103076190Y-84604762D02*
X102838095Y-85319048D01*
X103457143Y-85319048D01*
X48257143Y-38514285D02*
X48304762Y-38561904D01*
X48352381Y-38704761D01*
X48352381Y-38799999D01*
X48304762Y-38942857D01*
X48209524Y-39038095D01*
X48114286Y-39085714D01*
X47923810Y-39133333D01*
X47780952Y-39133333D01*
X47590476Y-39085714D01*
X47495238Y-39038095D01*
X47400000Y-38942857D01*
X47352381Y-38799999D01*
X47352381Y-38704761D01*
X47400000Y-38561904D01*
X47447619Y-38514285D01*
X47352381Y-37895238D02*
X47352381Y-37704761D01*
X47400000Y-37609523D01*
X47495238Y-37514285D01*
X47685714Y-37466666D01*
X48019048Y-37466666D01*
X48209524Y-37514285D01*
X48304762Y-37609523D01*
X48352381Y-37704761D01*
X48352381Y-37895238D01*
X48304762Y-37990476D01*
X48209524Y-38085714D01*
X48019048Y-38133333D01*
X47685714Y-38133333D01*
X47495238Y-38085714D01*
X47400000Y-37990476D01*
X47352381Y-37895238D01*
X48352381Y-37038095D02*
X47352381Y-37038095D01*
X48352381Y-36466666D01*
X47352381Y-36466666D01*
X48352381Y-35466666D02*
X48352381Y-36038095D01*
X48352381Y-35752381D02*
X47352381Y-35752381D01*
X47495238Y-35847619D01*
X47590476Y-35942857D01*
X47638095Y-36038095D01*
X40672381Y-127734286D02*
X39672381Y-127734286D01*
X39672381Y-127353333D01*
X39720000Y-127258095D01*
X39767619Y-127210476D01*
X39862857Y-127162857D01*
X40005714Y-127162857D01*
X40100952Y-127210476D01*
X40148571Y-127258095D01*
X40196190Y-127353333D01*
X40196190Y-127734286D01*
X40672381Y-126210476D02*
X40672381Y-126781905D01*
X40672381Y-126496191D02*
X39672381Y-126496191D01*
X39815238Y-126591429D01*
X39910476Y-126686667D01*
X39958095Y-126781905D01*
X39672381Y-125591429D02*
X39672381Y-125496190D01*
X39720000Y-125400952D01*
X39767619Y-125353333D01*
X39862857Y-125305714D01*
X40053333Y-125258095D01*
X40291429Y-125258095D01*
X40481905Y-125305714D01*
X40577143Y-125353333D01*
X40624762Y-125400952D01*
X40672381Y-125496190D01*
X40672381Y-125591429D01*
X40624762Y-125686667D01*
X40577143Y-125734286D01*
X40481905Y-125781905D01*
X40291429Y-125829524D01*
X40053333Y-125829524D01*
X39862857Y-125781905D01*
X39767619Y-125734286D01*
X39720000Y-125686667D01*
X39672381Y-125591429D01*
X93757143Y-38814285D02*
X93804762Y-38861904D01*
X93852381Y-39004761D01*
X93852381Y-39099999D01*
X93804762Y-39242857D01*
X93709524Y-39338095D01*
X93614286Y-39385714D01*
X93423810Y-39433333D01*
X93280952Y-39433333D01*
X93090476Y-39385714D01*
X92995238Y-39338095D01*
X92900000Y-39242857D01*
X92852381Y-39099999D01*
X92852381Y-39004761D01*
X92900000Y-38861904D01*
X92947619Y-38814285D01*
X92852381Y-38195238D02*
X92852381Y-38004761D01*
X92900000Y-37909523D01*
X92995238Y-37814285D01*
X93185714Y-37766666D01*
X93519048Y-37766666D01*
X93709524Y-37814285D01*
X93804762Y-37909523D01*
X93852381Y-38004761D01*
X93852381Y-38195238D01*
X93804762Y-38290476D01*
X93709524Y-38385714D01*
X93519048Y-38433333D01*
X93185714Y-38433333D01*
X92995238Y-38385714D01*
X92900000Y-38290476D01*
X92852381Y-38195238D01*
X93852381Y-37338095D02*
X92852381Y-37338095D01*
X93852381Y-36766666D01*
X92852381Y-36766666D01*
X92947619Y-36338095D02*
X92900000Y-36290476D01*
X92852381Y-36195238D01*
X92852381Y-35957142D01*
X92900000Y-35861904D01*
X92947619Y-35814285D01*
X93042857Y-35766666D01*
X93138095Y-35766666D01*
X93280952Y-35814285D01*
X93852381Y-36385714D01*
X93852381Y-35766666D01*
X58133334Y-43057143D02*
X58085715Y-43104762D01*
X57942858Y-43152381D01*
X57847620Y-43152381D01*
X57704762Y-43104762D01*
X57609524Y-43009524D01*
X57561905Y-42914286D01*
X57514286Y-42723810D01*
X57514286Y-42580952D01*
X57561905Y-42390476D01*
X57609524Y-42295238D01*
X57704762Y-42200000D01*
X57847620Y-42152381D01*
X57942858Y-42152381D01*
X58085715Y-42200000D01*
X58133334Y-42247619D01*
X59085715Y-43152381D02*
X58514286Y-43152381D01*
X58800000Y-43152381D02*
X58800000Y-42152381D01*
X58704762Y-42295238D01*
X58609524Y-42390476D01*
X58514286Y-42438095D01*
X51633334Y-73157143D02*
X51585715Y-73204762D01*
X51442858Y-73252381D01*
X51347620Y-73252381D01*
X51204762Y-73204762D01*
X51109524Y-73109524D01*
X51061905Y-73014286D01*
X51014286Y-72823810D01*
X51014286Y-72680952D01*
X51061905Y-72490476D01*
X51109524Y-72395238D01*
X51204762Y-72300000D01*
X51347620Y-72252381D01*
X51442858Y-72252381D01*
X51585715Y-72300000D01*
X51633334Y-72347619D01*
X52014286Y-72347619D02*
X52061905Y-72300000D01*
X52157143Y-72252381D01*
X52395239Y-72252381D01*
X52490477Y-72300000D01*
X52538096Y-72347619D01*
X52585715Y-72442857D01*
X52585715Y-72538095D01*
X52538096Y-72680952D01*
X51966667Y-73252381D01*
X52585715Y-73252381D01*
X68757143Y-103266666D02*
X68804762Y-103314285D01*
X68852381Y-103457142D01*
X68852381Y-103552380D01*
X68804762Y-103695238D01*
X68709524Y-103790476D01*
X68614286Y-103838095D01*
X68423810Y-103885714D01*
X68280952Y-103885714D01*
X68090476Y-103838095D01*
X67995238Y-103790476D01*
X67900000Y-103695238D01*
X67852381Y-103552380D01*
X67852381Y-103457142D01*
X67900000Y-103314285D01*
X67947619Y-103266666D01*
X67852381Y-102933333D02*
X67852381Y-102314285D01*
X68233333Y-102647619D01*
X68233333Y-102504761D01*
X68280952Y-102409523D01*
X68328571Y-102361904D01*
X68423810Y-102314285D01*
X68661905Y-102314285D01*
X68757143Y-102361904D01*
X68804762Y-102409523D01*
X68852381Y-102504761D01*
X68852381Y-102790476D01*
X68804762Y-102885714D01*
X68757143Y-102933333D01*
X97933334Y-87157143D02*
X97885715Y-87204762D01*
X97742858Y-87252381D01*
X97647620Y-87252381D01*
X97504762Y-87204762D01*
X97409524Y-87109524D01*
X97361905Y-87014286D01*
X97314286Y-86823810D01*
X97314286Y-86680952D01*
X97361905Y-86490476D01*
X97409524Y-86395238D01*
X97504762Y-86300000D01*
X97647620Y-86252381D01*
X97742858Y-86252381D01*
X97885715Y-86300000D01*
X97933334Y-86347619D01*
X98790477Y-86585714D02*
X98790477Y-87252381D01*
X98552381Y-86204762D02*
X98314286Y-86919048D01*
X98933334Y-86919048D01*
%LPC*%
D16*
X48150000Y-66900000D03*
X46650000Y-66900000D03*
D17*
X47900000Y-66900000D03*
X46900000Y-66900000D03*
D16*
X52050000Y-66900000D03*
X53550000Y-66900000D03*
D17*
X52300000Y-66900000D03*
X53300000Y-66900000D03*
D16*
X48150000Y-64700000D03*
X46650000Y-64700000D03*
D17*
X47900000Y-64700000D03*
X46900000Y-64700000D03*
D16*
X52050000Y-64700000D03*
X53550000Y-64700000D03*
D17*
X52300000Y-64700000D03*
X53300000Y-64700000D03*
D16*
X48150000Y-62500000D03*
X46650000Y-62500000D03*
D17*
X47900000Y-62500000D03*
X46900000Y-62500000D03*
D16*
X52050000Y-62500000D03*
X53550000Y-62500000D03*
D17*
X52300000Y-62500000D03*
X53300000Y-62500000D03*
D18*
X59500000Y-106350000D03*
X59500000Y-107850000D03*
D19*
X59500000Y-106600000D03*
X59500000Y-107600000D03*
D18*
X59500000Y-102350000D03*
X59500000Y-100850000D03*
D19*
X59500000Y-102100000D03*
X59500000Y-101100000D03*
D18*
X62000000Y-106350000D03*
X62000000Y-107850000D03*
D19*
X62000000Y-106600000D03*
X62000000Y-107600000D03*
D18*
X62000000Y-102350000D03*
X62000000Y-100850000D03*
D19*
X62000000Y-102100000D03*
X62000000Y-101100000D03*
D18*
X64400000Y-106350000D03*
X64400000Y-107850000D03*
D19*
X64400000Y-106600000D03*
X64400000Y-107600000D03*
D18*
X64400000Y-102350000D03*
X64400000Y-100850000D03*
D19*
X64400000Y-102100000D03*
X64400000Y-101100000D03*
D16*
X101550000Y-94100000D03*
X103050000Y-94100000D03*
D17*
X101800000Y-94100000D03*
X102800000Y-94100000D03*
D16*
X97750000Y-94100000D03*
X96250000Y-94100000D03*
D17*
X97500000Y-94100000D03*
X96500000Y-94100000D03*
D16*
X101550000Y-91700000D03*
X103050000Y-91700000D03*
D17*
X101800000Y-91700000D03*
X102800000Y-91700000D03*
D16*
X97750000Y-91700000D03*
X96250000Y-91700000D03*
D17*
X97500000Y-91700000D03*
X96500000Y-91700000D03*
D16*
X101550000Y-89400000D03*
X103050000Y-89400000D03*
D17*
X101800000Y-89400000D03*
X102800000Y-89400000D03*
D16*
X97750000Y-89400000D03*
X96250000Y-89400000D03*
D17*
X97500000Y-89400000D03*
X96500000Y-89400000D03*
D20*
X30080000Y-40160000D03*
D21*
X32620000Y-40160000D03*
X30080000Y-42700000D03*
X32620000Y-42700000D03*
X30080000Y-45240000D03*
X32620000Y-45240000D03*
X30080000Y-47780000D03*
X32620000Y-47780000D03*
D20*
X30080000Y-50320000D03*
D21*
X32620000Y-50320000D03*
X30080000Y-52860000D03*
X32620000Y-52860000D03*
X30080000Y-55400000D03*
X32620000Y-55400000D03*
X30080000Y-57940000D03*
X32620000Y-57940000D03*
D20*
X30080000Y-60480000D03*
D21*
X32620000Y-60480000D03*
X30080000Y-63020000D03*
X32620000Y-63020000D03*
X30080000Y-65560000D03*
X32620000Y-65560000D03*
X30080000Y-68100000D03*
X32620000Y-68100000D03*
D20*
X30080000Y-70640000D03*
D21*
X32620000Y-70640000D03*
X30080000Y-73180000D03*
X32620000Y-73180000D03*
X30080000Y-75720000D03*
X32620000Y-75720000D03*
X30080000Y-78260000D03*
X32620000Y-78260000D03*
D20*
X30080000Y-80800000D03*
D21*
X32620000Y-80800000D03*
X30080000Y-83340000D03*
X32620000Y-83340000D03*
X30080000Y-85880000D03*
X32620000Y-85880000D03*
X30080000Y-88420000D03*
X32620000Y-88420000D03*
D20*
X30080000Y-90960000D03*
D21*
X32620000Y-90960000D03*
X30080000Y-93500000D03*
X32620000Y-93500000D03*
X30080000Y-96040000D03*
X32620000Y-96040000D03*
X30080000Y-98580000D03*
X32620000Y-98580000D03*
D20*
X30080000Y-101120000D03*
D21*
X32620000Y-101120000D03*
X30080000Y-103660000D03*
X32620000Y-103660000D03*
X30080000Y-106200000D03*
X32620000Y-106200000D03*
X30080000Y-108740000D03*
X32620000Y-108740000D03*
D20*
X30080000Y-111280000D03*
D21*
X32620000Y-111280000D03*
X30080000Y-113820000D03*
X32620000Y-113820000D03*
X30080000Y-116360000D03*
X32620000Y-116360000D03*
X30080000Y-118900000D03*
X32620000Y-118900000D03*
D20*
X35160000Y-126520000D03*
D21*
X35160000Y-123980000D03*
X37700000Y-126520000D03*
X37700000Y-123980000D03*
X40240000Y-126520000D03*
X40240000Y-123980000D03*
X42780000Y-126520000D03*
X42780000Y-123980000D03*
D20*
X55480000Y-126520000D03*
D21*
X55480000Y-123980000D03*
X58020000Y-126520000D03*
X58020000Y-123980000D03*
X60560000Y-126520000D03*
X60560000Y-123980000D03*
X63100000Y-126520000D03*
X63100000Y-123980000D03*
D20*
X65640000Y-126520000D03*
D21*
X65640000Y-123980000D03*
X68180000Y-126520000D03*
X68180000Y-123980000D03*
X70720000Y-126520000D03*
X70720000Y-123980000D03*
X73260000Y-126520000D03*
X73260000Y-123980000D03*
D20*
X75800000Y-126520000D03*
D21*
X75800000Y-123980000D03*
X78340000Y-126520000D03*
X78340000Y-123980000D03*
X80880000Y-126520000D03*
X80880000Y-123980000D03*
X83420000Y-126520000D03*
X83420000Y-123980000D03*
D20*
X85960000Y-126520000D03*
D21*
X85960000Y-123980000D03*
X88500000Y-126520000D03*
X88500000Y-123980000D03*
X91040000Y-126520000D03*
X91040000Y-123980000D03*
X93580000Y-126520000D03*
X93580000Y-123980000D03*
D20*
X96120000Y-126520000D03*
D21*
X96120000Y-123980000D03*
X98660000Y-126520000D03*
X98660000Y-123980000D03*
X101200000Y-126520000D03*
X101200000Y-123980000D03*
X103740000Y-126520000D03*
X103740000Y-123980000D03*
D20*
X106280000Y-126520000D03*
D21*
X106280000Y-123980000D03*
X108820000Y-126520000D03*
X108820000Y-123980000D03*
X111360000Y-126520000D03*
X111360000Y-123980000D03*
X113900000Y-126520000D03*
X113900000Y-123980000D03*
D20*
X121520000Y-118900000D03*
D21*
X118980000Y-118900000D03*
X121520000Y-116360000D03*
X118980000Y-116360000D03*
X121520000Y-113820000D03*
X118980000Y-113820000D03*
X121520000Y-111280000D03*
X118980000Y-111280000D03*
D20*
X121520000Y-108740000D03*
D21*
X118980000Y-108740000D03*
X121520000Y-106200000D03*
X118980000Y-106200000D03*
X121520000Y-103660000D03*
X118980000Y-103660000D03*
X121520000Y-101120000D03*
X118980000Y-101120000D03*
D20*
X121520000Y-98580000D03*
D21*
X118980000Y-98580000D03*
X121520000Y-96040000D03*
X118980000Y-96040000D03*
X121520000Y-93500000D03*
X118980000Y-93500000D03*
X121520000Y-90960000D03*
X118980000Y-90960000D03*
D20*
X121520000Y-88420000D03*
D21*
X118980000Y-88420000D03*
X121520000Y-85880000D03*
X118980000Y-85880000D03*
X121520000Y-83340000D03*
X118980000Y-83340000D03*
X121520000Y-80800000D03*
X118980000Y-80800000D03*
D20*
X121520000Y-78260000D03*
D21*
X118980000Y-78260000D03*
X121520000Y-75720000D03*
X118980000Y-75720000D03*
X121520000Y-73180000D03*
X118980000Y-73180000D03*
X121520000Y-70640000D03*
X118980000Y-70640000D03*
D20*
X121520000Y-68100000D03*
D21*
X118980000Y-68100000D03*
X121520000Y-65560000D03*
X118980000Y-65560000D03*
X121520000Y-63020000D03*
X118980000Y-63020000D03*
X121520000Y-60480000D03*
X118980000Y-60480000D03*
D20*
X121520000Y-57940000D03*
D21*
X118980000Y-57940000D03*
X121520000Y-55400000D03*
X118980000Y-55400000D03*
X121520000Y-52860000D03*
X118980000Y-52860000D03*
X121520000Y-50320000D03*
X118980000Y-50320000D03*
D20*
X121520000Y-47780000D03*
D21*
X118980000Y-47780000D03*
X121520000Y-45240000D03*
X118980000Y-45240000D03*
X121520000Y-42700000D03*
X118980000Y-42700000D03*
X121520000Y-40160000D03*
X118980000Y-40160000D03*
D22*
X46600000Y-45000000D03*
X48800000Y-45000000D03*
X61600000Y-45700000D03*
X59400000Y-45700000D03*
X61600000Y-49400000D03*
X59400000Y-49400000D03*
X46600000Y-49500000D03*
X48800000Y-49500000D03*
X113000000Y-35100000D03*
X110800000Y-35100000D03*
X42700000Y-45700000D03*
X40500000Y-45700000D03*
X38500000Y-47800000D03*
X36300000Y-47800000D03*
X42600000Y-55000000D03*
X40400000Y-55000000D03*
X38600000Y-57900000D03*
X36400000Y-57900000D03*
X42600000Y-65600000D03*
X40400000Y-65600000D03*
X38600000Y-68100000D03*
X36400000Y-68100000D03*
X42600000Y-75700000D03*
X40400000Y-75700000D03*
X38600000Y-78300000D03*
X36400000Y-78300000D03*
X42600000Y-85900000D03*
X40400000Y-85900000D03*
X38500000Y-88400000D03*
X36300000Y-88400000D03*
X42600000Y-96000000D03*
X40400000Y-96000000D03*
X38500000Y-98600000D03*
X36300000Y-98600000D03*
X42600000Y-104700000D03*
X40400000Y-104700000D03*
X38600000Y-107000000D03*
X36400000Y-107000000D03*
X42600000Y-109000000D03*
X40400000Y-109000000D03*
X38500000Y-111000000D03*
X36300000Y-111000000D03*
D23*
X40200000Y-113800000D03*
X40200000Y-116000000D03*
X42800000Y-117900000D03*
X42800000Y-120100000D03*
X50400000Y-113800000D03*
X50400000Y-116000000D03*
X52900000Y-117900000D03*
X52900000Y-120100000D03*
X60500000Y-113700000D03*
X60500000Y-115900000D03*
X63100000Y-117800000D03*
X63100000Y-120000000D03*
X70700000Y-113800000D03*
X70700000Y-116000000D03*
X73200000Y-117900000D03*
X73200000Y-120100000D03*
X80800000Y-113800000D03*
X80800000Y-116000000D03*
X83400000Y-117900000D03*
X83400000Y-120100000D03*
X91000000Y-113900000D03*
X91000000Y-116100000D03*
X93500000Y-117900000D03*
X93500000Y-120100000D03*
X100700000Y-113800000D03*
X100700000Y-116000000D03*
X102900000Y-117900000D03*
X102900000Y-120100000D03*
X105100000Y-113900000D03*
X105100000Y-116100000D03*
X107100000Y-117900000D03*
X107100000Y-120100000D03*
D22*
X108800000Y-113800000D03*
X111000000Y-113800000D03*
X112900000Y-111300000D03*
X115100000Y-111300000D03*
X108900000Y-103600000D03*
X111100000Y-103600000D03*
X113100000Y-101100000D03*
X115300000Y-101100000D03*
X108800000Y-93500000D03*
X111000000Y-93500000D03*
X113000000Y-90900000D03*
X115200000Y-90900000D03*
X108800000Y-83300000D03*
X111000000Y-83300000D03*
X113000000Y-80800000D03*
X115200000Y-80800000D03*
X108800000Y-73200000D03*
X111000000Y-73200000D03*
X113000000Y-70600000D03*
X115200000Y-70600000D03*
X108800000Y-63000000D03*
X111000000Y-63000000D03*
X113000000Y-60500000D03*
X115200000Y-60500000D03*
X108800000Y-52900000D03*
X111000000Y-52900000D03*
X113000000Y-50300000D03*
X115200000Y-50300000D03*
X108800000Y-42700000D03*
X111000000Y-42700000D03*
X113000000Y-40200000D03*
X115200000Y-40200000D03*
D24*
X83100000Y-39000000D03*
X83100000Y-33800000D03*
X85900000Y-39000000D03*
X85900000Y-33800000D03*
D25*
X51850000Y-45025000D03*
X51850000Y-45675000D03*
X51850000Y-46325000D03*
X51850000Y-46975000D03*
X56150000Y-46975000D03*
X56150000Y-46325000D03*
X56150000Y-45675000D03*
X56150000Y-45025000D03*
X47150000Y-76425000D03*
X47150000Y-77075000D03*
X47150000Y-77725000D03*
X47150000Y-78375000D03*
X47150000Y-79025000D03*
X47150000Y-79675000D03*
X47150000Y-80325000D03*
X47150000Y-80975000D03*
X47150000Y-81625000D03*
X47150000Y-82275000D03*
X47150000Y-82925000D03*
X47150000Y-83575000D03*
X52850000Y-83575000D03*
X52850000Y-82925000D03*
X52850000Y-82275000D03*
X52850000Y-81625000D03*
X52850000Y-80975000D03*
X52850000Y-80325000D03*
X52850000Y-79675000D03*
X52850000Y-79025000D03*
X52850000Y-78375000D03*
X52850000Y-77725000D03*
X52850000Y-77075000D03*
X52850000Y-76425000D03*
D26*
X71425000Y-107850000D03*
X72075000Y-107850000D03*
X72725000Y-107850000D03*
X73375000Y-107850000D03*
X74025000Y-107850000D03*
X74675000Y-107850000D03*
X75325000Y-107850000D03*
X75975000Y-107850000D03*
X76625000Y-107850000D03*
X77275000Y-107850000D03*
X77925000Y-107850000D03*
X78575000Y-107850000D03*
X78575000Y-102150000D03*
X77925000Y-102150000D03*
X77275000Y-102150000D03*
X76625000Y-102150000D03*
X75975000Y-102150000D03*
X75325000Y-102150000D03*
X74675000Y-102150000D03*
X74025000Y-102150000D03*
X73375000Y-102150000D03*
X72725000Y-102150000D03*
X72075000Y-102150000D03*
X71425000Y-102150000D03*
D25*
X102850000Y-83575000D03*
X102850000Y-82925000D03*
X102850000Y-82275000D03*
X102850000Y-81625000D03*
X102850000Y-80975000D03*
X102850000Y-80325000D03*
X102850000Y-79675000D03*
X102850000Y-79025000D03*
X102850000Y-78375000D03*
X102850000Y-77725000D03*
X102850000Y-77075000D03*
X102850000Y-76425000D03*
X97150000Y-76425000D03*
X97150000Y-77075000D03*
X97150000Y-77725000D03*
X97150000Y-78375000D03*
X97150000Y-79025000D03*
X97150000Y-79675000D03*
X97150000Y-80325000D03*
X97150000Y-80975000D03*
X97150000Y-81625000D03*
X97150000Y-82275000D03*
X97150000Y-82925000D03*
X97150000Y-83575000D03*
D20*
X50400000Y-37620000D03*
D21*
X50400000Y-35080000D03*
X52940000Y-37620000D03*
X52940000Y-35080000D03*
X55480000Y-37620000D03*
X55480000Y-35080000D03*
X58020000Y-37620000D03*
X58020000Y-35080000D03*
D27*
X29000000Y-34000000D03*
X29000000Y-126000000D03*
X121000000Y-34000000D03*
X121000000Y-126000000D03*
D20*
X45320000Y-126520000D03*
D21*
X45320000Y-123980000D03*
X47860000Y-126520000D03*
X47860000Y-123980000D03*
X50400000Y-126520000D03*
X50400000Y-123980000D03*
X52940000Y-126520000D03*
X52940000Y-123980000D03*
D20*
X96120000Y-37620000D03*
D21*
X96120000Y-35080000D03*
X98660000Y-37620000D03*
X98660000Y-35080000D03*
X101200000Y-37620000D03*
X101200000Y-35080000D03*
X103740000Y-37620000D03*
X103740000Y-35080000D03*
X106280000Y-37620000D03*
X106280000Y-35080000D03*
D28*
X56150000Y-42700000D03*
X54250000Y-42700000D03*
X52850000Y-74400000D03*
X50950000Y-74400000D03*
D29*
X69800000Y-102150000D03*
X69800000Y-104050000D03*
D28*
X97150000Y-85200000D03*
X99050000Y-85200000D03*
M02*
