G04 #@! TF.FileFunction,Legend,Bot*
%FSLAX46Y46*%
G04 Gerber Fmt 4.6, Leading zero omitted, Abs format (unit mm)*
G04 Created by KiCad (PCBNEW 4.0.1-stable) date 2016/05/29 12:35:40*
%MOMM*%
G01*
G04 APERTURE LIST*
%ADD10C,0.100000*%
%ADD11C,0.200000*%
%ADD12R,2.127200X2.127200*%
%ADD13O,2.127200X2.127200*%
%ADD14C,4.900000*%
G04 APERTURE END LIST*
D10*
D11*
X112766666Y-119852381D02*
X113100000Y-119376190D01*
X113338095Y-119852381D02*
X113338095Y-118852381D01*
X112957142Y-118852381D01*
X112861904Y-118900000D01*
X112814285Y-118947619D01*
X112766666Y-119042857D01*
X112766666Y-119185714D01*
X112814285Y-119280952D01*
X112861904Y-119328571D01*
X112957142Y-119376190D01*
X113338095Y-119376190D01*
X111957142Y-119804762D02*
X112052380Y-119852381D01*
X112242857Y-119852381D01*
X112338095Y-119804762D01*
X112385714Y-119709524D01*
X112385714Y-119328571D01*
X112338095Y-119233333D01*
X112242857Y-119185714D01*
X112052380Y-119185714D01*
X111957142Y-119233333D01*
X111909523Y-119328571D01*
X111909523Y-119423810D01*
X112385714Y-119519048D01*
X111576190Y-119185714D02*
X111338095Y-119852381D01*
X111099999Y-119185714D01*
X110719047Y-119757143D02*
X110671428Y-119804762D01*
X110719047Y-119852381D01*
X110766666Y-119804762D01*
X110719047Y-119757143D01*
X110719047Y-119852381D01*
X110290476Y-119566667D02*
X109814285Y-119566667D01*
X110385714Y-119852381D02*
X110052381Y-118852381D01*
X109719047Y-119852381D01*
X46271428Y-119128571D02*
X46604762Y-119128571D01*
X46604762Y-119652381D02*
X46604762Y-118652381D01*
X46128571Y-118652381D01*
X45319047Y-118985714D02*
X45319047Y-119652381D01*
X45747619Y-118985714D02*
X45747619Y-119509524D01*
X45700000Y-119604762D01*
X45604762Y-119652381D01*
X45461904Y-119652381D01*
X45366666Y-119604762D01*
X45319047Y-119557143D01*
X44842857Y-119652381D02*
X44842857Y-118985714D01*
X44842857Y-119080952D02*
X44795238Y-119033333D01*
X44700000Y-118985714D01*
X44557142Y-118985714D01*
X44461904Y-119033333D01*
X44414285Y-119128571D01*
X44414285Y-119652381D01*
X44414285Y-119128571D02*
X44366666Y-119033333D01*
X44271428Y-118985714D01*
X44128571Y-118985714D01*
X44033333Y-119033333D01*
X43985714Y-119128571D01*
X43985714Y-119652381D01*
X43509524Y-119652381D02*
X43509524Y-118985714D01*
X43509524Y-118652381D02*
X43557143Y-118700000D01*
X43509524Y-118747619D01*
X43461905Y-118700000D01*
X43509524Y-118652381D01*
X43509524Y-118747619D01*
X43128572Y-118985714D02*
X42890477Y-119652381D01*
X42652381Y-118985714D02*
X42890477Y-119652381D01*
X42985715Y-119890476D01*
X43033334Y-119938095D01*
X43128572Y-119985714D01*
X41842857Y-119652381D02*
X41842857Y-119128571D01*
X41890476Y-119033333D01*
X41985714Y-118985714D01*
X42176191Y-118985714D01*
X42271429Y-119033333D01*
X41842857Y-119604762D02*
X41938095Y-119652381D01*
X42176191Y-119652381D01*
X42271429Y-119604762D01*
X42319048Y-119509524D01*
X42319048Y-119414286D01*
X42271429Y-119319048D01*
X42176191Y-119271429D01*
X41938095Y-119271429D01*
X41842857Y-119223810D01*
X40604762Y-119652381D02*
X40604762Y-118652381D01*
X40033333Y-119652381D02*
X40461905Y-119080952D01*
X40033333Y-118652381D02*
X40604762Y-119223810D01*
X39176190Y-119652381D02*
X39176190Y-119128571D01*
X39223809Y-119033333D01*
X39319047Y-118985714D01*
X39509524Y-118985714D01*
X39604762Y-119033333D01*
X39176190Y-119604762D02*
X39271428Y-119652381D01*
X39509524Y-119652381D01*
X39604762Y-119604762D01*
X39652381Y-119509524D01*
X39652381Y-119414286D01*
X39604762Y-119319048D01*
X39509524Y-119271429D01*
X39271428Y-119271429D01*
X39176190Y-119223810D01*
X38842857Y-118985714D02*
X38461905Y-118985714D01*
X38700000Y-118652381D02*
X38700000Y-119509524D01*
X38652381Y-119604762D01*
X38557143Y-119652381D01*
X38461905Y-119652381D01*
X37985714Y-119652381D02*
X38080952Y-119604762D01*
X38128571Y-119557143D01*
X38176190Y-119461905D01*
X38176190Y-119176190D01*
X38128571Y-119080952D01*
X38080952Y-119033333D01*
X37985714Y-118985714D01*
X37842856Y-118985714D01*
X37747618Y-119033333D01*
X37699999Y-119080952D01*
X37652380Y-119176190D01*
X37652380Y-119461905D01*
X37699999Y-119557143D01*
X37747618Y-119604762D01*
X37842856Y-119652381D01*
X37985714Y-119652381D01*
X37223809Y-119652381D02*
X37223809Y-118652381D01*
X36795237Y-119652381D02*
X36795237Y-119128571D01*
X36842856Y-119033333D01*
X36938094Y-118985714D01*
X37080952Y-118985714D01*
X37176190Y-119033333D01*
X37223809Y-119080952D01*
%LPC*%
D12*
X30080000Y-40160000D03*
D13*
X32620000Y-40160000D03*
X30080000Y-42700000D03*
X32620000Y-42700000D03*
X30080000Y-45240000D03*
X32620000Y-45240000D03*
X30080000Y-47780000D03*
X32620000Y-47780000D03*
D12*
X30080000Y-50320000D03*
D13*
X32620000Y-50320000D03*
X30080000Y-52860000D03*
X32620000Y-52860000D03*
X30080000Y-55400000D03*
X32620000Y-55400000D03*
X30080000Y-57940000D03*
X32620000Y-57940000D03*
D12*
X30080000Y-60480000D03*
D13*
X32620000Y-60480000D03*
X30080000Y-63020000D03*
X32620000Y-63020000D03*
X30080000Y-65560000D03*
X32620000Y-65560000D03*
X30080000Y-68100000D03*
X32620000Y-68100000D03*
D12*
X30080000Y-70640000D03*
D13*
X32620000Y-70640000D03*
X30080000Y-73180000D03*
X32620000Y-73180000D03*
X30080000Y-75720000D03*
X32620000Y-75720000D03*
X30080000Y-78260000D03*
X32620000Y-78260000D03*
D12*
X30080000Y-80800000D03*
D13*
X32620000Y-80800000D03*
X30080000Y-83340000D03*
X32620000Y-83340000D03*
X30080000Y-85880000D03*
X32620000Y-85880000D03*
X30080000Y-88420000D03*
X32620000Y-88420000D03*
D12*
X30080000Y-90960000D03*
D13*
X32620000Y-90960000D03*
X30080000Y-93500000D03*
X32620000Y-93500000D03*
X30080000Y-96040000D03*
X32620000Y-96040000D03*
X30080000Y-98580000D03*
X32620000Y-98580000D03*
D12*
X30080000Y-101120000D03*
D13*
X32620000Y-101120000D03*
X30080000Y-103660000D03*
X32620000Y-103660000D03*
X30080000Y-106200000D03*
X32620000Y-106200000D03*
X30080000Y-108740000D03*
X32620000Y-108740000D03*
D12*
X30080000Y-111280000D03*
D13*
X32620000Y-111280000D03*
X30080000Y-113820000D03*
X32620000Y-113820000D03*
X30080000Y-116360000D03*
X32620000Y-116360000D03*
X30080000Y-118900000D03*
X32620000Y-118900000D03*
D12*
X35160000Y-126520000D03*
D13*
X35160000Y-123980000D03*
X37700000Y-126520000D03*
X37700000Y-123980000D03*
X40240000Y-126520000D03*
X40240000Y-123980000D03*
X42780000Y-126520000D03*
X42780000Y-123980000D03*
D12*
X55480000Y-126520000D03*
D13*
X55480000Y-123980000D03*
X58020000Y-126520000D03*
X58020000Y-123980000D03*
X60560000Y-126520000D03*
X60560000Y-123980000D03*
X63100000Y-126520000D03*
X63100000Y-123980000D03*
D12*
X65640000Y-126520000D03*
D13*
X65640000Y-123980000D03*
X68180000Y-126520000D03*
X68180000Y-123980000D03*
X70720000Y-126520000D03*
X70720000Y-123980000D03*
X73260000Y-126520000D03*
X73260000Y-123980000D03*
D12*
X75800000Y-126520000D03*
D13*
X75800000Y-123980000D03*
X78340000Y-126520000D03*
X78340000Y-123980000D03*
X80880000Y-126520000D03*
X80880000Y-123980000D03*
X83420000Y-126520000D03*
X83420000Y-123980000D03*
D12*
X85960000Y-126520000D03*
D13*
X85960000Y-123980000D03*
X88500000Y-126520000D03*
X88500000Y-123980000D03*
X91040000Y-126520000D03*
X91040000Y-123980000D03*
X93580000Y-126520000D03*
X93580000Y-123980000D03*
D12*
X96120000Y-126520000D03*
D13*
X96120000Y-123980000D03*
X98660000Y-126520000D03*
X98660000Y-123980000D03*
X101200000Y-126520000D03*
X101200000Y-123980000D03*
X103740000Y-126520000D03*
X103740000Y-123980000D03*
D12*
X106280000Y-126520000D03*
D13*
X106280000Y-123980000D03*
X108820000Y-126520000D03*
X108820000Y-123980000D03*
X111360000Y-126520000D03*
X111360000Y-123980000D03*
X113900000Y-126520000D03*
X113900000Y-123980000D03*
D12*
X121520000Y-118900000D03*
D13*
X118980000Y-118900000D03*
X121520000Y-116360000D03*
X118980000Y-116360000D03*
X121520000Y-113820000D03*
X118980000Y-113820000D03*
X121520000Y-111280000D03*
X118980000Y-111280000D03*
D12*
X121520000Y-108740000D03*
D13*
X118980000Y-108740000D03*
X121520000Y-106200000D03*
X118980000Y-106200000D03*
X121520000Y-103660000D03*
X118980000Y-103660000D03*
X121520000Y-101120000D03*
X118980000Y-101120000D03*
D12*
X121520000Y-98580000D03*
D13*
X118980000Y-98580000D03*
X121520000Y-96040000D03*
X118980000Y-96040000D03*
X121520000Y-93500000D03*
X118980000Y-93500000D03*
X121520000Y-90960000D03*
X118980000Y-90960000D03*
D12*
X121520000Y-88420000D03*
D13*
X118980000Y-88420000D03*
X121520000Y-85880000D03*
X118980000Y-85880000D03*
X121520000Y-83340000D03*
X118980000Y-83340000D03*
X121520000Y-80800000D03*
X118980000Y-80800000D03*
D12*
X121520000Y-78260000D03*
D13*
X118980000Y-78260000D03*
X121520000Y-75720000D03*
X118980000Y-75720000D03*
X121520000Y-73180000D03*
X118980000Y-73180000D03*
X121520000Y-70640000D03*
X118980000Y-70640000D03*
D12*
X121520000Y-68100000D03*
D13*
X118980000Y-68100000D03*
X121520000Y-65560000D03*
X118980000Y-65560000D03*
X121520000Y-63020000D03*
X118980000Y-63020000D03*
X121520000Y-60480000D03*
X118980000Y-60480000D03*
D12*
X121520000Y-57940000D03*
D13*
X118980000Y-57940000D03*
X121520000Y-55400000D03*
X118980000Y-55400000D03*
X121520000Y-52860000D03*
X118980000Y-52860000D03*
X121520000Y-50320000D03*
X118980000Y-50320000D03*
D12*
X121520000Y-47780000D03*
D13*
X118980000Y-47780000D03*
X121520000Y-45240000D03*
X118980000Y-45240000D03*
X121520000Y-42700000D03*
X118980000Y-42700000D03*
X121520000Y-40160000D03*
X118980000Y-40160000D03*
D12*
X50400000Y-37620000D03*
D13*
X50400000Y-35080000D03*
X52940000Y-37620000D03*
X52940000Y-35080000D03*
X55480000Y-37620000D03*
X55480000Y-35080000D03*
X58020000Y-37620000D03*
X58020000Y-35080000D03*
D14*
X29000000Y-34000000D03*
X29000000Y-126000000D03*
X121000000Y-34000000D03*
X121000000Y-126000000D03*
D12*
X45320000Y-126520000D03*
D13*
X45320000Y-123980000D03*
X47860000Y-126520000D03*
X47860000Y-123980000D03*
X50400000Y-126520000D03*
X50400000Y-123980000D03*
X52940000Y-126520000D03*
X52940000Y-123980000D03*
D12*
X96120000Y-37620000D03*
D13*
X96120000Y-35080000D03*
X98660000Y-37620000D03*
X98660000Y-35080000D03*
X101200000Y-37620000D03*
X101200000Y-35080000D03*
X103740000Y-37620000D03*
X103740000Y-35080000D03*
X106280000Y-37620000D03*
X106280000Y-35080000D03*
M02*
